<svg width="36" height="36" viewBox="0 0 36 36" fill="none" xmlns="http://www.w3.org/2000/svg">
<path d="M31.7087 21.3917C31.1667 24.0549 29.8872 26.5121 28.016 28.4832C26.1448 30.4542 23.7573 31.8597 21.1259 32.5393C18.4944 33.219 15.725 33.1453 13.1333 32.3269C10.5417 31.5084 8.23227 29.9781 6.46845 27.9104C4.70463 25.8427 3.55743 23.3209 3.15769 20.6327C2.75796 17.9444 3.12179 15.198 4.20768 12.7065C5.29357 10.2151 7.05781 8.07901 9.29916 6.54189C11.5405 5.00478 14.1688 4.12853 16.8841 4.01309L17.2304 12.1598C16.0421 12.2103 14.8918 12.5938 13.9109 13.2665C12.93 13.9392 12.1578 14.8741 11.6826 15.9645C11.2073 17.0549 11.0481 18.2569 11.2231 19.4334C11.398 20.6099 11.9001 21.7135 12.672 22.6185C13.444 23.5234 14.4547 24.1932 15.5889 24.5514C16.7231 24.9096 17.9352 24.9418 19.0869 24.6443C20.2385 24.3469 21.2834 23.7318 22.1023 22.8692C22.9213 22.0065 23.4813 20.9311 23.7185 19.7655L31.7087 21.3917Z" fill="#00D1FF"/>
<path d="M31.7087 21.3917C31.1667 24.0549 29.8872 26.5121 28.016 28.4832C26.1448 30.4542 23.7573 31.8597 21.1259 32.5393C18.4944 33.219 15.725 33.1453 13.1333 32.3269C10.5417 31.5084 8.23227 29.9781 6.46845 27.9104C4.70463 25.8427 3.55743 23.3209 3.15769 20.6327C2.75796 17.9444 3.12179 15.198 4.20768 12.7065C5.29357 10.2151 7.05781 8.07901 9.29916 6.54189C11.5405 5.00478 14.1688 4.12853 16.8841 4.01309L17.2304 12.1598C16.0421 12.2103 14.8918 12.5938 13.9109 13.2665C12.93 13.9392 12.1578 14.8741 11.6826 15.9645C11.2073 17.0549 11.0481 18.2569 11.2231 19.4334C11.398 20.6099 11.9001 21.7135 12.672 22.6185C13.444 23.5234 14.4547 24.1932 15.5889 24.5514C16.7231 24.9096 17.9352 24.9418 19.0869 24.6443C20.2385 24.3469 21.2834 23.7318 22.1023 22.8692C22.9213 22.0065 23.4813 20.9311 23.7185 19.7655L31.7087 21.3917Z" fill="#00D1FF"/>
<path d="M31.7087 21.3917C31.1667 24.0549 29.8872 26.5121 28.016 28.4832C26.1448 30.4542 23.7573 31.8597 21.1259 32.5393C18.4944 33.219 15.725 33.1453 13.1333 32.3269C10.5417 31.5084 8.23227 29.9781 6.46845 27.9104C4.70463 25.8427 3.55743 23.3209 3.15769 20.6327C2.75796 17.9444 3.12179 15.198 4.20768 12.7065C5.29357 10.2151 7.05781 8.07901 9.29916 6.54189C11.5405 5.00478 14.1688 4.12853 16.8841 4.01309L17.2304 12.1598C16.0421 12.2103 14.8918 12.5938 13.9109 13.2665C12.93 13.9392 12.1578 14.8741 11.6826 15.9645C11.2073 17.0549 11.0481 18.2569 11.2231 19.4334C11.398 20.6099 11.9001 21.7135 12.672 22.6185C13.444 23.5234 14.4547 24.1932 15.5889 24.5514C16.7231 24.9096 17.9352 24.9418 19.0869 24.6443C20.2385 24.3469 21.2834 23.7318 22.1023 22.8692C22.9213 22.0065 23.4813 20.9311 23.7185 19.7655L31.7087 21.3917Z" fill="#00D1FF"/>
<path d="M34 18.5C34 14.1239 32.2616 9.92709 29.1673 6.83274L21.9579 14.0421C23.1402 15.2244 23.8044 16.828 23.8044 18.5H34Z" fill="#0066FF"/>
<path d="M26.1983 4.47893C24.1443 3.20471 21.8354 2.39732 19.435 2.11386L18.2362 12.266C19.1494 12.3738 20.0278 12.681 20.8092 13.1658L26.1983 4.47893Z" fill="#0066FF"/>
</svg>
