<svg width="36" height="36" viewBox="0 0 36 36" fill="none" xmlns="http://www.w3.org/2000/svg">
<path fill-rule="evenodd" clip-rule="evenodd" d="M21.666 2.37156C23.9164 2.05007 25.9298 3.79629 25.9298 6.06954V7.93934C27.5456 8.79342 28.6465 10.491 28.6465 12.4457V26.0294C28.6465 28.8427 26.366 31.1233 23.5526 31.1233H9.9689C7.15561 31.1233 4.875 28.8427 4.875 26.0294V7.01223C4.875 6.99959 4.87523 6.98702 4.87568 6.9745C4.87523 6.95496 4.875 6.93534 4.875 6.91569C4.875 5.68466 5.78019 4.64095 6.99886 4.46686L21.666 2.37156ZM7.34869 7.35182H23.8922V6.06954C23.8922 5.03624 22.9771 4.2425 21.9541 4.38864L7.28701 6.48394C7.07216 6.51464 6.91256 6.69865 6.91256 6.91569C6.91256 7.15655 7.10783 7.35182 7.34869 7.35182Z" fill="#00D1FF"/>
<path d="M11 13.5H23M11 19.5H21M23 25H11" stroke="#0066FF" stroke-width="2" stroke-linecap="round"/>
</svg>
