<svg width="36" height="36" viewBox="0 0 36 36" fill="none" xmlns="http://www.w3.org/2000/svg">
<path d="M13.0303 12H21.2426C26.4685 16.456 30.077 20.912 28.7083 29.0813C27.9617 33.5373 7.05763 35.0226 4.81792 29.0813C2.57822 23.14 4.81778 17.9413 13.0303 12Z" fill="#0066FF"/>
<path d="M13.1312 10H20.7052C21.8527 9.27273 25.8521 7.05472 24.8364 4.90904C24.1479 3.45447 22.7708 5.6363 20.0166 5.6363C17.2625 5.6363 17.951 3.4545 15.1968 4.90904C12.1176 6.53528 13.8198 4.18172 11.7542 4.18181C9.68854 4.1819 9 3.45449 9 4.90904C9 6.07269 11.7541 8.78787 13.1312 10Z" fill="#00D1FF"/>
<path d="M11 20.2826V19.6139C11 19.1334 11.1075 18.6963 11.3224 18.3026C11.5373 17.9089 11.8597 17.5934 12.2896 17.356C12.7194 17.1187 13.2537 17 13.8925 17C14.5493 17 15.0925 17.1187 15.5224 17.356C15.9522 17.5934 16.2716 17.9089 16.4806 18.3026C16.6955 18.6963 16.803 19.1334 16.803 19.6139V20.2826C16.803 20.7515 16.6955 21.1828 16.4806 21.5765C16.2716 21.9702 15.9522 22.2857 15.5224 22.523C15.0985 22.7604 14.5612 22.8791 13.9104 22.8791C13.2657 22.8791 12.7284 22.7604 12.2985 22.523C11.8687 22.2857 11.5433 21.9702 11.3224 21.5765C11.1075 21.1828 11 20.7515 11 20.2826ZM12.9343 19.6139V20.2826C12.9343 20.4562 12.9701 20.6212 13.0418 20.7776C13.1134 20.9339 13.2209 21.0612 13.3642 21.1597C13.5134 21.2523 13.6955 21.2986 13.9104 21.2986C14.1313 21.2986 14.3104 21.2523 14.4478 21.1597C14.5851 21.0612 14.6866 20.9339 14.7522 20.7776C14.8239 20.6212 14.8597 20.4562 14.8597 20.2826V19.6139C14.8597 19.4286 14.8239 19.2578 14.7522 19.1015C14.6866 18.9452 14.5821 18.8208 14.4388 18.7281C14.2955 18.6297 14.1134 18.5805 13.8925 18.5805C13.6836 18.5805 13.5075 18.6297 13.3642 18.7281C13.2209 18.8208 13.1134 18.9452 13.0418 19.1015C12.9701 19.2578 12.9343 19.4286 12.9343 19.6139ZM17.1881 27.3948V26.7261C17.1881 26.2514 17.2955 25.8172 17.5104 25.4235C17.7313 25.0298 18.0567 24.7143 18.4866 24.477C18.9224 24.2396 19.4597 24.1209 20.0985 24.1209C20.7552 24.1209 21.2955 24.2396 21.7194 24.477C22.1493 24.7143 22.4687 25.0298 22.6776 25.4235C22.8925 25.8172 23 26.2514 23 26.7261V27.3948C23 27.8695 22.8925 28.3037 22.6776 28.6974C22.4687 29.0911 22.1522 29.4066 21.7284 29.644C21.3045 29.8813 20.7672 30 20.1164 30C19.4716 30 18.9313 29.8813 18.4955 29.644C18.0597 29.4066 17.7313 29.0911 17.5104 28.6974C17.2955 28.3037 17.1881 27.8695 17.1881 27.3948ZM19.1313 26.7261V27.3948C19.1313 27.5743 19.1761 27.7422 19.2657 27.8985C19.3552 28.0548 19.4746 28.1821 19.6239 28.2806C19.7731 28.3732 19.9373 28.4195 20.1164 28.4195C20.391 28.4195 20.594 28.3732 20.7254 28.2806C20.8627 28.1821 20.9522 28.0548 20.994 27.8985C21.0418 27.7422 21.0657 27.5743 21.0657 27.3948V26.7261C21.0657 26.5466 21.0299 26.3788 20.9582 26.2224C20.8866 26.0661 20.7791 25.9417 20.6358 25.849C20.4925 25.7506 20.3134 25.7014 20.0985 25.7014C19.8836 25.7014 19.7045 25.7506 19.5612 25.849C19.4179 25.9417 19.3104 26.0661 19.2388 26.2224C19.1672 26.3788 19.1313 26.5466 19.1313 26.7261ZM20.8507 18.9973L14.4836 28.8798L13.0776 28.1937L19.4448 18.3113L20.8507 18.9973Z" fill="white"/>
</svg>
