<svg width="36" height="36" viewBox="0 0 36 36" fill="none" xmlns="http://www.w3.org/2000/svg">
<g clip-path="url(#clip0_595_3928)">
<path d="M15.9794 15.9156C15.8691 15.5854 15.7588 15.2552 15.6484 14.925L28.982 14.8726L26.9987 12.7605L14.689 12.627C14.4795 12.1912 14.182 11.8744 13.7854 11.4519C11.0088 8.49501 6.8911 8.78963 4.42699 12.1215C1.96288 15.4534 2.30756 20.5003 4.98498 23.3516C7.66241 26.2029 11.8793 26.0139 14.3434 22.682C14.8714 21.968 15.3003 21.1484 15.5419 20.3422L17.9751 20.1681L19.7352 17.7882L21.7185 19.9003L23.4786 17.5204L25.4618 19.6325L27.3335 19.4986L29.9736 15.9287L15.9794 15.9156ZM6.45746 18.9636C5.76331 18.2244 5.79551 16.9824 6.32354 16.2684C6.85156 15.5545 7.97457 15.4741 8.56955 16.1077C9.16453 16.7414 9.23149 18.089 8.70347 18.8029C8.17544 19.5169 7.1516 19.7029 6.45746 18.9636Z" fill="#00D1FF"/>
<path d="M19 26C19 27.1046 18.1046 28 17 28C15.8954 28 15 27.1046 15 26C15 24.8954 15.8954 24 17 24C18.1046 24 19 24.8954 19 26Z" fill="#0066FF"/>
<circle cx="22" cy="26" r="2" fill="#0066FF"/>
<circle cx="27" cy="26" r="2" fill="#0066FF"/>
</g>
<defs>
<clipPath id="clip0_595_3928">
<rect width="36" height="36" fill="white"/>
</clipPath>
</defs>
</svg>
