<svg width="36" height="36" viewBox="0 0 36 36" fill="none" xmlns="http://www.w3.org/2000/svg">
<path d="M25.7455 21.5455C25.5881 21.9019 25.5412 22.2973 25.6107 22.6807C25.6802 23.0641 25.863 23.4178 26.1355 23.6964L26.2064 23.7673C26.4261 23.9868 26.6005 24.2475 26.7194 24.5344C26.8384 24.8214 26.8996 25.1289 26.8996 25.4395C26.8996 25.7502 26.8384 26.0577 26.7194 26.3447C26.6005 26.6316 26.4261 26.8923 26.2064 27.1118C25.9868 27.3316 25.7262 27.5059 25.4392 27.6249C25.1523 27.7438 24.8447 27.805 24.5341 27.805C24.2235 27.805 23.9159 27.7438 23.629 27.6249C23.342 27.5059 23.0813 27.3316 22.8618 27.1118L22.7909 27.0409C22.5124 26.7685 22.1586 26.5857 21.7752 26.5162C21.3919 26.4467 20.9965 26.4936 20.64 26.6509C20.2905 26.8007 19.9923 27.0495 19.7824 27.3665C19.5724 27.6836 19.4597 28.0552 19.4582 28.4355V28.6364C19.4582 29.2632 19.2092 29.8644 18.7659 30.3077C18.3226 30.751 17.7214 31 17.0945 31C16.4677 31 15.8665 30.751 15.4232 30.3077C14.9799 29.8644 14.7309 29.2632 14.7309 28.6364V28.53C14.7218 28.1388 14.5951 27.7594 14.3675 27.4412C14.1399 27.1229 13.8218 26.8805 13.4545 26.7455C13.0981 26.5881 12.7027 26.5412 12.3193 26.6107C11.9359 26.6802 11.5822 26.863 11.3036 27.1355L11.2327 27.2064C11.0132 27.4261 10.7525 27.6005 10.4656 27.7194C10.1786 27.8384 9.87107 27.8996 9.56045 27.8996C9.24984 27.8996 8.94226 27.8384 8.65532 27.7194C8.36838 27.6005 8.1077 27.4261 7.88818 27.2064C7.66842 26.9868 7.49408 26.7262 7.37513 26.4392C7.25618 26.1523 7.19496 25.8447 7.19496 25.5341C7.19496 25.2235 7.25618 24.9159 7.37513 24.629C7.49408 24.342 7.66842 24.0813 7.88818 23.8618L7.95909 23.7909C8.23154 23.5124 8.41431 23.1586 8.48382 22.7752C8.55334 22.3919 8.50641 21.9965 8.34909 21.64C8.19928 21.2905 7.95053 20.9923 7.63346 20.7824C7.31639 20.5724 6.94484 20.4597 6.56455 20.4582H6.36364C5.73676 20.4582 5.13556 20.2092 4.69229 19.7659C4.24903 19.3226 4 18.7214 4 18.0945C4 17.4677 4.24903 16.8665 4.69229 16.4232C5.13556 15.9799 5.73676 15.7309 6.36364 15.7309H6.47C6.86118 15.7218 7.24055 15.5951 7.55881 15.3675C7.87706 15.1399 8.11948 14.8218 8.25455 14.4545C8.41186 14.0981 8.45879 13.7027 8.38928 13.3193C8.31976 12.9359 8.137 12.5822 7.86455 12.3036L7.79364 12.2327C7.57387 12.0132 7.39953 11.7525 7.28059 11.4656C7.16164 11.1786 7.10041 10.8711 7.10041 10.5605C7.10041 10.2498 7.16164 9.94226 7.28059 9.65532C7.39953 9.36838 7.57387 9.1077 7.79364 8.88818C8.01315 8.66842 8.27384 8.49408 8.56078 8.37513C8.84772 8.25618 9.15529 8.19496 9.46591 8.19496C9.77653 8.19496 10.0841 8.25618 10.371 8.37513C10.658 8.49408 10.9187 8.66842 11.1382 8.88818L11.2091 8.95909C11.4876 9.23154 11.8414 9.41431 12.2248 9.48382C12.6081 9.55334 13.0035 9.50641 13.36 9.34909H13.4545C13.8041 9.19928 14.1022 8.95053 14.3122 8.63346C14.5222 8.31639 14.6348 7.94484 14.6364 7.56455V7.36364C14.6364 6.73676 14.8854 6.13556 15.3287 5.69229C15.7719 5.24903 16.3731 5 17 5C17.6269 5 18.2281 5.24903 18.6713 5.69229C19.1146 6.13556 19.3636 6.73676 19.3636 7.36364V7.47C19.3652 7.85029 19.4778 8.22184 19.6878 8.53891C19.8978 8.85598 20.1959 9.10473 20.5455 9.25455C20.9019 9.41186 21.2973 9.45879 21.6807 9.38928C22.0641 9.31976 22.4178 9.137 22.6964 8.86455L22.7673 8.79364C22.9868 8.57387 23.2475 8.39953 23.5344 8.28059C23.8214 8.16164 24.1289 8.10041 24.4395 8.10041C24.7502 8.10041 25.0577 8.16164 25.3447 8.28059C25.6316 8.39953 25.8923 8.57387 26.1118 8.79364C26.3316 9.01315 26.5059 9.27384 26.6249 9.56078C26.7438 9.84772 26.805 10.1553 26.805 10.4659C26.805 10.7765 26.7438 11.0841 26.6249 11.371C26.5059 11.658 26.3316 11.9187 26.1118 12.1382L26.0409 12.2091C25.7685 12.4876 25.5857 12.8414 25.5162 13.2248C25.4467 13.6081 25.4936 14.0035 25.6509 14.36V14.4545C25.8007 14.8041 26.0495 15.1022 26.3665 15.3122C26.6836 15.5222 27.0552 15.6348 27.4355 15.6364H27.6364C28.2632 15.6364 28.8644 15.8854 29.3077 16.3287C29.751 16.7719 30 17.3731 30 18C30 18.6269 29.751 19.2281 29.3077 19.6713C28.8644 20.1146 28.2632 20.3636 27.6364 20.3636H27.53C27.1497 20.3652 26.7782 20.4778 26.4611 20.6878C26.144 20.8978 25.8953 21.1959 25.7455 21.5455Z" fill="#00D1FF"/>
<path d="M29.0364 26.6364C28.9638 26.8009 28.9421 26.9834 28.9742 27.1603C29.0063 27.3373 29.0906 27.5005 29.2164 27.6291L29.2491 27.6618C29.3505 27.7631 29.431 27.8834 29.4859 28.0159C29.5408 28.1483 29.569 28.2903 29.569 28.4336C29.569 28.577 29.5408 28.719 29.4859 28.8514C29.431 28.9838 29.3505 29.1041 29.2491 29.2055C29.1478 29.3069 29.0275 29.3873 28.895 29.4422C28.7626 29.4971 28.6206 29.5254 28.4773 29.5254C28.3339 29.5254 28.192 29.4971 28.0595 29.4422C27.9271 29.3873 27.8068 29.3069 27.7055 29.2055L27.6727 29.1727C27.5442 29.047 27.3809 28.9626 27.204 28.9305C27.027 28.8985 26.8445 28.9201 26.68 28.9927C26.5187 29.0619 26.3811 29.1767 26.2842 29.323C26.1873 29.4694 26.1352 29.6408 26.1345 29.8164V29.9091C26.1345 30.1984 26.0196 30.4759 25.815 30.6805C25.6104 30.8851 25.333 31 25.0436 31C24.7543 31 24.4768 30.8851 24.2722 30.6805C24.0677 30.4759 23.9527 30.1984 23.9527 29.9091V29.86C23.9485 29.6795 23.8901 29.5044 23.785 29.3575C23.6799 29.2106 23.5331 29.0987 23.3636 29.0364C23.1991 28.9638 23.0166 28.9421 22.8397 28.9742C22.6627 29.0063 22.4995 29.0906 22.3709 29.2164L22.3382 29.2491C22.2369 29.3505 22.1166 29.431 21.9841 29.4859C21.8517 29.5408 21.7097 29.569 21.5664 29.569C21.423 29.569 21.281 29.5408 21.1486 29.4859C21.0162 29.431 20.8959 29.3505 20.7945 29.2491C20.6931 29.1478 20.6127 29.0275 20.5578 28.895C20.5029 28.7626 20.4746 28.6206 20.4746 28.4773C20.4746 28.3339 20.5029 28.192 20.5578 28.0595C20.6127 27.9271 20.6931 27.8068 20.7945 27.7055L20.8273 27.6727C20.953 27.5442 21.0374 27.3809 21.0695 27.204C21.1015 27.027 21.0799 26.8445 21.0073 26.68C20.9381 26.5187 20.8233 26.3811 20.677 26.2842C20.5306 26.1873 20.3592 26.1352 20.1836 26.1345H20.0909C19.8016 26.1345 19.5241 26.0196 19.3195 25.815C19.1149 25.6104 19 25.333 19 25.0436C19 24.7543 19.1149 24.4768 19.3195 24.2722C19.5241 24.0677 19.8016 23.9527 20.0909 23.9527H20.14C20.3205 23.9485 20.4956 23.8901 20.6425 23.785C20.7894 23.6799 20.9013 23.5331 20.9636 23.3636C21.0362 23.1991 21.0579 23.0166 21.0258 22.8397C20.9937 22.6627 20.9094 22.4995 20.7836 22.3709L20.7509 22.3382C20.6495 22.2369 20.569 22.1166 20.5141 21.9841C20.4592 21.8517 20.431 21.7097 20.431 21.5664C20.431 21.423 20.4592 21.281 20.5141 21.1486C20.569 21.0162 20.6495 20.8959 20.7509 20.7945C20.8522 20.6931 20.9725 20.6127 21.105 20.5578C21.2374 20.5029 21.3794 20.4746 21.5227 20.4746C21.6661 20.4746 21.808 20.5029 21.9405 20.5578C22.0729 20.6127 22.1932 20.6931 22.2945 20.7945L22.3273 20.8273C22.4558 20.953 22.6191 21.0374 22.796 21.0695C22.973 21.1015 23.1555 21.0799 23.32 21.0073H23.3636C23.525 20.9381 23.6626 20.8233 23.7595 20.677C23.8564 20.5306 23.9084 20.3592 23.9091 20.1836V20.0909C23.9091 19.8016 24.024 19.5241 24.2286 19.3195C24.4332 19.1149 24.7107 19 25 19C25.2893 19 25.5668 19.1149 25.7714 19.3195C25.976 19.5241 26.0909 19.8016 26.0909 20.0909V20.14C26.0916 20.3155 26.1436 20.487 26.2405 20.6333C26.3374 20.7797 26.475 20.8945 26.6364 20.9636C26.8009 21.0362 26.9834 21.0579 27.1603 21.0258C27.3373 20.9937 27.5005 20.9094 27.6291 20.7836L27.6618 20.7509C27.7631 20.6495 27.8834 20.569 28.0159 20.5141C28.1483 20.4592 28.2903 20.431 28.4336 20.431C28.577 20.431 28.719 20.4592 28.8514 20.5141C28.9838 20.569 29.1041 20.6495 29.2055 20.7509C29.3069 20.8522 29.3873 20.9725 29.4422 21.105C29.4971 21.2374 29.5254 21.3794 29.5254 21.5227C29.5254 21.6661 29.4971 21.808 29.4422 21.9405C29.3873 22.0729 29.3069 22.1932 29.2055 22.2945L29.1727 22.3273C29.047 22.4558 28.9626 22.6191 28.9305 22.796C28.8985 22.973 28.9201 23.1555 28.9927 23.32V23.3636C29.0619 23.525 29.1767 23.6626 29.323 23.7595C29.4694 23.8564 29.6408 23.9084 29.8164 23.9091H29.9091C30.1984 23.9091 30.4759 24.024 30.6805 24.2286C30.8851 24.4332 31 24.7107 31 25C31 25.2893 30.8851 25.5668 30.6805 25.7714C30.4759 25.976 30.1984 26.0909 29.9091 26.0909H29.86C29.6845 26.0916 29.513 26.1436 29.3667 26.2405C29.2203 26.3374 29.1055 26.475 29.0364 26.6364Z" fill="#0066FF"/>
<path d="M17 21C18.6569 21 20 19.6569 20 18C20 16.3431 18.6569 15 17 15C15.3431 15 14 16.3431 14 18C14 19.6569 15.3431 21 17 21Z" fill="#0066FF"/>
<path d="M25 27C26.1046 27 27 26.1046 27 25C27 23.8954 26.1046 23 25 23C23.8954 23 23 23.8954 23 25C23 26.1046 23.8954 27 25 27Z" fill="#80E8FF"/>
</svg>
