<svg width="36" height="36" viewBox="0 0 36 36" fill="none" xmlns="http://www.w3.org/2000/svg">
<g clip-path="url(#clip0_618_979)">
<path d="M28.6395 22.3447C28.555 22.059 28.3634 21.823 28.0388 21.7137C26.2534 21.1121 24.2899 21.3077 22.768 22.3379L21.7264 23.0155C20.4966 23.7155 18.9354 23.7895 17.5558 23.3247L15.1213 22.5044C14.6344 22.3403 14.4135 21.923 14.5692 21.4611C14.7248 20.9993 15.1532 20.8007 15.6401 20.9648L17.1819 21.4843C18.4804 21.9218 20.0348 21.3312 20.4498 20.0995L20.4758 20.0226C20.6055 19.6377 20.3294 19.116 19.9236 18.9793L14.9734 17.3114C12.0519 16.327 9.28355 16.7657 7.31074 18.3297L4.03026 20.8246C2.8418 21.697 4.51807 27.049 5.96683 26.8775C9.69904 25.992 13.6069 26.1944 17.2587 27.4248C19.9367 28.3272 22.8381 27.7618 24.8888 25.9669L28.3249 23.0101C28.539 22.9109 28.6428 22.6029 28.6395 22.3447Z" fill="#00D1FF"/>
<path d="M8.34871 13.0143C8.44093 13.2975 8.63886 13.5282 8.96631 13.6287C10.7673 14.1815 12.7249 13.9326 14.2181 12.8614L15.241 12.1557C16.4513 11.4226 18.0099 11.3061 19.4016 11.7333L21.8575 12.4871C22.3487 12.6379 22.5808 13.049 22.4378 13.515C22.2948 13.9809 21.872 14.191 21.3808 14.0403L19.8254 13.5628C18.5155 13.1608 16.9777 13.7934 16.5963 15.0359L16.5725 15.1136C16.4533 15.5019 16.7435 16.0158 17.1528 16.1414L22.1465 17.6742C25.0937 18.5788 27.8491 18.065 29.7787 16.4479L32.9901 13.8648C34.1544 12.9604 32.3333 7.65592 30.8897 7.86682C27.183 8.85339 23.2711 8.75733 19.5872 7.62659C16.8856 6.79739 14.0006 7.44139 11.9996 9.29139L8.6451 12.3405C8.4337 12.4455 8.33835 12.7562 8.34871 13.0143Z" fill="#0066FF"/>
</g>
<defs>
<clipPath id="clip0_618_979">
<rect width="32" height="32" fill="white" transform="translate(2 2)"/>
</clipPath>
</defs>
</svg>
