<svg width="36" height="36" viewBox="0 0 36 36" fill="none" xmlns="http://www.w3.org/2000/svg">
<path d="M22.5 17C24.9853 17 27 14.9853 27 12.5C27 10.0147 24.9853 8 22.5 8C20.0147 8 18 10.0147 18 12.5C18 14.9853 20.0147 17 22.5 17Z" fill="#0066FF"/>
<path d="M31.9 18.5C31.7 18.2 31.4 18 31 18C28.8 18 26.7 19 25.4 20.8L24.5 22C23.4 23.3 21.7 24 20 24H17C16.4 24 16 23.6 16 23C16 22.4 16.4 22 17 22H18.9C20.5 22 22 20.7 22 19.1V19C22 18.5 21.5 18 21 18H14.9C11.3 18 8.4 19.6 6.8 22.2L4.1 26.4C3.1101 27.8848 6.96073 33.4696 8.5 32.7C12.3 30.2 16.7 28.9 21.2 28.9C24.5 28.9 27.5 27.1 29.1 24.2L31.8 19.4C32 19.2 32 18.8 31.9 18.5Z" fill="#00D1FF"/>
<path d="M21.0002 5.91795C20.2431 5.34041 19.3037 5 18.3024 5C15.8024 5 13.8024 7 13.8024 9.5C13.8024 11.3578 14.9068 12.9395 16.5002 13.6295C17.7692 14.1791 15.5765 12 17.5001 9C19.4763 5.91795 22.3738 6.96588 21.0002 5.91795Z" fill="#0066FF"/>
</svg>
