<svg width="36" height="36" viewBox="0 0 36 36" fill="none" xmlns="http://www.w3.org/2000/svg">
<g clip-path="url(#clip0_595_3920)">
<path d="M28.2346 22.9632H4.19906C2.96082 22.9632 1.95357 23.9703 1.95357 25.2084C1.95357 26.4468 2.96082 27.4542 4.19906 27.4542H28.2346C29.473 27.4542 30.4805 26.4468 30.4805 25.2084C30.4805 23.9704 29.473 22.9632 28.2346 22.9632Z" fill="#00D1FF"/>
<path d="M26.8401 21.2941C26.2993 20.3957 26.0135 19.3713 26.0135 18.3319V13.4054C26.0135 8.52136 22.4069 4.38856 17.5918 3.71231C17.9476 3.30393 18.1413 2.78987 18.1413 2.24518C18.1413 1.00706 17.1338 -6.10352e-05 15.8955 -6.10352e-05C14.6575 -6.10352e-05 13.6502 1.00706 13.6502 2.24518C13.6502 2.82793 13.8833 3.38718 14.2956 3.80743C9.7214 4.71737 6.4221 8.72261 6.4221 13.4055V18.332C6.4221 19.3712 6.13629 20.3955 5.5956 21.2942L5.50497 21.4448H26.9307L26.8401 21.2941Z" fill="#00D1FF"/>
<path d="M12.841 29.4233C13.0969 30.9164 14.3819 31.9999 15.8963 31.9999C17.4109 31.9999 18.6962 30.9164 18.9522 29.4233L18.9722 29.307H12.821L12.841 29.4233Z" fill="#0066FF"/>
</g>
<defs>
<clipPath id="clip0_595_3920">
<rect width="36" height="36" fill="white"/>
</clipPath>
</defs>
</svg>
