<svg width="199" height="36" viewBox="0 0 199 36" fill="none" xmlns="http://www.w3.org/2000/svg">
<path fill-rule="evenodd" clip-rule="evenodd" d="M0 9.78261C0 4.37982 4.44277 0 9.9232 0H39.4054C43.2053 0 46.2857 3.03678 46.2857 6.78283V13.749H42.5328V6.78283C42.5328 5.08008 41.1326 3.69973 39.4054 3.69973H9.9232C6.51544 3.69973 3.7529 6.42313 3.7529 9.78261V12.0491C3.7529 14.1568 5.48611 15.8655 7.62413 15.8655V19.5652C3.41344 19.5652 0 16.2001 0 12.0491V9.78261Z" fill="#0066FF"/>
<path fill-rule="evenodd" clip-rule="evenodd" d="M46.2857 26.2174C46.2857 31.6202 41.8429 36 36.3625 36H6.88029C3.0804 36 -2.14577e-05 32.9632 -2.14577e-05 29.2172V22.251H3.75288V29.2172C3.75288 30.9199 5.15307 32.3003 6.88029 32.3003H36.3625C39.7703 32.3003 42.5328 29.5769 42.5328 26.2174C42.5328 22.8579 39.7703 20.1345 36.3625 20.1345H14.5213V16.4348H36.3625C41.8429 16.4348 46.2857 20.8146 46.2857 26.2174Z" fill="#0066FF"/>
<path fill-rule="evenodd" clip-rule="evenodd" d="M9.41406 11.0325C9.41406 9.26165 10.7924 7.82608 12.4926 7.82608H31.064C34.2715 7.82608 36.8717 10.5343 36.8717 13.875H33.1774C33.1774 12.6593 32.2312 11.6738 31.064 11.6738H13.1084V24.3262H31.064C32.2312 24.3262 33.1774 23.3407 33.1774 22.125H36.8717C36.8717 25.4657 34.2715 28.1739 31.064 28.1739H12.4926C10.7924 28.1739 9.41406 26.7383 9.41406 24.9675V11.0325Z" fill="#00D1FF"/>
<path d="M198.598 28.0371V30.7969H185.045V28.0371H198.598ZM185.731 5.20312V30.7969H182.338V5.20312H185.731ZM196.805 16.207V18.9668H185.045V16.207H196.805ZM198.422 5.20312V7.98047H185.045V5.20312H198.422Z" fill="#111D2B"/>
<path d="M160.155 5.20312H168.628C170.549 5.20312 172.172 5.49609 173.497 6.08203C174.833 6.66797 175.846 7.53516 176.538 8.68359C177.241 9.82031 177.592 11.2207 177.592 12.8848C177.592 14.0566 177.352 15.1289 176.872 16.1016C176.403 17.0625 175.723 17.8828 174.833 18.5625C173.954 19.2305 172.899 19.7285 171.669 20.0566L170.719 20.4258H162.756L162.721 17.666H168.733C169.952 17.666 170.965 17.4551 171.774 17.0332C172.583 16.5996 173.192 16.0195 173.602 15.293C174.012 14.5664 174.217 13.7637 174.217 12.8848C174.217 11.9004 174.024 11.0391 173.637 10.3008C173.251 9.5625 172.641 8.99414 171.809 8.5957C170.989 8.18555 169.928 7.98047 168.628 7.98047H163.547V30.7969H160.155V5.20312ZM175.114 30.7969L168.891 19.1953L172.424 19.1777L178.735 30.5859V30.7969H175.114Z" fill="#111D2B"/>
<path d="M155.075 17.1914V18.8086C155.075 20.7305 154.835 22.4531 154.354 23.9766C153.874 25.5 153.182 26.7949 152.28 27.8613C151.378 28.9277 150.294 29.7422 149.028 30.3047C147.774 30.8672 146.368 31.1484 144.809 31.1484C143.297 31.1484 141.909 30.8672 140.643 30.3047C139.389 29.7422 138.299 28.9277 137.374 27.8613C136.46 26.7949 135.751 25.5 135.247 23.9766C134.743 22.4531 134.491 20.7305 134.491 18.8086V17.1914C134.491 15.2695 134.737 13.5527 135.229 12.041C135.733 10.5176 136.442 9.22266 137.356 8.15625C138.27 7.07812 139.354 6.25781 140.608 5.69531C141.874 5.13281 143.262 4.85156 144.774 4.85156C146.333 4.85156 147.739 5.13281 148.993 5.69531C150.258 6.25781 151.342 7.07812 152.245 8.15625C153.159 9.22266 153.856 10.5176 154.336 12.041C154.829 13.5527 155.075 15.2695 155.075 17.1914ZM151.717 18.8086V17.1562C151.717 15.6328 151.559 14.2852 151.243 13.1133C150.938 11.9414 150.487 10.957 149.889 10.1602C149.292 9.36328 148.559 8.75977 147.692 8.34961C146.836 7.93945 145.864 7.73438 144.774 7.73438C143.719 7.73438 142.764 7.93945 141.909 8.34961C141.065 8.75977 140.338 9.36328 139.729 10.1602C139.131 10.957 138.669 11.9414 138.34 13.1133C138.012 14.2852 137.848 15.6328 137.848 17.1562V18.8086C137.848 20.3438 138.012 21.7031 138.34 22.8867C138.669 24.0586 139.137 25.0488 139.747 25.8574C140.368 26.6543 141.1 27.2578 141.944 27.668C142.799 28.0781 143.754 28.2832 144.809 28.2832C145.911 28.2832 146.889 28.0781 147.745 27.668C148.6 27.2578 149.321 26.6543 149.907 25.8574C150.504 25.0488 150.956 24.0586 151.26 22.8867C151.565 21.7031 151.717 20.3438 151.717 18.8086Z" fill="#111D2B"/>
<path d="M127.372 22.6582H130.747C130.571 24.2754 130.108 25.7227 129.358 27C128.608 28.2773 127.547 29.291 126.176 30.041C124.805 30.7793 123.094 31.1484 121.044 31.1484C119.544 31.1484 118.178 30.8672 116.948 30.3047C115.729 29.7422 114.68 28.9453 113.801 27.9141C112.922 26.8711 112.243 25.623 111.762 24.1699C111.294 22.7051 111.059 21.0762 111.059 19.2832V16.7344C111.059 14.9414 111.294 13.3184 111.762 11.8652C112.243 10.4004 112.928 9.14648 113.819 8.10352C114.721 7.06055 115.805 6.25781 117.071 5.69531C118.336 5.13281 119.76 4.85156 121.342 4.85156C123.276 4.85156 124.911 5.21484 126.247 5.94141C127.583 6.66797 128.62 7.67578 129.358 8.96484C130.108 10.2422 130.571 11.7246 130.747 13.4121H127.372C127.208 12.2168 126.903 11.1914 126.458 10.3359C126.012 9.46875 125.379 8.80078 124.559 8.33203C123.739 7.86328 122.667 7.62891 121.342 7.62891C120.206 7.62891 119.204 7.8457 118.336 8.2793C117.481 8.71289 116.76 9.32812 116.174 10.125C115.6 10.9219 115.167 11.877 114.874 12.9902C114.581 14.1035 114.434 15.3398 114.434 16.6992V19.2832C114.434 20.5371 114.563 21.7148 114.821 22.8164C115.09 23.918 115.495 24.8848 116.034 25.7168C116.573 26.5488 117.258 27.2051 118.09 27.6855C118.922 28.1543 119.907 28.3887 121.044 28.3887C122.485 28.3887 123.633 28.1602 124.489 27.7031C125.344 27.2461 125.989 26.5898 126.422 25.7344C126.868 24.8789 127.184 23.8535 127.372 22.6582Z" fill="#111D2B"/>
<path d="M104.186 24.3281C104.186 23.7305 104.092 23.2031 103.905 22.7461C103.729 22.2773 103.413 21.8555 102.956 21.4805C102.51 21.1055 101.889 20.748 101.092 20.4082C100.307 20.0684 99.3111 19.7227 98.1041 19.3711C96.8384 18.9961 95.6959 18.5801 94.6763 18.123C93.6568 17.6543 92.7838 17.1211 92.0572 16.5234C91.3306 15.9258 90.774 15.2402 90.3873 14.4668C90.0005 13.6934 89.8072 12.8086 89.8072 11.8125C89.8072 10.8164 90.0123 9.89648 90.4224 9.05273C90.8326 8.20898 91.4185 7.47656 92.1802 6.85547C92.9537 6.22266 93.8736 5.73047 94.94 5.37891C96.0064 5.02734 97.1959 4.85156 98.5084 4.85156C100.43 4.85156 102.059 5.2207 103.395 5.95898C104.743 6.68555 105.768 7.64062 106.471 8.82422C107.174 9.99609 107.526 11.25 107.526 12.5859H104.151C104.151 11.625 103.946 10.7754 103.536 10.0371C103.126 9.28711 102.504 8.70117 101.672 8.2793C100.84 7.8457 99.7857 7.62891 98.5084 7.62891C97.3013 7.62891 96.3052 7.81055 95.5201 8.17383C94.7349 8.53711 94.149 9.0293 93.7623 9.65039C93.3873 10.2715 93.1998 10.9805 93.1998 11.7773C93.1998 12.3164 93.3111 12.8086 93.5338 13.2539C93.7681 13.6875 94.1255 14.0918 94.606 14.4668C95.0982 14.8418 95.7193 15.1875 96.4693 15.5039C97.231 15.8203 98.1392 16.125 99.1939 16.418C100.647 16.8281 101.901 17.2852 102.956 17.7891C104.01 18.293 104.878 18.8613 105.557 19.4941C106.249 20.1152 106.758 20.8242 107.086 21.6211C107.426 22.4062 107.596 23.2969 107.596 24.293C107.596 25.3359 107.385 26.2793 106.963 27.123C106.542 27.9668 105.938 28.6875 105.153 29.2852C104.368 29.8828 103.424 30.3457 102.323 30.6738C101.233 30.9902 100.014 31.1484 98.6666 31.1484C97.483 31.1484 96.317 30.9844 95.1685 30.6562C94.0318 30.3281 92.9947 29.8359 92.0572 29.1797C91.1314 28.5234 90.3873 27.7148 89.8248 26.7539C89.274 25.7812 88.9986 24.6562 88.9986 23.3789H92.3736C92.3736 24.2578 92.5435 25.0137 92.8834 25.6465C93.2232 26.2676 93.6861 26.7832 94.272 27.1934C94.8697 27.6035 95.5435 27.9082 96.2935 28.1074C97.0552 28.2949 97.8463 28.3887 98.6666 28.3887C99.8502 28.3887 100.852 28.2246 101.672 27.8965C102.493 27.5684 103.114 27.0996 103.536 26.4902C103.969 25.8809 104.186 25.1602 104.186 24.3281Z" fill="#111D2B"/>
<path d="M86.8716 18.5801V21.252H78.2935V18.5801H86.8716Z" fill="#111D2B"/>
<path d="M72.5982 22.6582H75.9732C75.7974 24.2754 75.3345 25.7227 74.5845 27C73.8345 28.2773 72.774 29.291 71.4029 30.041C70.0318 30.7793 68.3209 31.1484 66.2701 31.1484C64.7701 31.1484 63.4048 30.8672 62.1744 30.3047C60.9556 29.7422 59.9068 28.9453 59.0279 27.9141C58.149 26.8711 57.4693 25.623 56.9888 24.1699C56.5201 22.7051 56.2857 21.0762 56.2857 19.2832V16.7344C56.2857 14.9414 56.5201 13.3184 56.9888 11.8652C57.4693 10.4004 58.1548 9.14648 59.0455 8.10352C59.9478 7.06055 61.0318 6.25781 62.2974 5.69531C63.563 5.13281 64.9869 4.85156 66.5689 4.85156C68.5025 4.85156 70.1373 5.21484 71.4732 5.94141C72.8091 6.66797 73.8463 7.67578 74.5845 8.96484C75.3345 10.2422 75.7974 11.7246 75.9732 13.4121H72.5982C72.4341 12.2168 72.1295 11.1914 71.6841 10.3359C71.2388 9.46875 70.606 8.80078 69.7857 8.33203C68.9654 7.86328 67.8931 7.62891 66.5689 7.62891C65.4322 7.62891 64.4302 7.8457 63.563 8.2793C62.7076 8.71289 61.9869 9.32812 61.4009 10.125C60.8267 10.9219 60.3931 11.877 60.1002 12.9902C59.8072 14.1035 59.6607 15.3398 59.6607 16.6992V19.2832C59.6607 20.5371 59.7896 21.7148 60.0474 22.8164C60.317 23.918 60.7213 24.8848 61.2603 25.7168C61.7994 26.5488 62.4849 27.2051 63.317 27.6855C64.149 28.1543 65.1334 28.3887 66.2701 28.3887C67.7115 28.3887 68.8599 28.1602 69.7154 27.7031C70.5709 27.2461 71.2154 26.5898 71.649 25.7344C72.0943 24.8789 72.4107 23.8535 72.5982 22.6582Z" fill="#111D2B"/>
</svg>
