<svg width="223" height="36" viewBox="0 0 223 36" fill="none" xmlns="http://www.w3.org/2000/svg">
<path fill-rule="evenodd" clip-rule="evenodd" d="M0 9.78261C0 4.37982 4.44277 0 9.9232 0H39.4054C43.2053 0 46.2857 3.03678 46.2857 6.78283V13.749H42.5328V6.78283C42.5328 5.08008 41.1326 3.69973 39.4054 3.69973H9.9232C6.51544 3.69973 3.7529 6.42313 3.7529 9.78261V12.0491C3.7529 14.1568 5.48611 15.8655 7.62413 15.8655V19.5652C3.41344 19.5652 0 16.2001 0 12.0491V9.78261Z" fill="#0066FF"/>
<path fill-rule="evenodd" clip-rule="evenodd" d="M46.2857 26.2174C46.2857 31.6202 41.8429 36 36.3625 36H6.88029C3.0804 36 -2.28882e-05 32.9632 -2.28882e-05 29.2172V22.251H3.75288V29.2172C3.75288 30.9199 5.15307 32.3003 6.88029 32.3003H36.3625C39.7703 32.3003 42.5328 29.5769 42.5328 26.2174C42.5328 22.8579 39.7703 20.1345 36.3625 20.1345H14.5213V16.4348H36.3625C41.8429 16.4348 46.2857 20.8146 46.2857 26.2174Z" fill="#0066FF"/>
<path fill-rule="evenodd" clip-rule="evenodd" d="M9.41406 11.0325C9.41406 9.26165 10.7924 7.82609 12.4926 7.82609H31.064C34.2715 7.82609 36.8717 10.5343 36.8717 13.875H33.1774C33.1774 12.6593 32.2312 11.6738 31.064 11.6738H13.1084V24.3262H31.064C32.2312 24.3262 33.1774 23.3407 33.1774 22.125H36.8717C36.8717 25.4657 34.2715 28.1739 31.064 28.1739H12.4926C10.7924 28.1739 9.41406 26.7383 9.41406 24.9675V11.0325Z" fill="#00D1FF"/>
<path d="M222.317 27.0498V30.2695H206.505V27.0498H222.317ZM207.305 0.410156V30.2695H203.347V0.410156H207.305ZM220.225 13.248V16.4678H206.505V13.248H220.225ZM222.112 0.410156V3.65039H206.505V0.410156H222.112Z" fill="white"/>
<path d="M177.466 0.410156H187.351C189.593 0.410156 191.487 0.751953 193.032 1.43555C194.59 2.11914 195.773 3.13086 196.58 4.4707C197.4 5.79688 197.81 7.43066 197.81 9.37207C197.81 10.7393 197.53 11.9902 196.969 13.125C196.422 14.2461 195.629 15.2031 194.59 15.9961C193.565 16.7754 192.335 17.3564 190.899 17.7393L189.792 18.1699H180.502L180.461 14.9502H187.474C188.896 14.9502 190.079 14.7041 191.022 14.2119C191.965 13.7061 192.676 13.0293 193.155 12.1816C193.633 11.334 193.873 10.3975 193.873 9.37207C193.873 8.22363 193.647 7.21875 193.196 6.35742C192.745 5.49609 192.034 4.83301 191.063 4.36816C190.106 3.88965 188.869 3.65039 187.351 3.65039H181.424V30.2695H177.466V0.410156ZM194.919 30.2695L187.659 16.7344L191.781 16.7139L199.143 30.0234V30.2695H194.919Z" fill="white"/>
<path d="M171.54 14.3965V16.2832C171.54 18.5254 171.259 20.5352 170.699 22.3125C170.138 24.0898 169.332 25.6006 168.279 26.8447C167.226 28.0889 165.961 29.0391 164.485 29.6953C163.022 30.3516 161.381 30.6797 159.563 30.6797C157.799 30.6797 156.179 30.3516 154.703 29.6953C153.24 29.0391 151.968 28.0889 150.888 26.8447C149.822 25.6006 148.995 24.0898 148.407 22.3125C147.819 20.5352 147.525 18.5254 147.525 16.2832V14.3965C147.525 12.1543 147.812 10.1514 148.386 8.3877C148.974 6.61035 149.801 5.09961 150.868 3.85547C151.934 2.59766 153.199 1.64062 154.662 0.984375C156.138 0.328125 157.758 0 159.522 0C161.34 0 162.981 0.328125 164.444 0.984375C165.92 1.64062 167.185 2.59766 168.238 3.85547C169.304 5.09961 170.118 6.61035 170.678 8.3877C171.253 10.1514 171.54 12.1543 171.54 14.3965ZM167.623 16.2832V14.3555C167.623 12.5781 167.438 11.0059 167.069 9.63867C166.713 8.27148 166.187 7.12305 165.49 6.19336C164.793 5.26367 163.938 4.55957 162.926 4.08105C161.928 3.60254 160.794 3.36328 159.522 3.36328C158.292 3.36328 157.177 3.60254 156.179 4.08105C155.195 4.55957 154.347 5.26367 153.636 6.19336C152.939 7.12305 152.399 8.27148 152.016 9.63867C151.633 11.0059 151.442 12.5781 151.442 14.3555V16.2832C151.442 18.0742 151.633 19.6602 152.016 21.041C152.399 22.4082 152.946 23.5635 153.657 24.5068C154.381 25.4365 155.236 26.1406 156.22 26.6191C157.218 27.0977 158.333 27.3369 159.563 27.3369C160.848 27.3369 161.99 27.0977 162.988 26.6191C163.986 26.1406 164.827 25.4365 165.51 24.5068C166.208 23.5635 166.734 22.4082 167.089 21.041C167.445 19.6602 167.623 18.0742 167.623 16.2832Z" fill="white"/>
<path d="M139.219 20.7744H143.157C142.952 22.6611 142.412 24.3496 141.537 25.8398C140.662 27.3301 139.424 28.5127 137.825 29.3877C136.225 30.249 134.229 30.6797 131.836 30.6797C130.086 30.6797 128.494 30.3516 127.058 29.6953C125.636 29.0391 124.413 28.1094 123.387 26.9062C122.362 25.6895 121.569 24.2334 121.008 22.5381C120.461 20.8291 120.188 18.9287 120.188 16.8369V13.8633C120.188 11.7715 120.461 9.87793 121.008 8.18262C121.569 6.47363 122.369 5.01074 123.408 3.79395C124.461 2.57715 125.725 1.64062 127.202 0.984375C128.678 0.328125 130.339 0 132.185 0C134.441 0 136.348 0.423828 137.907 1.27148C139.465 2.11914 140.675 3.29492 141.537 4.79883C142.412 6.28906 142.952 8.01855 143.157 9.9873H139.219C139.028 8.59277 138.672 7.39648 138.153 6.39844C137.633 5.38672 136.895 4.60742 135.938 4.06055C134.981 3.51367 133.73 3.24023 132.185 3.24023C130.859 3.24023 129.69 3.49316 128.678 3.99902C127.68 4.50488 126.839 5.22266 126.156 6.15234C125.486 7.08203 124.98 8.19629 124.638 9.49512C124.296 10.7939 124.126 12.2363 124.126 13.8223V16.8369C124.126 18.2998 124.276 19.6738 124.577 20.959C124.891 22.2441 125.363 23.3721 125.992 24.3428C126.621 25.3135 127.42 26.0791 128.391 26.6396C129.362 27.1865 130.51 27.46 131.836 27.46C133.518 27.46 134.858 27.1934 135.856 26.6602C136.854 26.127 137.606 25.3613 138.112 24.3633C138.631 23.3652 139.001 22.1689 139.219 20.7744Z" fill="white"/>
<path d="M112.169 22.7227C112.169 22.0254 112.06 21.4102 111.841 20.877C111.636 20.3301 111.267 19.8379 110.734 19.4004C110.214 18.9629 109.49 18.5459 108.56 18.1494C107.644 17.7529 106.482 17.3496 105.074 16.9395C103.597 16.502 102.264 16.0166 101.075 15.4834C99.8853 14.9365 98.8668 14.3145 98.0191 13.6172C97.1714 12.9199 96.522 12.1201 96.0709 11.2178C95.6197 10.3154 95.3941 9.2832 95.3941 8.12109C95.3941 6.95898 95.6334 5.88574 96.1119 4.90137C96.5904 3.91699 97.274 3.0625 98.1627 2.33789C99.065 1.59961 100.138 1.02539 101.382 0.615234C102.627 0.205078 104.014 0 105.545 0C107.788 0 109.688 0.430664 111.247 1.29199C112.819 2.13965 114.015 3.25391 114.836 4.63477C115.656 6.00195 116.066 7.46484 116.066 9.02344H112.128C112.128 7.90234 111.889 6.91113 111.411 6.0498C110.932 5.1748 110.208 4.49121 109.237 3.99902C108.266 3.49316 107.036 3.24023 105.545 3.24023C104.137 3.24023 102.975 3.45215 102.059 3.87598C101.143 4.2998 100.46 4.87402 100.008 5.59863C99.5709 6.32324 99.3521 7.15039 99.3521 8.08008C99.3521 8.70898 99.482 9.2832 99.7418 9.80273C100.015 10.3086 100.432 10.7803 100.993 11.2178C101.567 11.6553 102.292 12.0586 103.167 12.4277C104.055 12.7969 105.115 13.1523 106.345 13.4941C108.041 13.9727 109.503 14.5059 110.734 15.0938C111.964 15.6816 112.976 16.3447 113.769 17.083C114.576 17.8076 115.17 18.6348 115.553 19.5645C115.95 20.4805 116.148 21.5195 116.148 22.6816C116.148 23.8984 115.902 24.999 115.41 25.9834C114.918 26.9678 114.213 27.8086 113.297 28.5059C112.381 29.2031 111.281 29.7432 109.996 30.126C108.724 30.4951 107.302 30.6797 105.73 30.6797C104.349 30.6797 102.989 30.4883 101.649 30.1055C100.323 29.7227 99.1129 29.1484 98.0191 28.3828C96.939 27.6172 96.0709 26.6738 95.4146 25.5527C94.772 24.418 94.4507 23.1055 94.4507 21.6152H98.3882C98.3882 22.6406 98.5865 23.5225 98.983 24.2607C99.3795 24.9854 99.9195 25.5869 100.603 26.0654C101.3 26.5439 102.086 26.8994 102.961 27.1318C103.85 27.3506 104.773 27.46 105.73 27.46C107.111 27.46 108.28 27.2686 109.237 26.8857C110.194 26.5029 110.919 25.9561 111.411 25.2451C111.917 24.5342 112.169 23.6934 112.169 22.7227Z" fill="white"/>
<path d="M91.9693 16.0166V19.1338H81.9615V16.0166H91.9693Z" fill="white"/>
<path d="M75.317 20.7744H79.2545C79.0494 22.6611 78.5093 24.3496 77.6343 25.8398C76.7593 27.3301 75.522 28.5127 73.9224 29.3877C72.3228 30.249 70.3267 30.6797 67.9341 30.6797C66.1841 30.6797 64.5914 30.3516 63.1558 29.6953C61.7339 29.0391 60.5103 28.1094 59.4849 26.9062C58.4595 25.6895 57.6666 24.2334 57.106 22.5381C56.5591 20.8291 56.2857 18.9287 56.2857 16.8369V13.8633C56.2857 11.7715 56.5591 9.87793 57.106 8.18262C57.6666 6.47363 58.4664 5.01074 59.5054 3.79395C60.5582 2.57715 61.8228 1.64062 63.2994 0.984375C64.7759 0.328125 66.4371 0 68.2828 0C70.5386 0 72.4459 0.423828 74.0045 1.27148C75.563 2.11914 76.773 3.29492 77.6343 4.79883C78.5093 6.28906 79.0494 8.01855 79.2545 9.9873H75.317C75.1255 8.59277 74.7701 7.39648 74.2505 6.39844C73.731 5.38672 72.9927 4.60742 72.0357 4.06055C71.0787 3.51367 69.8277 3.24023 68.2828 3.24023C66.9566 3.24023 65.7877 3.49316 64.7759 3.99902C63.7779 4.50488 62.9371 5.22266 62.2535 6.15234C61.5836 7.08203 61.0777 8.19629 60.7359 9.49512C60.3941 10.7939 60.2232 12.2363 60.2232 13.8223V16.8369C60.2232 18.2998 60.3736 19.6738 60.6744 20.959C60.9888 22.2441 61.4605 23.3721 62.0894 24.3428C62.7183 25.3135 63.5181 26.0791 64.4888 26.6396C65.4595 27.1865 66.608 27.46 67.9341 27.46C69.6158 27.46 70.9556 27.1934 71.9537 26.6602C72.9517 26.127 73.7037 25.3613 74.2095 24.3633C74.7291 23.3652 75.0982 22.1689 75.317 20.7744Z" fill="white"/>
</svg>
