<svg width="169" height="39" viewBox="0 0 169 39" fill="none" xmlns="http://www.w3.org/2000/svg">
<path d="M60.953 11.177V11.177C59.856 7.63279 56.5734 5.20004 52.8634 5.20004H51.5023C47.58 5.20004 44.4004 8.37967 44.4004 12.3019V12.3019C44.4004 15.1544 46.107 17.7301 48.7339 18.8421L57.7015 22.6379C60.7556 23.9307 62.5355 27.1387 62.0158 30.4142V30.4142C61.4598 33.9195 58.4375 36.5 54.8885 36.5H52.9573C48.6893 36.5 44.9477 33.6474 43.8176 29.5317L43.7837 29.4084" stroke="black" stroke-width="4" stroke-linecap="round"/>
<path d="M85.9843 32.8345C84.7116 34.1072 83.0901 34.9739 81.3249 35.325C79.5597 35.6761 77.73 35.4959 76.0672 34.8071C74.4044 34.1184 72.9831 32.952 71.9832 31.4555C70.9833 29.959 70.4496 28.1996 70.4496 26.3998C70.4496 24.6 70.9833 22.8406 71.9832 21.3441C72.9831 19.8477 74.4044 18.6813 76.0672 17.9925C77.73 17.3038 79.5597 17.1236 81.3249 17.4747C83.0901 17.8258 84.7116 18.6925 85.9843 19.9652" stroke="black" stroke-width="4" stroke-linecap="round"/>
<path d="M114.4 26.3998C114.4 27.5949 114.164 28.7782 113.707 29.8823C113.25 30.9863 112.579 31.9895 111.734 32.8345C110.889 33.6795 109.886 34.3498 108.782 34.8071C107.678 35.2645 106.495 35.4998 105.3 35.4998C104.105 35.4998 102.921 35.2645 101.817 34.8071C100.713 34.3498 99.7099 33.6795 98.8649 32.8345C98.0199 31.9895 97.3496 30.9863 96.8923 29.8823C96.435 28.7782 96.1996 27.5949 96.1996 26.3998C96.1996 25.2048 96.435 24.0215 96.8923 22.9174C97.3496 21.8134 98.0199 20.8102 98.8649 19.9652C99.7099 19.1202 100.713 18.4498 101.817 17.9925C102.921 17.5352 104.105 17.2998 105.3 17.2998C106.495 17.2998 107.678 17.5352 108.782 17.9925C109.886 18.4499 110.889 19.1202 111.734 19.9652C112.579 20.8102 113.25 21.8134 113.707 22.9174C114.164 24.0215 114.4 25.2048 114.4 26.3998L114.4 26.3998Z" stroke="black" stroke-width="4" stroke-linecap="round"/>
<path d="M127.725 35.4999V26.5058C127.725 22.1352 130.865 18.3964 135.169 17.6412L138.825 16.9999" stroke="black" stroke-width="4" stroke-linecap="round"/>
<path d="M164.301 32.4178C162.933 33.9694 161.077 35.0087 159.04 35.3643C157.002 35.72 154.904 35.3708 153.091 34.3742C151.278 33.3777 149.859 31.7933 149.068 29.8823C148.276 27.9712 148.159 25.8474 148.736 23.861C149.313 21.8746 150.55 20.1441 152.242 18.9547C153.935 17.7653 155.982 17.1879 158.046 17.3178C160.111 17.4477 162.069 18.277 163.599 19.6692C165.129 21.0613 166.139 22.9332 166.463 24.9763" stroke="black" stroke-width="4" stroke-linecap="round"/>
<path d="M148.85 25.4001H166.2" stroke="black" stroke-width="4" stroke-linecap="round"/>
<path d="M31.6428 28.9758C29.5896 31.6808 26.7517 33.6864 23.5166 34.7189C20.2814 35.7513 16.8064 35.7604 13.5658 34.7449C10.3253 33.7294 7.477 31.7387 5.40967 29.0445C3.34235 26.3503 2.15668 23.0839 2.01447 19.6909C1.87227 16.2979 2.78044 12.9437 4.61507 10.086C6.4497 7.22824 9.12142 5.0062 12.2656 3.72307C15.4098 2.43995 18.8734 2.15823 22.1836 2.91638C25.4939 3.67453 28.4896 5.4356 30.7619 7.95928" stroke="#00CD8F" stroke-width="4" stroke-linecap="round"/>
<ellipse cx="18.4996" cy="19" rx="5.55" ry="5.55" fill="#00CD8F"/>
<ellipse cx="3.5" cy="3.5" rx="3.5" ry="3.5" transform="matrix(1 0 0 -1 118 18)" fill="#00CD8F"/>
</svg>
