<svg width="375" height="335" viewBox="0 0 375 335" fill="none" xmlns="http://www.w3.org/2000/svg">
<g opacity="0.1">
<path d="M219.044 171.443C214.116 177.935 207.305 182.748 199.54 185.227C191.775 187.705 183.435 187.726 175.658 185.289C167.88 182.852 161.044 178.074 156.082 171.608C151.121 165.141 148.275 157.302 147.934 149.158C147.592 141.015 149.772 132.965 154.175 126.106C158.579 119.247 164.991 113.914 172.537 110.834C180.083 107.755 188.396 107.079 196.341 108.898C204.286 110.718 211.476 114.945 216.929 121.002" stroke="white" stroke-linecap="round"/>
<path d="M239.762 187.169C231.598 197.926 220.313 205.901 207.448 210.007C194.584 214.112 180.765 214.149 167.879 210.11C154.993 206.072 143.667 198.156 135.446 187.442C127.225 176.729 122.51 163.74 121.945 150.248C121.379 136.755 124.991 123.417 132.286 112.053C139.582 100.69 150.206 91.8535 162.709 86.7511C175.212 81.6487 188.985 80.5285 202.148 83.5433C215.311 86.558 227.224 93.561 236.26 103.597" stroke="white" stroke-linecap="round"/>
<path d="M258.755 201.585C247.623 216.251 232.238 227.124 214.698 232.722C197.158 238.32 178.318 238.369 160.749 232.863C143.18 227.357 127.738 216.565 116.529 201.958C105.321 187.351 98.8929 169.641 98.1219 151.246C97.3509 132.851 102.275 114.665 112.221 99.1719C122.168 83.6784 136.653 71.6313 153.7 64.6747C170.746 57.7181 189.524 56.1907 207.471 60.3011C225.418 64.4115 241.66 73.9594 253.979 87.6418" stroke="white" stroke-linecap="round"/>
<path d="M277.747 216.001C263.648 234.576 244.162 248.347 221.947 255.437C199.732 262.527 175.87 262.589 153.618 255.616C131.366 248.643 111.808 234.973 97.6124 216.473C83.4167 197.973 75.2751 175.543 74.2986 152.245C73.3221 128.946 79.5583 105.914 92.1561 86.2904C104.754 66.6673 123.1 51.4092 144.69 42.5983C166.281 33.7874 190.064 31.853 212.794 37.059C235.525 42.2649 256.095 54.3577 271.699 71.6871" stroke="white" stroke-linecap="round"/>
<path d="M298.466 231.728C281.131 254.567 257.171 271.5 229.856 280.217C202.54 288.935 173.201 289.012 145.84 280.437C118.48 271.863 94.4311 255.055 76.9764 232.308C59.5216 209.56 49.5109 181.981 48.3102 153.334C47.1095 124.686 54.7774 96.3662 70.2675 72.238C85.7575 48.1097 108.315 29.3487 134.862 18.515C161.409 7.68133 190.653 5.30279 218.602 11.7039C246.55 18.1051 271.844 32.9741 291.029 54.282" stroke="white" stroke-linecap="round"/>
<path d="M317.459 246.144C297.156 272.891 269.095 292.723 237.105 302.932C205.114 313.142 170.753 313.232 138.71 303.19C106.666 293.148 78.5016 273.464 58.0594 246.823C37.6172 220.182 25.8931 187.883 24.4869 154.332C23.0807 120.782 32.061 87.6144 50.2022 59.3565C68.3435 31.0986 94.7621 9.12649 125.853 -3.5614C156.944 -16.2493 191.192 -19.0349 223.924 -11.5382C256.657 -4.04146 286.279 13.3725 308.748 38.3273" stroke="white" stroke-linecap="round"/>
<path d="M336.451 260.56C313.182 291.216 281.02 313.946 244.354 325.648C207.689 337.349 168.306 337.452 131.579 325.943C94.8531 314.434 62.5726 291.873 39.1429 261.338C15.7133 230.804 2.27572 193.784 0.664031 155.331C-0.947657 116.877 9.34501 78.8627 30.1375 46.4751C50.93 14.0875 81.2094 -11.0957 116.844 -25.6378C152.478 -40.1799 191.732 -43.3727 229.248 -34.7803C266.764 -26.188 300.715 -6.22917 326.468 22.3726" stroke="white" stroke-linecap="round"/>
</g>
</svg>
