<svg width="36" height="36" viewBox="0 0 36 36" fill="none" xmlns="http://www.w3.org/2000/svg">
<path d="M13.9993 23.9715V11.9922C13.9936 11.5995 14.0654 11.2096 14.2107 10.8454C14.3559 10.4811 14.5716 10.1499 14.8452 9.8712C15.1187 9.59248 15.4446 9.37184 15.8036 9.22224C16.1626 9.07265 16.5475 8.99712 16.9358 9.00008C17.6545 9.03393 18.3326 9.34672 18.8291 9.8734C19.3255 10.4001 19.6022 11.1001 19.6014 11.8278V16.4639C19.8359 16.4496 20.0711 16.4496 20.3057 16.4639H21.7035C23.3658 16.4696 23.21 18.1079 25.6045 17.5599C27.999 17.0119 27.9848 18.9254 27.999 20.6068V24.8012C27.999 26.8063 27.3295 28.754 26.0965 30.3352L24.5209 32.356V34M13.999 24.4881L12.3402 22.7744C11.8739 22.2949 11.2476 22.018 10.5898 22.0009C9.93207 21.9837 9.29295 22.2275 8.80387 22.6821C8.54915 22.9383 8.3467 23.2447 8.20847 23.583C8.07024 23.9214 7.99902 24.285 7.99902 24.6522C7.99902 25.0195 8.07024 25.3831 8.20847 25.7214C8.3467 26.0598 8.54915 26.3661 8.80387 26.6224L13.999 31.989V34M23.999 11C23.9976 10.2075 23.8263 9.42299 23.4949 8.69176C23.1634 7.96054 22.6784 7.297 22.0678 6.73935C21.4572 6.18169 20.733 5.74094 19.9369 5.44247C19.1409 5.14399 18.2887 4.99368 17.4294 5.0002C15.7179 5.02097 14.0841 5.66194 12.8809 6.78459C11.6777 7.90725 11.0017 9.42145 10.999 11M26.999 12C26.997 10.547 26.7466 9.10881 26.2622 7.76823C25.7777 6.42766 25.0689 5.21117 24.1765 4.1888C23.284 3.16644 22.2256 2.35839 21.0621 1.81119C19.8987 1.26398 18.6531 0.988422 17.3972 1.00037C14.8959 1.03845 12.508 2.21355 10.7494 4.27175C8.99089 6.32996 8.00292 9.106 7.99902 12" stroke="#0066FF" stroke-width="1.5" stroke-linecap="round" stroke-linejoin="round"/>
</svg>
