<svg width="26" height="26" viewBox="0 0 26 26" fill="none" xmlns="http://www.w3.org/2000/svg">
<g clip-path="url(#clip0_317_481)">
<path d="M0.75 13C0.75 10.5772 1.46845 8.20877 2.8145 6.19426C4.16055 4.17976 6.07373 2.60965 8.31213 1.68248C10.5505 0.755302 13.0136 0.512711 15.3899 0.985381C17.7661 1.45805 19.9489 2.62475 21.6621 4.33794C23.3753 6.05114 24.542 8.23388 25.0146 10.6101C25.4873 12.9864 25.2447 15.4495 24.3175 17.6879C23.3903 19.9263 21.8202 21.8395 19.8057 23.1855C17.7912 24.5316 15.4228 25.25 13 25.25" stroke="#0066FF" stroke-width="1.5" stroke-linecap="round"/>
<path d="M13 7V12.5L17 16.5M0.5 16.5H6M0.5 21H8.5M0.5 25H10.5" stroke="#0066FF" stroke-width="1.5" stroke-linecap="round"/>
</g>
<defs>
<clipPath id="clip0_317_481">
<rect width="26" height="26" fill="white"/>
</clipPath>
</defs>
</svg>
