<svg width="30" height="24" viewBox="0 0 30 24" fill="none" xmlns="http://www.w3.org/2000/svg">
<path fill-rule="evenodd" clip-rule="evenodd" d="M25.211 6.88115C23.0232 4.50506 19.7229 2.25 14.9996 2.25C10.2764 2.25 6.9761 4.50506 4.78833 6.88115C2.58454 9.27464 1.58096 11.7234 1.52706 11.8587C1.49102 11.9493 1.49098 12.0508 1.52694 12.1415C1.58195 12.2793 2.58568 14.7267 4.78832 17.1189C6.97609 19.4949 10.2764 21.75 14.9996 21.75C19.7229 21.75 23.0232 19.4949 25.211 17.1189C27.4171 14.7228 28.4205 12.2713 28.4724 12.1409C28.5083 12.0504 28.5083 11.9496 28.4724 11.8591C28.4205 11.7287 27.4171 9.27721 25.211 6.88115ZM29.8661 12.6956C29.694 13.1278 25.5226 23.25 14.9996 23.25C4.47668 23.25 0.305273 13.1278 0.133242 12.6961C-0.0444141 12.2494 -0.0444141 11.7511 0.133242 11.3044C0.305273 10.8722 4.47668 0.75 14.9996 0.75C25.5226 0.75 29.694 10.8722 29.8661 11.3044C30.0437 11.7511 30.0437 12.2489 29.8661 12.6956ZM14.9996 17.25C12.1003 17.25 9.74965 14.8994 9.74965 12C9.74965 9.10064 12.1003 6.75 14.9996 6.75C17.899 6.75 20.2496 9.10063 20.2496 12C20.2496 14.8994 17.899 17.25 14.9996 17.25ZM11.2496 12C11.2496 14.0709 12.9287 15.75 14.9996 15.75C17.0706 15.75 18.7496 14.0709 18.7496 12C18.7496 9.92906 17.0706 8.25 14.9996 8.25C12.9287 8.25 11.2496 9.92906 11.2496 12Z" fill="#0066FF"/>
</svg>
