<svg width="120" height="117" viewBox="0 0 120 117" fill="none" xmlns="http://www.w3.org/2000/svg">
<g clip-path="url(#clip0_317_392)">
<g filter="url(#filter0_d_317_392)">
<rect x="8" y="14" width="92" height="89" rx="20" fill="#0066FF"/>
</g>
<g clip-path="url(#clip1_317_392)">
<path d="M56.5555 48.1667H45.9074C40.9738 48.1667 37.0468 48.1667 35.5141 50.2657C33.9814 52.3648 33.9814 55.7432 33.9814 62.5C33.9814 69.2567 33.9814 72.6353 35.5141 74.7342C37.0468 76.8333 40.9738 76.8333 45.9074 76.8333H56.5555M60.4801 48.1683C64.5542 48.1846 66.7141 48.361 68.1048 50.2657C69.6375 52.3648 69.6375 55.7432 69.6375 62.5C69.6375 69.2567 69.6375 72.6353 68.1048 74.7342C66.7141 76.6389 64.5542 76.8154 60.4801 76.8317" stroke="#0066FF" stroke-width="1.5" stroke-linecap="round"/>
<path d="M43.9505 62.5C43.9505 63.4895 43.1484 64.2917 42.1589 64.2917C41.1694 64.2917 40.3672 63.4895 40.3672 62.5C40.3672 61.5105 41.1694 60.7083 42.1589 60.7083C43.1484 60.7083 43.9505 61.5105 43.9505 62.5Z" fill="#0066FF"/>
<path d="M51.5335 62.5C51.5335 63.4895 50.7314 64.2917 49.7419 64.2917C48.7524 64.2917 47.9502 63.4895 47.9502 62.5C47.9502 61.5105 48.7524 60.7083 49.7419 60.7083C50.7314 60.7083 51.5335 61.5105 51.5335 62.5Z" fill="#0066FF"/>
<path d="M59.1175 62.5C59.1175 63.4895 58.3153 64.2917 57.3258 64.2917C56.3363 64.2917 55.5342 63.4895 55.5342 62.5C55.5342 61.5105 56.3363 60.7083 57.3258 60.7083C58.3153 60.7083 59.1175 61.5105 59.1175 62.5Z" fill="#0066FF"/>
<path d="M66.7005 62.5C66.7005 63.4895 65.8984 64.2917 64.9089 64.2917C63.9193 64.2917 63.1172 63.4895 63.1172 62.5C63.1172 61.5105 63.9193 60.7083 64.9089 60.7083C65.8984 60.7083 66.7005 61.5105 66.7005 62.5Z" fill="#0066FF"/>
<path d="M60.4805 44.5833V80.4167" stroke="#0066FF" stroke-width="1.5" stroke-linecap="round"/>
</g>
<path d="M55.7445 32.2094L55.7472 32.2121C55.743 32.2078 55.7415 32.2066 55.7415 32.2066L55.7445 32.2094ZM55.7445 32.2094L55.7762 32.2377C55.8202 32.2766 55.9075 32.3511 56.0427 32.4563C56.313 32.6666 56.7767 33.0006 57.4737 33.4188C58.8672 34.2549 61.1993 35.4312 64.7905 36.6283C68.4645 37.853 70.8627 38.448 72.3027 38.7361C73.0217 38.8799 73.4968 38.9461 73.7683 38.9762C73.9038 38.9913 73.9875 38.9973 74.0247 38.9994L74.0415 39.0004C75.4033 39.0226 76.5 40.1332 76.5 41.5V59C76.5 67.616 70.7958 74.5008 65.6463 79.0065C63.019 81.3053 60.4037 83.102 58.45 84.323C57.4705 84.9352 56.6508 85.4067 56.0703 85.7282C55.5758 86.002 55.1043 86.1845 54.5933 86.3375C54.2063 86.4535 53.7928 86.4575 53.4055 86.3422C52.894 86.1902 52.4237 86.0017 51.9297 85.7282C51.3492 85.4067 50.5295 84.9352 49.55 84.323C47.5964 83.102 44.9809 81.3053 42.3537 79.0065C37.2044 74.5008 31.5 67.616 31.5 59V41.5C31.5 40.1332 32.5969 39.0226 33.9584 39.0004L33.9753 38.9994C34.0125 38.9973 34.0962 38.9913 34.2317 38.9762C34.5031 38.9461 34.9782 38.8799 35.6972 38.7361C37.1374 38.448 39.5355 37.853 43.2094 36.6283C46.8009 35.4312 49.1328 34.2549 50.5263 33.4188C51.2233 33.0006 51.687 32.6666 51.9573 32.4563C52.0925 32.3511 52.1798 32.2766 52.224 32.2377L52.2555 32.2094C53.2258 31.2635 54.7742 31.2635 55.7445 32.2094ZM42.5 57L50.5 66.5L67.5 50" stroke="white" stroke-width="4" stroke-linecap="round"/>
</g>
<defs>
<filter id="filter0_d_317_392" x="-6" y="4" width="120" height="117" filterUnits="userSpaceOnUse" color-interpolation-filters="sRGB">
<feFlood flood-opacity="0" result="BackgroundImageFix"/>
<feColorMatrix in="SourceAlpha" type="matrix" values="0 0 0 0 0 0 0 0 0 0 0 0 0 0 0 0 0 0 127 0" result="hardAlpha"/>
<feOffset dy="4"/>
<feGaussianBlur stdDeviation="7"/>
<feComposite in2="hardAlpha" operator="out"/>
<feColorMatrix type="matrix" values="0 0 0 0 0 0 0 0 0 0 0 0 0 0 0 0 0 0 0.13 0"/>
<feBlend mode="normal" in2="BackgroundImageFix" result="effect1_dropShadow_317_392"/>
<feBlend mode="normal" in="SourceGraphic" in2="effect1_dropShadow_317_392" result="shape"/>
</filter>
<clipPath id="clip0_317_392">
<rect width="106" height="102" fill="white" transform="translate(0 10)"/>
</clipPath>
<clipPath id="clip1_317_392">
<rect width="37.9683" height="39" fill="white" transform="translate(32.8252 43)"/>
</clipPath>
</defs>
</svg>
