<svg width="28" height="28" viewBox="0 0 28 28" fill="none" xmlns="http://www.w3.org/2000/svg">
<g clip-path="url(#clip0_334_2)">
<path d="M21.75 14C21.7512 15.8238 21.1088 17.5895 19.9358 18.986C18.7629 20.3826 17.1347 21.3204 15.3381 21.6342C13.5415 21.9481 11.6918 21.6178 10.1149 20.7016C8.5379 19.7854 7.33487 18.3421 6.71771 16.6259L2.28491 20.1721C3.66326 22.7923 5.87978 24.875 8.58055 26.0878C11.2813 27.3007 14.3106 27.5736 17.1846 26.863C20.0587 26.1525 22.6118 24.4994 24.4362 22.1678C26.2607 19.8363 27.2514 16.9606 27.25 14" fill="#00AC47"/>
<path d="M21.7499 14C21.7489 15.233 21.4533 16.4479 20.8877 17.5435C20.3221 18.6392 19.5029 19.5838 18.4983 20.2987L22.8807 23.8046C24.2549 22.5674 25.3539 21.0553 26.1065 19.3663C26.8592 17.6773 27.2487 15.8491 27.2499 14" fill="#4285F4"/>
<path d="M6.25 14C6.25192 13.1042 6.41019 12.2155 6.7177 11.3741L2.2849 7.82791C1.27698 9.72909 0.75 11.8482 0.75 14C0.75 16.1518 1.27698 18.2709 2.2849 20.1721L6.7177 16.6259C6.41019 15.7845 6.25192 14.8959 6.25 14Z" fill="#FFBA00"/>
<path d="M14 6.25001C15.6399 6.25047 17.2368 6.77451 18.558 7.74581L22.618 3.95651C21.1109 2.65707 19.3298 1.71477 17.4075 1.19993C15.4853 0.685095 13.4716 0.611014 11.5168 0.983215C9.56194 1.35542 7.71639 2.16429 6.11785 3.34948C4.51932 4.53466 3.20908 6.06555 2.28491 7.82791L6.71771 11.3741C7.25833 9.87548 8.24733 8.57969 9.55027 7.66289C10.8532 6.7461 12.4069 6.25278 14 6.25001Z" fill="#EA4435"/>
<path d="M27.25 13V14L25 17.5H14.5V12H26.25C26.5152 12 26.7696 12.1054 26.9571 12.2929C27.1446 12.4804 27.25 12.7348 27.25 13Z" fill="#4285F4"/>
</g>
<defs>
<clipPath id="clip0_334_2">
<rect width="28" height="28" fill="white"/>
</clipPath>
</defs>
</svg>
