<svg width="340" height="53" viewBox="0 0 340 53" fill="none" xmlns="http://www.w3.org/2000/svg">
<g clip-path="url(#clip0_35_481)">
<path d="M52.3685 26.9958C52.3685 24.8244 52.1923 23.2399 51.811 21.5967H27.0159V31.3972H41.57C41.2767 33.8328 39.6922 37.5007 36.1709 39.9654L36.1216 40.2935L43.9613 46.3669L44.5045 46.4211C49.4927 41.8142 52.3685 35.0358 52.3685 26.9958Z" fill="#4285F4"/>
<path d="M27.0158 52.8179C34.1462 52.8179 40.1321 50.4703 44.5044 46.4211L36.1709 39.9654C33.9408 41.5206 30.9478 42.6063 27.0158 42.6063C20.0322 42.6063 14.1049 37.9996 11.992 31.6321L11.6823 31.6584L3.53037 37.9672L3.42377 38.2636C7.76653 46.8904 16.6869 52.8179 27.0158 52.8179Z" fill="#34A853"/>
<path d="M11.992 31.632C11.4344 29.9888 11.1118 28.2281 11.1118 26.4089C11.1118 24.5895 11.4345 22.829 11.9626 21.1858L11.9479 20.8358L3.69382 14.4257L3.42376 14.5541C1.6339 18.134 0.606873 22.1542 0.606873 26.4089C0.606873 30.6637 1.6339 34.6836 3.42376 38.2635L11.992 31.632Z" fill="#FBBC05"/>
<path d="M27.0158 10.2114C31.9748 10.2114 35.3199 12.3534 37.2272 14.1435L44.6804 6.86633C40.103 2.61156 34.1462 0 27.0158 0C16.6869 0 7.76653 5.9273 3.42377 14.5542L11.9626 21.1858C14.1049 14.8184 20.0322 10.2114 27.0158 10.2114Z" fill="#EB4335"/>
</g>
<path d="M87.5898 13.5039V19.75C87.3789 20.0625 87.043 20.4141 86.582 20.8047C86.1211 21.1875 85.4844 21.5234 84.6719 21.8125C83.8672 22.0938 82.8281 22.2344 81.5547 22.2344C80.5156 22.2344 79.5586 22.0547 78.6836 21.6953C77.8164 21.3281 77.0625 20.7969 76.4219 20.1016C75.7891 19.3984 75.2969 18.5469 74.9453 17.5469C74.6016 16.5391 74.4297 15.3984 74.4297 14.125V12.8008C74.4297 11.5273 74.5781 10.3906 74.875 9.39062C75.1797 8.39062 75.625 7.54297 76.2109 6.84766C76.7969 6.14453 77.5156 5.61328 78.3672 5.25391C79.2188 4.88672 80.1953 4.70312 81.2969 4.70312C82.6016 4.70312 83.6914 4.92969 84.5664 5.38281C85.4492 5.82812 86.1367 6.44531 86.6289 7.23438C87.1289 8.02344 87.4492 8.92188 87.5898 9.92969H85.3281C85.2266 9.3125 85.0234 8.75 84.7188 8.24219C84.4219 7.73438 83.9961 7.32812 83.4414 7.02344C82.8867 6.71094 82.1719 6.55469 81.2969 6.55469C80.5078 6.55469 79.8242 6.69922 79.2461 6.98828C78.668 7.27734 78.1914 7.69141 77.8164 8.23047C77.4414 8.76953 77.1602 9.42188 76.9727 10.1875C76.793 10.9531 76.7031 11.8164 76.7031 12.7773V14.125C76.7031 15.1094 76.8164 15.9883 77.043 16.7617C77.2773 17.5352 77.6094 18.1953 78.0391 18.7422C78.4688 19.2812 78.9805 19.6914 79.5742 19.9727C80.1758 20.2539 80.8398 20.3945 81.5664 20.3945C82.3711 20.3945 83.0234 20.3281 83.5234 20.1953C84.0234 20.0547 84.4141 19.8906 84.6953 19.7031C84.9766 19.5078 85.1914 19.3242 85.3398 19.1523V15.332H81.3906V13.5039H87.5898ZM90.4375 15.8008V15.5312C90.4375 14.6172 90.5703 13.7695 90.8359 12.9883C91.1016 12.1992 91.4844 11.5156 91.9844 10.9375C92.4844 10.3516 93.0898 9.89844 93.8008 9.57812C94.5117 9.25 95.3086 9.08594 96.1914 9.08594C97.082 9.08594 97.8828 9.25 98.5938 9.57812C99.3125 9.89844 99.9219 10.3516 100.422 10.9375C100.93 11.5156 101.316 12.1992 101.582 12.9883C101.848 13.7695 101.98 14.6172 101.98 15.5312V15.8008C101.98 16.7148 101.848 17.5625 101.582 18.3438C101.316 19.125 100.93 19.8086 100.422 20.3945C99.9219 20.9727 99.3164 21.4258 98.6055 21.7539C97.9023 22.0742 97.1055 22.2344 96.2148 22.2344C95.3242 22.2344 94.5234 22.0742 93.8125 21.7539C93.1016 21.4258 92.4922 20.9727 91.9844 20.3945C91.4844 19.8086 91.1016 19.125 90.8359 18.3438C90.5703 17.5625 90.4375 16.7148 90.4375 15.8008ZM92.6055 15.5312V15.8008C92.6055 16.4336 92.6797 17.0312 92.8281 17.5938C92.9766 18.1484 93.1992 18.6406 93.4961 19.0703C93.8008 19.5 94.1797 19.8398 94.6328 20.0898C95.0859 20.332 95.6133 20.4531 96.2148 20.4531C96.8086 20.4531 97.3281 20.332 97.7734 20.0898C98.2266 19.8398 98.6016 19.5 98.8984 19.0703C99.1953 18.6406 99.418 18.1484 99.5664 17.5938C99.7227 17.0312 99.8008 16.4336 99.8008 15.8008V15.5312C99.8008 14.9062 99.7227 14.3164 99.5664 13.7617C99.418 13.1992 99.1914 12.7031 98.8867 12.2734C98.5898 11.8359 98.2148 11.4922 97.7617 11.2422C97.3164 10.9922 96.793 10.8672 96.1914 10.8672C95.5977 10.8672 95.0742 10.9922 94.6211 11.2422C94.1758 11.4922 93.8008 11.8359 93.4961 12.2734C93.1992 12.7031 92.9766 13.1992 92.8281 13.7617C92.6797 14.3164 92.6055 14.9062 92.6055 15.5312ZM104.125 15.8008V15.5312C104.125 14.6172 104.258 13.7695 104.523 12.9883C104.789 12.1992 105.172 11.5156 105.672 10.9375C106.172 10.3516 106.777 9.89844 107.488 9.57812C108.199 9.25 108.996 9.08594 109.879 9.08594C110.77 9.08594 111.57 9.25 112.281 9.57812C113 9.89844 113.609 10.3516 114.109 10.9375C114.617 11.5156 115.004 12.1992 115.27 12.9883C115.535 13.7695 115.668 14.6172 115.668 15.5312V15.8008C115.668 16.7148 115.535 17.5625 115.27 18.3438C115.004 19.125 114.617 19.8086 114.109 20.3945C113.609 20.9727 113.004 21.4258 112.293 21.7539C111.59 22.0742 110.793 22.2344 109.902 22.2344C109.012 22.2344 108.211 22.0742 107.5 21.7539C106.789 21.4258 106.18 20.9727 105.672 20.3945C105.172 19.8086 104.789 19.125 104.523 18.3438C104.258 17.5625 104.125 16.7148 104.125 15.8008ZM106.293 15.5312V15.8008C106.293 16.4336 106.367 17.0312 106.516 17.5938C106.664 18.1484 106.887 18.6406 107.184 19.0703C107.488 19.5 107.867 19.8398 108.32 20.0898C108.773 20.332 109.301 20.4531 109.902 20.4531C110.496 20.4531 111.016 20.332 111.461 20.0898C111.914 19.8398 112.289 19.5 112.586 19.0703C112.883 18.6406 113.105 18.1484 113.254 17.5938C113.41 17.0312 113.488 16.4336 113.488 15.8008V15.5312C113.488 14.9062 113.41 14.3164 113.254 13.7617C113.105 13.1992 112.879 12.7031 112.574 12.2734C112.277 11.8359 111.902 11.4922 111.449 11.2422C111.004 10.9922 110.48 10.8672 109.879 10.8672C109.285 10.8672 108.762 10.9922 108.309 11.2422C107.863 11.4922 107.488 11.8359 107.184 12.2734C106.887 12.7031 106.664 13.1992 106.516 13.7617C106.367 14.3164 106.293 14.9062 106.293 15.5312ZM126.602 9.32031H128.57V21.7305C128.57 22.8477 128.344 23.8008 127.891 24.5898C127.438 25.3789 126.805 25.9766 125.992 26.3828C125.188 26.7969 124.258 27.0039 123.203 27.0039C122.766 27.0039 122.25 26.9336 121.656 26.793C121.07 26.6602 120.492 26.4297 119.922 26.1016C119.359 25.7812 118.887 25.3477 118.504 24.8008L119.641 23.5117C120.172 24.1523 120.727 24.5977 121.305 24.8477C121.891 25.0977 122.469 25.2227 123.039 25.2227C123.727 25.2227 124.32 25.0938 124.82 24.8359C125.32 24.5781 125.707 24.1953 125.98 23.6875C126.262 23.1875 126.402 22.5703 126.402 21.8359V12.1094L126.602 9.32031ZM117.871 15.8008V15.5547C117.871 14.5859 117.984 13.707 118.211 12.918C118.445 12.1211 118.777 11.4375 119.207 10.8672C119.645 10.2969 120.172 9.85938 120.789 9.55469C121.406 9.24219 122.102 9.08594 122.875 9.08594C123.672 9.08594 124.367 9.22656 124.961 9.50781C125.562 9.78125 126.07 10.1836 126.484 10.7148C126.906 11.2383 127.238 11.8711 127.48 12.6133C127.723 13.3555 127.891 14.1953 127.984 15.1328V16.2109C127.898 17.1406 127.73 17.9766 127.48 18.7188C127.238 19.4609 126.906 20.0938 126.484 20.6172C126.07 21.1406 125.562 21.543 124.961 21.8242C124.359 22.0977 123.656 22.2344 122.852 22.2344C122.094 22.2344 121.406 22.0742 120.789 21.7539C120.18 21.4336 119.656 20.9844 119.219 20.4062C118.781 19.8281 118.445 19.1484 118.211 18.3672C117.984 17.5781 117.871 16.7227 117.871 15.8008ZM120.039 15.5547V15.8008C120.039 16.4336 120.102 17.0273 120.227 17.582C120.359 18.1367 120.559 18.625 120.824 19.0469C121.098 19.4688 121.445 19.8008 121.867 20.043C122.289 20.2773 122.793 20.3945 123.379 20.3945C124.098 20.3945 124.691 20.2422 125.16 19.9375C125.629 19.6328 126 19.2305 126.273 18.7305C126.555 18.2305 126.773 17.6875 126.93 17.1016V14.2773C126.844 13.8477 126.711 13.4336 126.531 13.0352C126.359 12.6289 126.133 12.2695 125.852 11.957C125.578 11.6367 125.238 11.3828 124.832 11.1953C124.426 11.0078 123.949 10.9141 123.402 10.9141C122.809 10.9141 122.297 11.0391 121.867 11.2891C121.445 11.5312 121.098 11.8672 120.824 12.2969C120.559 12.7188 120.359 13.2109 120.227 13.7734C120.102 14.3281 120.039 14.9219 120.039 15.5547ZM134.219 4V22H132.039V4H134.219ZM142.961 22.2344C142.078 22.2344 141.277 22.0859 140.559 21.7891C139.848 21.4844 139.234 21.0586 138.719 20.5117C138.211 19.9648 137.82 19.3164 137.547 18.5664C137.273 17.8164 137.137 16.9961 137.137 16.1055V15.6133C137.137 14.582 137.289 13.6641 137.594 12.8594C137.898 12.0469 138.312 11.3594 138.836 10.7969C139.359 10.2344 139.953 9.80859 140.617 9.51953C141.281 9.23047 141.969 9.08594 142.68 9.08594C143.586 9.08594 144.367 9.24219 145.023 9.55469C145.688 9.86719 146.23 10.3047 146.652 10.8672C147.074 11.4219 147.387 12.0781 147.59 12.8359C147.793 13.5859 147.895 14.4062 147.895 15.2969V16.2695H138.426V14.5H145.727V14.3359C145.695 13.7734 145.578 13.2266 145.375 12.6953C145.18 12.1641 144.867 11.7266 144.438 11.3828C144.008 11.0391 143.422 10.8672 142.68 10.8672C142.188 10.8672 141.734 10.9727 141.32 11.1836C140.906 11.3867 140.551 11.6914 140.254 12.0977C139.957 12.5039 139.727 13 139.562 13.5859C139.398 14.1719 139.316 14.8477 139.316 15.6133V16.1055C139.316 16.707 139.398 17.2734 139.562 17.8047C139.734 18.3281 139.98 18.7891 140.301 19.1875C140.629 19.5859 141.023 19.8984 141.484 20.125C141.953 20.3516 142.484 20.4648 143.078 20.4648C143.844 20.4648 144.492 20.3086 145.023 19.9961C145.555 19.6836 146.02 19.2656 146.418 18.7422L147.73 19.7852C147.457 20.1992 147.109 20.5938 146.688 20.9688C146.266 21.3438 145.746 21.6484 145.129 21.8828C144.52 22.1172 143.797 22.2344 142.961 22.2344ZM156.707 4.9375H162.355C163.637 4.9375 164.719 5.13281 165.602 5.52344C166.492 5.91406 167.168 6.49219 167.629 7.25781C168.098 8.01562 168.332 8.94922 168.332 10.0586C168.332 10.8398 168.172 11.5547 167.852 12.2031C167.539 12.8438 167.086 13.3906 166.492 13.8438C165.906 14.2891 165.203 14.6211 164.383 14.8398L163.75 15.0859H158.441L158.418 13.2461H162.426C163.238 13.2461 163.914 13.1055 164.453 12.8242C164.992 12.5352 165.398 12.1484 165.672 11.6641C165.945 11.1797 166.082 10.6445 166.082 10.0586C166.082 9.40234 165.953 8.82812 165.695 8.33594C165.438 7.84375 165.031 7.46484 164.477 7.19922C163.93 6.92578 163.223 6.78906 162.355 6.78906H158.969V22H156.707V4.9375ZM166.68 22L162.531 14.2656L164.887 14.2539L169.094 21.8594V22H166.68ZM176.43 22.2344C175.547 22.2344 174.746 22.0859 174.027 21.7891C173.316 21.4844 172.703 21.0586 172.188 20.5117C171.68 19.9648 171.289 19.3164 171.016 18.5664C170.742 17.8164 170.605 16.9961 170.605 16.1055V15.6133C170.605 14.582 170.758 13.6641 171.062 12.8594C171.367 12.0469 171.781 11.3594 172.305 10.7969C172.828 10.2344 173.422 9.80859 174.086 9.51953C174.75 9.23047 175.438 9.08594 176.148 9.08594C177.055 9.08594 177.836 9.24219 178.492 9.55469C179.156 9.86719 179.699 10.3047 180.121 10.8672C180.543 11.4219 180.855 12.0781 181.059 12.8359C181.262 13.5859 181.363 14.4062 181.363 15.2969V16.2695H171.895V14.5H179.195V14.3359C179.164 13.7734 179.047 13.2266 178.844 12.6953C178.648 12.1641 178.336 11.7266 177.906 11.3828C177.477 11.0391 176.891 10.8672 176.148 10.8672C175.656 10.8672 175.203 10.9727 174.789 11.1836C174.375 11.3867 174.02 11.6914 173.723 12.0977C173.426 12.5039 173.195 13 173.031 13.5859C172.867 14.1719 172.785 14.8477 172.785 15.6133V16.1055C172.785 16.707 172.867 17.2734 173.031 17.8047C173.203 18.3281 173.449 18.7891 173.77 19.1875C174.098 19.5859 174.492 19.8984 174.953 20.125C175.422 20.3516 175.953 20.4648 176.547 20.4648C177.312 20.4648 177.961 20.3086 178.492 19.9961C179.023 19.6836 179.488 19.2656 179.887 18.7422L181.199 19.7852C180.926 20.1992 180.578 20.5938 180.156 20.9688C179.734 21.3438 179.215 21.6484 178.598 21.8828C177.988 22.1172 177.266 22.2344 176.43 22.2344ZM187.586 20.043L191.055 9.32031H193.27L188.711 22H187.258L187.586 20.043ZM184.691 9.32031L188.266 20.1016L188.512 22H187.059L182.465 9.32031H184.691ZM197.711 9.32031V22H195.531V9.32031H197.711ZM195.367 5.95703C195.367 5.60547 195.473 5.30859 195.684 5.06641C195.902 4.82422 196.223 4.70312 196.645 4.70312C197.059 4.70312 197.375 4.82422 197.594 5.06641C197.82 5.30859 197.934 5.60547 197.934 5.95703C197.934 6.29297 197.82 6.58203 197.594 6.82422C197.375 7.05859 197.059 7.17578 196.645 7.17578C196.223 7.17578 195.902 7.05859 195.684 6.82422C195.473 6.58203 195.367 6.29297 195.367 5.95703ZM206.453 22.2344C205.57 22.2344 204.77 22.0859 204.051 21.7891C203.34 21.4844 202.727 21.0586 202.211 20.5117C201.703 19.9648 201.312 19.3164 201.039 18.5664C200.766 17.8164 200.629 16.9961 200.629 16.1055V15.6133C200.629 14.582 200.781 13.6641 201.086 12.8594C201.391 12.0469 201.805 11.3594 202.328 10.7969C202.852 10.2344 203.445 9.80859 204.109 9.51953C204.773 9.23047 205.461 9.08594 206.172 9.08594C207.078 9.08594 207.859 9.24219 208.516 9.55469C209.18 9.86719 209.723 10.3047 210.145 10.8672C210.566 11.4219 210.879 12.0781 211.082 12.8359C211.285 13.5859 211.387 14.4062 211.387 15.2969V16.2695H201.918V14.5H209.219V14.3359C209.188 13.7734 209.07 13.2266 208.867 12.6953C208.672 12.1641 208.359 11.7266 207.93 11.3828C207.5 11.0391 206.914 10.8672 206.172 10.8672C205.68 10.8672 205.227 10.9727 204.812 11.1836C204.398 11.3867 204.043 11.6914 203.746 12.0977C203.449 12.5039 203.219 13 203.055 13.5859C202.891 14.1719 202.809 14.8477 202.809 15.6133V16.1055C202.809 16.707 202.891 17.2734 203.055 17.8047C203.227 18.3281 203.473 18.7891 203.793 19.1875C204.121 19.5859 204.516 19.8984 204.977 20.125C205.445 20.3516 205.977 20.4648 206.57 20.4648C207.336 20.4648 207.984 20.3086 208.516 19.9961C209.047 19.6836 209.512 19.2656 209.91 18.7422L211.223 19.7852C210.949 20.1992 210.602 20.5938 210.18 20.9688C209.758 21.3438 209.238 21.6484 208.621 21.8828C208.012 22.1172 207.289 22.2344 206.453 22.2344ZM217.129 19.75L220.387 9.32031H221.816L221.535 11.3945L218.219 22H216.824L217.129 19.75ZM214.938 9.32031L217.715 19.8672L217.914 22H216.449L212.77 9.32031H214.938ZM224.934 19.7852L227.582 9.32031H229.738L226.059 22H224.605L224.934 19.7852ZM222.133 9.32031L225.32 19.5742L225.684 22H224.301L220.891 11.3711L220.609 9.32031H222.133Z" fill="#fff"/>
<path d="M80.5245 38.4635C80.6741 38.0029 81.3259 38.0029 81.4755 38.4635L82.6839 42.1824C82.7508 42.3884 82.9428 42.5279 83.1594 42.5279H87.0696C87.554 42.5279 87.7554 43.1477 87.3635 43.4324L84.2001 45.7307C84.0248 45.8581 83.9515 46.0838 84.0184 46.2898L85.2268 50.0086C85.3764 50.4693 84.8492 50.8523 84.4573 50.5676L81.2939 48.2693C81.1186 48.1419 80.8814 48.1419 80.7061 48.2693L77.5427 50.5676C77.1508 50.8523 76.6236 50.4693 76.7732 50.0086L77.9816 46.2898C78.0485 46.0838 77.9752 45.8581 77.7999 45.7307L74.6365 43.4324C74.2446 43.1477 74.446 42.5279 74.9304 42.5279H78.8406C79.0572 42.5279 79.2492 42.3884 79.3161 42.1824L80.5245 38.4635Z" fill="#FFB800"/>
<path d="M101.524 38.4635C101.674 38.0029 102.326 38.0029 102.476 38.4635L103.684 42.1824C103.751 42.3884 103.943 42.5279 104.159 42.5279H108.07C108.554 42.5279 108.755 43.1477 108.364 43.4324L105.2 45.7307C105.025 45.8581 104.951 46.0838 105.018 46.2898L106.227 50.0086C106.376 50.4693 105.849 50.8523 105.457 50.5676L102.294 48.2693C102.119 48.1419 101.881 48.1419 101.706 48.2693L98.5427 50.5676C98.1508 50.8523 97.6236 50.4693 97.7732 50.0086L98.9816 46.2898C99.0485 46.0838 98.9752 45.8581 98.7999 45.7307L95.6365 43.4324C95.2446 43.1477 95.446 42.5279 95.9304 42.5279H99.8406C100.057 42.5279 100.249 42.3884 100.316 42.1824L101.524 38.4635Z" fill="#FFB800"/>
<path d="M122.524 38.4635C122.674 38.0029 123.326 38.0029 123.476 38.4635L124.684 42.1824C124.751 42.3884 124.943 42.5279 125.159 42.5279H129.07C129.554 42.5279 129.755 43.1477 129.364 43.4324L126.2 45.7307C126.025 45.8581 125.951 46.0838 126.018 46.2898L127.227 50.0086C127.376 50.4693 126.849 50.8523 126.457 50.5676L123.294 48.2693C123.119 48.1419 122.881 48.1419 122.706 48.2693L119.543 50.5676C119.151 50.8523 118.624 50.4693 118.773 50.0086L119.982 46.2898C120.049 46.0838 119.975 45.8581 119.8 45.7307L116.636 43.4324C116.245 43.1477 116.446 42.5279 116.93 42.5279H120.841C121.057 42.5279 121.249 42.3884 121.316 42.1824L122.524 38.4635Z" fill="#FFB800"/>
<path d="M143.524 38.4635C143.674 38.0029 144.326 38.0029 144.476 38.4635L145.684 42.1824C145.751 42.3884 145.943 42.5279 146.159 42.5279H150.07C150.554 42.5279 150.755 43.1477 150.364 43.4324L147.2 45.7307C147.025 45.8581 146.951 46.0838 147.018 46.2898L148.227 50.0086C148.376 50.4693 147.849 50.8523 147.457 50.5676L144.294 48.2693C144.119 48.1419 143.881 48.1419 143.706 48.2693L140.543 50.5676C140.151 50.8523 139.624 50.4693 139.773 50.0086L140.982 46.2898C141.049 46.0838 140.975 45.8581 140.8 45.7307L137.636 43.4324C137.245 43.1477 137.446 42.5279 137.93 42.5279H141.841C142.057 42.5279 142.249 42.3884 142.316 42.1824L143.524 38.4635Z" fill="#FFB800"/>
<path d="M164.524 38.4635C164.674 38.0029 165.326 38.0029 165.476 38.4635L166.684 42.1824C166.751 42.3884 166.943 42.5279 167.159 42.5279H171.07C171.554 42.5279 171.755 43.1477 171.364 43.4324L168.2 45.7307C168.025 45.8581 167.951 46.0838 168.018 46.2898L169.227 50.0086C169.376 50.4693 168.849 50.8523 168.457 50.5676L165.294 48.2693C165.119 48.1419 164.881 48.1419 164.706 48.2693L161.543 50.5676C161.151 50.8523 160.624 50.4693 160.773 50.0086L161.982 46.2898C162.049 46.0838 161.975 45.8581 161.8 45.7307L158.636 43.4324C158.245 43.1477 158.446 42.5279 158.93 42.5279H162.841C163.057 42.5279 163.249 42.3884 163.316 42.1824L164.524 38.4635Z" fill="#FFB800"/>
<defs>
<clipPath id="clip0_35_481">
<rect width="53" height="53" fill="white"/>
</clipPath>
</defs>
</svg>
