<svg width="70" height="29" viewBox="0 0 70 29" fill="none" xmlns="http://www.w3.org/2000/svg">
<rect x="0.5" y="0.5" width="69" height="28" rx="6.5" fill="white"/>
<rect x="0.5" y="0.5" width="69" height="28" rx="6.5" stroke="#33B68F"/>
<path d="M9.68353 16.5598L11.0737 14.8269L9.05511 14.2556L9.43597 13.1384L11.4164 13.9255L11.2958 11.7102H12.5273L12.394 13.97L14.3364 13.1892L14.7109 14.3254L12.6606 14.8967L14.0063 16.5916L13.0097 17.2898L11.8417 15.4363L10.6801 17.2327L9.68353 16.5598Z" fill="black"/>
<path d="M18.3393 16.5598L19.7294 14.8269L17.7109 14.2556L18.0917 13.1384L20.0722 13.9255L19.9516 11.7102H21.183L21.0497 13.97L22.9921 13.1892L23.3666 14.3254L21.3163 14.8967L22.662 16.5916L21.6655 17.2898L20.4975 15.4363L19.3359 17.2327L18.3393 16.5598Z" fill="black"/>
<path d="M26.9951 16.5598L28.3852 14.8269L26.3666 14.2556L26.7475 13.1384L28.728 13.9255L28.6074 11.7102H29.8388L29.7055 13.97L31.6479 13.1892L32.0224 14.3254L29.9721 14.8967L31.3178 16.5916L30.3212 17.2898L29.1533 15.4363L27.9916 17.2327L26.9951 16.5598Z" fill="black"/>
<path d="M35.6509 16.5598L37.041 14.8269L35.0225 14.2556L35.4033 13.1384L37.3838 13.9255L37.2632 11.7102H38.4946L38.3613 13.97L40.3037 13.1892L40.6782 14.3254L38.6279 14.8967L39.9736 16.5916L38.9771 17.2898L37.8091 15.4363L36.6475 17.2327L35.6509 16.5598Z" fill="black"/>
<path d="M46.7333 3H61C64.3137 3 67 5.68629 67 9V21C67 23.7614 64.7614 26 62 26H46.7333V3Z" fill="#00CD8F"/>
<path fill-rule="evenodd" clip-rule="evenodd" d="M58.6667 14.5L51.7333 9.29995L52.9333 7.69995L62 14.5L52.9333 21.3L51.7333 19.7L58.6667 14.5Z" fill="white"/>
</svg>
