<svg width="340" height="60" viewBox="0 0 340 60" fill="none" xmlns="http://www.w3.org/2000/svg">
<path d="M6.25455 22.4972V7.56604L28.9976 1L51.7454 7.56604V22.4948C51.7454 22.4948 52.6065 48.7589 28.9952 58.9976C5.39351 48.7589 6.25455 22.4972 6.25455 22.4972Z" fill="#4688F1"/>
<path d="M29.1563 38.7487C21.6075 38.7487 15.4879 32.6292 15.4879 25.0803C15.4879 17.5314 21.6075 11.4119 29.1563 11.4119C36.7052 11.4119 42.8248 17.5314 42.8248 25.0803C42.8248 32.6292 36.7052 38.7487 29.1563 38.7487Z" fill="white"/>
<path d="M39.5585 33.9456C41.5933 31.5597 42.8223 28.4643 42.8223 25.0803C42.8223 17.533 36.7036 11.4119 29.1539 11.4119C21.6042 11.4119 15.4855 17.5305 15.4855 25.0803C15.4855 28.4619 16.7145 31.5573 18.7469 33.9432C19.0716 30.6289 25.753 28.8083 29.1491 28.8083C32.5476 28.8083 39.2507 30.629 39.5585 33.9456ZM29.1563 25.5084C26.2798 25.5084 23.9468 23.1754 23.9468 20.2989C23.9468 17.4223 26.2798 15.0893 29.1563 15.0893C32.0329 15.0893 34.3658 17.4223 34.3658 20.2989C34.3658 23.1754 32.0329 25.5084 29.1563 25.5084Z" fill="#3566B8"/>
<path d="M92.735 26.315C91.9183 26.4317 91.1367 26.49 90.39 26.49C86.5167 26.49 83.6233 25.51 81.71 23.55C79.82 21.59 78.875 18.615 78.875 14.625C78.875 12.035 79.3533 9.795 80.31 7.905C81.2667 5.99167 82.6317 4.52167 84.405 3.495C86.1783 2.46833 88.29 1.955 90.74 1.955C98.5333 1.955 102.43 5.93333 102.43 13.89C102.43 17.5767 101.52 20.505 99.7 22.675L103.585 22.5V27.26H101.31L92.735 26.315ZM91.125 21.66C91.825 21.66 92.4667 21.5783 93.05 21.415C93.6567 21.2517 94.2867 20.995 94.94 20.645C95.1967 19.9217 95.395 19.0233 95.535 17.95C95.675 16.8533 95.745 15.78 95.745 14.73C95.745 12.14 95.255 10.18 94.275 8.85C93.3183 7.52 91.9067 6.855 90.04 6.855C88.7333 6.855 87.45 7.1 86.19 7.59C85.9333 8.03333 85.735 8.75667 85.595 9.76C85.4783 10.7633 85.42 11.93 85.42 13.26C85.42 15.9667 85.8983 18.0433 86.855 19.49C87.835 20.9367 89.2583 21.66 91.125 21.66ZM112.693 26.42C110.127 26.42 107.525 26.0233 104.888 25.23C105.005 22.92 105.192 20.7733 105.448 18.79L108.143 18.265L109.893 21.24C111.293 21.73 112.53 21.975 113.603 21.975C113.977 21.975 114.77 21.87 115.983 21.66C116.03 21.1933 116.053 20.8783 116.053 20.715C116.053 20.155 115.96 19.735 115.773 19.455C115.587 19.1517 115.178 18.825 114.548 18.475C113.918 18.1017 112.787 17.5533 111.153 16.83C109.147 15.85 107.7 14.8 106.813 13.68C105.927 12.5367 105.483 11.195 105.483 9.655C105.483 7.25167 106.3 5.37333 107.933 4.02C109.567 2.66667 111.807 1.99 114.653 1.99C116.03 1.99 117.395 2.13 118.748 2.41C120.125 2.66667 121.327 3.02833 122.353 3.495C122.307 4.80167 122.202 6.42333 122.038 8.36L121.933 9.865L119.378 10.25L116.718 6.855C115.878 6.59833 114.828 6.47 113.568 6.47C112.775 6.47 112.18 6.54 111.783 6.68C111.667 7.14667 111.608 7.50833 111.608 7.765C111.608 8.27833 111.737 8.73333 111.993 9.13C112.25 9.50333 112.705 9.9 113.358 10.32C114.012 10.7167 114.98 11.2183 116.263 11.825C118.13 12.7117 119.542 13.4933 120.498 14.17C121.455 14.8467 122.12 15.5583 122.493 16.305C122.89 17.0283 123.088 17.915 123.088 18.965C123.088 21.275 122.167 23.095 120.323 24.425C118.48 25.755 115.937 26.42 112.693 26.42ZM139.9 26.42C137.334 26.42 134.732 26.0233 132.095 25.23C132.212 22.92 132.399 20.7733 132.655 18.79L135.35 18.265L137.1 21.24C138.5 21.73 139.737 21.975 140.81 21.975C141.184 21.975 141.977 21.87 143.19 21.66C143.237 21.1933 143.26 20.8783 143.26 20.715C143.26 20.155 143.167 19.735 142.98 19.455C142.794 19.1517 142.385 18.825 141.755 18.475C141.125 18.1017 139.994 17.5533 138.36 16.83C136.354 15.85 134.907 14.8 134.02 13.68C133.134 12.5367 132.69 11.195 132.69 9.655C132.69 7.25167 133.507 5.37333 135.14 4.02C136.774 2.66667 139.014 1.99 141.86 1.99C143.237 1.99 144.602 2.13 145.955 2.41C147.332 2.66667 148.534 3.02833 149.56 3.495C149.514 4.80167 149.409 6.42333 149.245 8.36L149.14 9.865L146.585 10.25L143.925 6.855C143.085 6.59833 142.035 6.47 140.775 6.47C139.982 6.47 139.387 6.54 138.99 6.68C138.874 7.14667 138.815 7.50833 138.815 7.765C138.815 8.27833 138.944 8.73333 139.2 9.13C139.457 9.50333 139.912 9.9 140.565 10.32C141.219 10.7167 142.187 11.2183 143.47 11.825C145.337 12.7117 146.749 13.4933 147.705 14.17C148.662 14.8467 149.327 15.5583 149.7 16.305C150.097 17.0283 150.295 17.915 150.295 18.965C150.295 21.275 149.374 23.095 147.53 24.425C145.687 25.755 143.144 26.42 139.9 26.42ZM161.167 26.42C158.437 26.42 156.325 25.5917 154.832 23.935C153.362 22.2783 152.627 19.9917 152.627 17.075C152.627 15.045 152.988 13.3067 153.712 11.86C154.435 10.39 155.462 9.27 156.792 8.5C158.122 7.73 159.673 7.345 161.447 7.345C164.083 7.345 166.102 8.185 167.502 9.865C168.925 11.545 169.602 13.9367 169.532 17.04L158.892 19C159.218 19.98 159.673 20.7033 160.257 21.17C160.863 21.6133 161.657 21.835 162.637 21.835C163.313 21.835 164.118 21.7417 165.052 21.555C165.985 21.345 166.93 21.065 167.887 20.715L168.692 24.18C167.828 24.8333 166.708 25.37 165.332 25.79C163.955 26.21 162.567 26.42 161.167 26.42ZM163.792 14.1C163.745 13.2133 163.488 12.5717 163.022 12.175C162.578 11.755 161.948 11.545 161.132 11.545C160.455 11.545 159.813 11.6383 159.207 11.825C158.717 12.9683 158.495 14.205 158.542 15.535L163.792 14.1ZM180.41 26.455C177.703 26.455 175.603 25.6267 174.11 23.97C172.616 22.29 171.87 19.98 171.87 17.04C171.87 13.9833 172.663 11.6033 174.25 9.9C175.86 8.19667 178.053 7.345 180.83 7.345C182.93 7.345 185.181 7.82333 187.585 8.78C187.538 9.45667 187.433 10.355 187.27 11.475C187.106 12.5717 186.931 13.5867 186.745 14.52L184.4 14.73L182.23 11.965C181.646 11.8483 180.993 11.79 180.27 11.79C179.686 11.79 179.15 11.825 178.66 11.895C178.123 12.9217 177.855 14.3683 177.855 16.235C177.855 18.1483 178.193 19.5717 178.87 20.505C179.546 21.415 180.573 21.87 181.95 21.87C182.603 21.87 183.396 21.7767 184.33 21.59C185.263 21.38 186.22 21.0883 187.2 20.715L188.04 24.215C187.106 24.8683 185.94 25.405 184.54 25.825C183.163 26.245 181.786 26.455 180.41 26.455ZM197.251 26.49C195.384 26.49 193.996 25.9417 193.086 24.845C192.176 23.725 191.721 22.045 191.721 19.805V13.54C191.721 13.0267 191.674 12.7 191.581 12.56C191.511 12.3967 191.313 12.2217 190.986 12.035L189.411 11.195L189.586 8.57C189.913 8.52333 190.146 8.47667 190.286 8.43C190.543 8.38333 191.453 8.22 193.016 7.94C194.603 7.66 195.921 7.49667 196.971 7.45C197.228 8.03333 197.426 8.71 197.566 9.48V18.3C197.566 19.3267 197.589 20.05 197.636 20.47C197.706 20.89 197.893 21.2167 198.196 21.45C198.523 21.66 199.071 21.765 199.841 21.765C200.961 21.765 202.046 21.5667 203.096 21.17V13.54C203.096 13.0267 203.061 12.7 202.991 12.56C202.921 12.3967 202.734 12.2217 202.431 12.035L200.891 11.195L201.031 8.57C202.921 8.22 204.391 7.95167 205.441 7.765C206.514 7.57833 207.494 7.47333 208.381 7.45C208.638 8.03333 208.836 8.71 208.976 9.48V20.96C208.976 21.38 209.011 21.6717 209.081 21.835C209.151 21.9983 209.314 22.1617 209.571 22.325L210.971 23.13L210.866 25.3C209.863 25.5567 208.708 25.79 207.401 26C206.094 26.1867 204.881 26.3033 203.761 26.35C203.668 26.07 203.563 25.72 203.446 25.3C203.423 25.1133 203.364 24.8917 203.271 24.635H203.166C202.209 25.195 201.194 25.65 200.121 26C199.071 26.3267 198.114 26.49 197.251 26.49ZM212.417 22.675L214.552 22.045V13.54C214.552 13.0267 214.517 12.7 214.447 12.56C214.377 12.3967 214.19 12.2217 213.887 12.035L212.347 11.195L212.452 8.57C212.848 8.47667 213.187 8.41833 213.467 8.395C216.29 7.81167 218.378 7.49667 219.732 7.45C219.942 8.05667 220.14 8.815 220.327 9.725C221.727 8.62833 222.917 7.87 223.897 7.45H225.892C225.868 8.33667 225.81 9.305 225.717 10.355C225.623 11.3817 225.507 12.21 225.367 12.84C224.527 12.7933 223.908 12.77 223.512 12.77C222.532 12.77 221.517 12.8283 220.467 12.945V20.89C220.467 21.38 220.502 21.7067 220.572 21.87C220.642 22.0333 220.828 22.2083 221.132 22.395L223.232 23.515L223.092 26H212.592L212.417 22.675ZM235.439 26.42C232.709 26.42 230.597 25.5917 229.104 23.935C227.634 22.2783 226.899 19.9917 226.899 17.075C226.899 15.045 227.261 13.3067 227.984 11.86C228.707 10.39 229.734 9.27 231.064 8.5C232.394 7.73 233.946 7.345 235.719 7.345C238.356 7.345 240.374 8.185 241.774 9.865C243.197 11.545 243.874 13.9367 243.804 17.04L233.164 19C233.491 19.98 233.946 20.7033 234.529 21.17C235.136 21.6133 235.929 21.835 236.909 21.835C237.586 21.835 238.391 21.7417 239.324 21.555C240.257 21.345 241.202 21.065 242.159 20.715L242.964 24.18C242.101 24.8333 240.981 25.37 239.604 25.79C238.227 26.21 236.839 26.42 235.439 26.42ZM238.064 14.1C238.017 13.2133 237.761 12.5717 237.294 12.175C236.851 11.755 236.221 11.545 235.404 11.545C234.727 11.545 234.086 11.6383 233.479 11.825C232.989 12.9683 232.767 14.205 232.814 15.535L238.064 14.1ZM86.736 54.312C84.384 54.312 82.656 53.696 81.552 52.464C80.464 51.216 79.92 49.264 79.92 46.608V41.88C79.92 41.464 79.888 41.192 79.824 41.064C79.776 40.92 79.624 40.792 79.368 40.68L78.6 40.224L78.672 37.824H86.16L86.28 40.2L84.288 40.752V45.672C84.288 47.336 84.528 48.648 85.008 49.608C85.488 50.568 86.312 51.048 87.48 51.048C87.864 51.048 88.232 50.992 88.584 50.88C88.952 50.768 89.264 50.616 89.52 50.424C89.68 50.056 89.792 49.568 89.856 48.96C89.92 48.336 89.952 47.504 89.952 46.464V41.88C89.952 41.464 89.92 41.192 89.856 41.064C89.792 40.92 89.624 40.792 89.352 40.68L88.176 40.008L88.296 37.824H95.424L95.544 40.416L94.296 40.752V46.176C94.296 48.752 93.632 50.752 92.304 52.176C90.992 53.6 89.136 54.312 86.736 54.312ZM100.666 54.408C99.4016 54.408 97.9376 54.184 96.2736 53.736C96.3696 52.168 96.4736 51.008 96.5856 50.256L97.9536 49.992L99.4656 51.6C99.9936 51.76 100.586 51.84 101.242 51.84C101.61 51.84 101.898 51.816 102.106 51.768C102.154 51.64 102.178 51.464 102.178 51.24C102.178 51.048 102.13 50.888 102.034 50.76C101.954 50.632 101.762 50.48 101.458 50.304C101.154 50.128 100.626 49.856 99.8736 49.488C98.9296 48.992 98.2096 48.552 97.7136 48.168C97.2176 47.768 96.8576 47.36 96.6336 46.944C96.4256 46.528 96.3216 46.032 96.3216 45.456C96.3216 44.176 96.7936 43.16 97.7376 42.408C98.6976 41.656 99.9936 41.28 101.626 41.28C102.298 41.28 103.002 41.36 103.738 41.52C104.49 41.664 105.162 41.864 105.754 42.12C105.754 43.16 105.682 44.32 105.538 45.6L104.29 45.792L102.682 44.064C102.266 43.936 101.658 43.872 100.858 43.872C100.73 43.872 100.474 43.888 100.09 43.92C100.042 44.016 100.018 44.168 100.018 44.376C100.018 44.6 100.082 44.8 100.21 44.976C100.338 45.136 100.562 45.32 100.882 45.528C101.218 45.72 101.746 46 102.466 46.368C103.522 46.88 104.314 47.328 104.842 47.712C105.386 48.08 105.762 48.456 105.97 48.84C106.194 49.224 106.306 49.688 106.306 50.232C106.306 51.544 105.802 52.568 104.794 53.304C103.802 54.04 102.426 54.408 100.666 54.408ZM113.677 54.288C111.805 54.288 110.357 53.72 109.333 52.584C108.325 51.448 107.821 49.88 107.821 47.88C107.821 46.488 108.069 45.296 108.565 44.304C109.061 43.296 109.765 42.528 110.677 42C111.589 41.472 112.653 41.208 113.869 41.208C115.677 41.208 117.061 41.784 118.021 42.936C118.997 44.088 119.461 45.728 119.413 47.856L112.117 49.2C112.341 49.872 112.653 50.368 113.053 50.688C113.469 50.992 114.013 51.144 114.685 51.144C115.149 51.144 115.701 51.08 116.341 50.952C116.981 50.808 117.629 50.616 118.285 50.376L118.837 52.752C118.245 53.2 117.477 53.568 116.533 53.856C115.589 54.144 114.637 54.288 113.677 54.288ZM115.477 45.84C115.445 45.232 115.269 44.792 114.949 44.52C114.645 44.232 114.213 44.088 113.653 44.088C113.189 44.088 112.749 44.152 112.333 44.28C111.997 45.064 111.845 45.912 111.877 46.824L115.477 45.84ZM120.507 51.72L121.971 51.288V45.456C121.971 45.104 121.947 44.88 121.899 44.784C121.851 44.672 121.723 44.552 121.515 44.424L120.459 43.848L120.531 42.048C120.803 41.984 121.035 41.944 121.227 41.928C123.163 41.528 124.595 41.312 125.523 41.28C125.667 41.696 125.803 42.216 125.931 42.84C126.891 42.088 127.707 41.568 128.379 41.28H129.747C129.731 41.888 129.691 42.552 129.627 43.272C129.563 43.976 129.483 44.544 129.387 44.976C128.811 44.944 128.387 44.928 128.115 44.928C127.443 44.928 126.747 44.968 126.027 45.048V50.496C126.027 50.832 126.051 51.056 126.099 51.168C126.147 51.28 126.275 51.4 126.483 51.528L127.923 52.296L127.827 54H120.627L120.507 51.72ZM140.807 54.072C139.079 54.072 137.487 54 136.031 53.856L135.911 51.552L137.663 51.072V41.928C137.663 41.512 137.631 41.24 137.567 41.112C137.503 40.968 137.335 40.84 137.063 40.728L135.815 40.032L135.959 38.04C137.623 37.912 139.023 37.816 140.159 37.752C141.295 37.672 142.207 37.632 142.895 37.632C145.103 37.632 146.871 37.888 148.199 38.4C149.543 38.912 150.519 39.72 151.127 40.824C151.751 41.928 152.063 43.392 152.063 45.216C152.063 47.52 151.535 49.384 150.479 50.808C149.535 52.04 148.279 52.896 146.711 53.376C145.159 53.84 143.191 54.072 140.807 54.072ZM143.831 50.64C145.175 50.64 146.239 50.48 147.023 50.16C147.167 49.76 147.295 49.136 147.407 48.288C147.535 47.44 147.599 46.648 147.599 45.912C147.599 44.104 147.223 42.768 146.471 41.904C145.735 41.04 144.607 40.608 143.087 40.608C142.879 40.608 142.687 40.616 142.511 40.632C142.335 40.648 142.167 40.664 142.007 40.68V50.52C142.647 50.6 143.255 50.64 143.831 50.64ZM157.221 54.312C156.133 54.312 155.261 54.016 154.605 53.424C153.949 52.816 153.621 52.04 153.621 51.096C153.621 49.832 154.253 48.84 155.517 48.12C156.797 47.4 158.653 46.992 161.085 46.896C161.085 46.144 161.021 45.592 160.893 45.24C160.781 44.872 160.565 44.624 160.245 44.496C159.941 44.352 159.469 44.28 158.829 44.28C158.173 44.28 157.709 44.304 157.437 44.352L156.453 46.296L154.677 46.176C154.405 44.896 154.213 43.568 154.101 42.192C154.997 41.888 155.973 41.648 157.029 41.472C158.101 41.296 159.101 41.208 160.029 41.208C161.725 41.208 162.941 41.544 163.677 42.216C164.413 42.872 164.781 43.968 164.781 45.504V50.52C164.781 50.808 164.805 51.008 164.853 51.12C164.917 51.232 165.045 51.344 165.237 51.456L166.197 52.008L166.101 53.496C164.245 53.928 162.781 54.168 161.709 54.216C161.677 54.12 161.629 53.952 161.565 53.712C161.501 53.456 161.445 53.216 161.397 52.992C160.773 53.392 160.085 53.712 159.333 53.952C158.597 54.192 157.893 54.312 157.221 54.312ZM158.829 51.6C159.469 51.6 160.245 51.384 161.157 50.952L161.061 49.128C160.677 49.096 160.421 49.08 160.293 49.08C159.861 49.08 159.357 49.128 158.781 49.224C158.205 49.304 157.749 49.4 157.413 49.512C157.365 49.72 157.341 49.912 157.341 50.088C157.341 50.568 157.469 50.944 157.725 51.216C157.997 51.472 158.365 51.6 158.829 51.6ZM172.109 54.312C170.701 54.312 169.661 53.968 168.989 53.28C168.317 52.576 167.981 51.512 167.981 50.088V44.256H166.301V42.504L170.621 38.568L172.013 38.736V41.448H176.045V44.28H172.013V49.224C172.013 49.992 172.117 50.504 172.325 50.76C172.549 51.016 172.973 51.144 173.597 51.144C174.125 51.144 174.861 51.072 175.805 50.928L176.093 53.376C175.517 53.648 174.869 53.872 174.149 54.048C173.445 54.224 172.765 54.312 172.109 54.312ZM180.846 54.312C179.758 54.312 178.886 54.016 178.23 53.424C177.574 52.816 177.246 52.04 177.246 51.096C177.246 49.832 177.878 48.84 179.142 48.12C180.422 47.4 182.278 46.992 184.71 46.896C184.71 46.144 184.646 45.592 184.518 45.24C184.406 44.872 184.19 44.624 183.87 44.496C183.566 44.352 183.094 44.28 182.454 44.28C181.798 44.28 181.334 44.304 181.062 44.352L180.078 46.296L178.302 46.176C178.03 44.896 177.838 43.568 177.726 42.192C178.622 41.888 179.598 41.648 180.654 41.472C181.726 41.296 182.726 41.208 183.654 41.208C185.35 41.208 186.566 41.544 187.302 42.216C188.038 42.872 188.406 43.968 188.406 45.504V50.52C188.406 50.808 188.43 51.008 188.478 51.12C188.542 51.232 188.67 51.344 188.862 51.456L189.822 52.008L189.726 53.496C187.87 53.928 186.406 54.168 185.334 54.216C185.302 54.12 185.254 53.952 185.19 53.712C185.126 53.456 185.07 53.216 185.022 52.992C184.398 53.392 183.71 53.712 182.958 53.952C182.222 54.192 181.518 54.312 180.846 54.312ZM182.454 51.6C183.094 51.6 183.87 51.384 184.782 50.952L184.686 49.128C184.302 49.096 184.046 49.08 183.918 49.08C183.486 49.08 182.982 49.128 182.406 49.224C181.83 49.304 181.374 49.4 181.038 49.512C180.99 49.72 180.966 49.912 180.966 50.088C180.966 50.568 181.094 50.944 181.35 51.216C181.622 51.472 181.99 51.6 182.454 51.6ZM194.54 51.864L195.284 51.408L200.9 37.8L204.98 37.44L209.78 50.4C209.94 50.816 210.052 51.088 210.116 51.216C210.18 51.344 210.3 51.52 210.476 51.744L210.908 52.296L210.764 54H204.02L203.78 51.72L205.484 51.288L204.716 48.864L199.844 48.936L199.316 50.448C199.268 50.592 199.244 50.712 199.244 50.808C199.244 50.92 199.26 51.008 199.292 51.072C199.34 51.12 199.412 51.16 199.508 51.192L201.164 51.888L200.924 54H194.636L194.54 51.864ZM202.388 41.544L200.804 46.152L203.9 46.296L202.388 41.544ZM216.186 54.336C214.906 54.336 213.954 53.96 213.33 53.208C212.706 52.44 212.394 51.288 212.394 49.752V45.456C212.394 45.104 212.362 44.88 212.298 44.784C212.25 44.672 212.114 44.552 211.89 44.424L210.81 43.848L210.93 42.048C211.154 42.016 211.314 41.984 211.41 41.952C211.586 41.92 212.21 41.808 213.282 41.616C214.37 41.424 215.274 41.312 215.994 41.28C216.17 41.68 216.306 42.144 216.402 42.672V48.72C216.402 49.424 216.418 49.92 216.45 50.208C216.498 50.496 216.626 50.72 216.834 50.88C217.058 51.024 217.434 51.096 217.962 51.096C218.73 51.096 219.474 50.96 220.194 50.688V45.456C220.194 45.104 220.17 44.88 220.122 44.784C220.074 44.672 219.946 44.552 219.738 44.424L218.682 43.848L218.778 42.048C220.074 41.808 221.082 41.624 221.802 41.496C222.538 41.368 223.21 41.296 223.818 41.28C223.994 41.68 224.13 42.144 224.226 42.672V50.544C224.226 50.832 224.25 51.032 224.298 51.144C224.346 51.256 224.458 51.368 224.634 51.48L225.594 52.032L225.522 53.52C224.834 53.696 224.042 53.856 223.146 54C222.25 54.128 221.418 54.208 220.65 54.24C220.586 54.048 220.514 53.808 220.434 53.52C220.418 53.392 220.378 53.24 220.314 53.064H220.242C219.586 53.448 218.89 53.76 218.154 54C217.434 54.224 216.778 54.336 216.186 54.336ZM231.851 54.312C230.443 54.312 229.403 53.968 228.731 53.28C228.059 52.576 227.723 51.512 227.723 50.088V44.256H226.043V42.504L230.363 38.568L231.755 38.736V41.448H235.787V44.28H231.755V49.224C231.755 49.992 231.859 50.504 232.067 50.76C232.291 51.016 232.715 51.144 233.339 51.144C233.867 51.144 234.603 51.072 235.547 50.928L235.835 53.376C235.259 53.648 234.611 53.872 233.891 54.048C233.187 54.224 232.507 54.312 231.851 54.312ZM236.851 51.72L238.339 51.288V39.792C238.339 39.44 238.315 39.216 238.267 39.12C238.219 39.008 238.091 38.888 237.883 38.76L236.827 38.208L236.899 36.384L237.643 36.264C239.755 35.88 241.235 35.672 242.083 35.64C242.227 36.024 242.331 36.44 242.395 36.888V42.36C243.275 41.96 244.019 41.672 244.627 41.496C245.251 41.304 245.867 41.208 246.475 41.208C248.971 41.208 250.219 42.728 250.219 45.768V50.496C250.219 50.832 250.243 51.056 250.291 51.168C250.339 51.28 250.475 51.4 250.699 51.528L251.851 52.2L251.755 54H245.131L245.011 51.72L246.187 51.384V46.824C246.187 46.12 246.163 45.624 246.115 45.336C246.083 45.032 245.955 44.8 245.731 44.64C245.507 44.48 245.131 44.4 244.603 44.4C244.091 44.4 243.355 44.488 242.395 44.664V50.496C242.395 50.832 242.419 51.056 242.467 51.168C242.515 51.28 242.643 51.4 242.851 51.528L244.027 52.2L243.931 54H236.971L236.851 51.72Z" fill="#262626"/>
</svg>
