<svg width="27" height="27" viewBox="0 0 27 27" fill="none" xmlns="http://www.w3.org/2000/svg">
<path d="M0.796299 7.23383C0.185372 7.60038 -0.0127202 8.39279 0.353829 9.0037C0.720378 9.61462 1.51278 9.81272 2.12369 9.44617L0.796299 7.23383ZM10.06 3.18L10.834 2.148C10.4145 1.83331 9.84603 1.80398 9.39625 2.07383L10.06 3.18ZM16.94 8.34L16.166 9.372C16.6366 9.72498 17.2864 9.71483 17.7458 9.34732L16.94 8.34ZM26.3458 2.46732C26.9022 2.02225 26.9924 1.21048 26.5474 0.654147C26.1023 0.0978127 25.2904 0.00761625 24.7342 0.452683L26.3458 2.46732ZM22.53 25.54C22.53 26.2524 23.1076 26.83 23.82 26.83C24.5324 26.83 25.11 26.2524 25.11 25.54H22.53ZM25.11 11.78C25.11 11.0676 24.5324 10.49 23.82 10.49C23.1076 10.49 22.53 11.0676 22.53 11.78H25.11ZM8.77 25.54C8.77 26.2524 9.34757 26.83 10.06 26.83C10.7724 26.83 11.35 26.2524 11.35 25.54H8.77ZM11.35 11.78C11.35 11.0676 10.7724 10.49 10.06 10.49C9.34757 10.49 8.77 11.0676 8.77 11.78H11.35ZM15.65 25.54C15.65 26.2524 16.2276 26.83 16.94 26.83C17.6524 26.83 18.23 26.2524 18.23 25.54H15.65ZM18.23 16.94C18.23 16.2276 17.6524 15.65 16.94 15.65C16.2276 15.65 15.65 16.2276 15.65 16.94H18.23ZM1.89 25.54C1.89 26.2524 2.46755 26.83 3.18 26.83C3.89244 26.83 4.47 26.2524 4.47 25.54H1.89ZM4.47 16.94C4.47 16.2276 3.89244 15.65 3.18 15.65C2.46755 15.65 1.89 16.2276 1.89 16.94H4.47ZM2.12369 9.44617L10.7237 4.28617L9.39625 2.07383L0.796299 7.23383L2.12369 9.44617ZM9.286 4.212L16.166 9.372L17.714 7.308L10.834 2.148L9.286 4.212ZM17.7458 9.34732L26.3458 2.46732L24.7342 0.452683L16.1342 7.33268L17.7458 9.34732ZM25.11 25.54V11.78H22.53V25.54H25.11ZM11.35 25.54V11.78H8.77V25.54H11.35ZM18.23 25.54V16.94H15.65V25.54H18.23ZM4.47 25.54V16.94H1.89V25.54H4.47Z" fill="white"/>
</svg>
