<svg width="32" height="28" viewBox="0 0 32 28" fill="none" xmlns="http://www.w3.org/2000/svg">
<path d="M6.94218 16.6C6.16718 17.65 5.63436 18.35 5.63436 18.35C5.2953 18.7 5.2953 19.3 5.63436 19.65L12.5609 26.8C12.9 27.15 13.4812 27.15 13.8203 26.8C13.8203 26.8 14.4984 26.35 15.6609 25.4" stroke="#00CD8F"/>
<path d="M13.5297 23.2L11.2531 25.5" stroke="#00CD8F"/>
<path d="M11.3015 20.9L9.07343 23.25" stroke="#00CD8F"/>
<path d="M9.12186 18.65L6.89374 20.95" stroke="#00CD8F"/>
<path d="M19.5844 10.7C20.214 11.35 25.8328 18.35 25.8328 18.35C26.1719 18.7 26.1719 19.3 25.8328 19.65L18.9062 26.8C18.5672 27.15 17.9859 27.15 17.6469 26.8C17.6469 26.8 13.5781 23.9 7.91092 18.05C5.73123 15.8 4.76248 12.9 5.10154 12.55L12.0281 5.39999C12.2703 5.14999 13.9656 5.54999 15.5156 6.34999" stroke="#00CD8F" stroke-linecap="round"/>
<path d="M24.6703 16.65C26.0266 14.75 26.6078 12.85 26.3172 12.55L19.3906 5.4C19.0516 5.05 15.9516 5.7 13.7234 8C12.8031 8.95 10.7203 10.45 9.70312 12.9C9.70312 12.9 10.2359 13.85 11.6406 13.3C13.9656 12.4 15.5641 11.5 15.5641 11.5C15.5641 11.5 17.9859 12.5 19.4875 10.75" stroke="#00CD8F" stroke-linecap="round"/>
<path d="M13.3359 2.69999C13.675 3.04999 13.675 3.64999 13.3359 3.99999L4.37499 13.25C4.03593 13.6 3.45468 13.6 3.11562 13.25L1.22656 11.3C0.887494 10.95 0.887494 10.35 1.22656 9.99999L10.1875 0.749988C10.5266 0.399988 11.1078 0.399988 11.4469 0.749988L13.3359 2.69999Z" stroke="#00CD8F"/>
<path d="M18.2765 2.9C17.9375 3.25 17.9375 3.85 18.2765 4.2L27.2859 13.5C27.625 13.85 28.2062 13.85 28.5453 13.5L30.4344 11.55C30.7734 11.2 30.7734 10.6 30.4344 10.25L21.425 0.95C21.0859 0.6 20.5047 0.6 20.1656 0.95L18.2765 2.9Z" stroke="#00CD8F"/>
<path d="M14.4984 19.7L20.1656 25.5" stroke="#00CD8F"/>
<path d="M16.7266 17.4L22.3453 23.25" stroke="#00CD8F"/>
<path d="M18.9062 15.15L24.525 20.95" stroke="#00CD8F"/>
</svg>
