<svg width="30" height="36" viewBox="0 0 30 36" fill="none" xmlns="http://www.w3.org/2000/svg">
<g clip-path="url(#clip0_317_489)">
<path fill-rule="evenodd" clip-rule="evenodd" d="M16.161 0.463057C16.1421 0.444971 16.1228 0.42741 16.1033 0.410383C15.4541 -0.154408 14.4643 -0.136227 13.837 0.464923L13.816 0.483504C13.7865 0.509 13.7283 0.557829 13.6382 0.626779C13.458 0.76463 13.1488 0.983508 12.6842 1.2576C11.7552 1.8056 10.2006 2.57656 7.80628 3.36119C5.35698 4.16385 3.75823 4.55387 2.79813 4.74265C2.31878 4.8369 2.0021 4.88031 1.82115 4.90007C1.73083 4.90993 1.67498 4.91385 1.65018 4.91527L1.63892 4.91588C0.73125 4.93045 0 5.65837 0 6.5542V18.024C0 23.6711 3.80292 28.1835 7.23583 31.1367C8.9873 32.6433 10.7309 33.821 12.0333 34.6212C12.6863 35.0225 13.2328 35.3316 13.6198 35.5423C13.9492 35.7215 14.2627 35.8451 14.6037 35.9447C14.8618 36.0202 15.1375 36.0176 15.3955 35.9416C15.7362 35.8413 16.0505 35.7217 16.3802 35.5423C16.7672 35.3316 17.3137 35.0225 17.9667 34.6212C19.2692 33.821 21.0127 32.6433 22.7642 31.1367C26.1972 28.1835 30 23.6711 30 18.024V6.5542C30 5.65836 29.2688 4.93043 28.361 4.91588L28.3498 4.91527C28.325 4.91385 28.2692 4.90993 28.1788 4.90007C27.9978 4.88031 27.6812 4.8369 27.2018 4.74265C26.2418 4.55387 24.643 4.16385 22.1937 3.36119C19.7995 2.57656 18.2448 1.8056 17.3158 1.2576C16.8512 0.983508 16.542 0.76463 16.3618 0.626779C16.2717 0.557829 16.2135 0.509 16.1842 0.483504L16.163 0.464923C16.1623 0.464299 16.1617 0.46368 16.161 0.463057ZM16.1649 0.466615L16.163 0.464923C16.1623 0.464299 16.1617 0.46368 16.161 0.463057L16.1649 0.466615ZM15.2171 1.43672L15.2599 1.38716L14.6751 1.98201L14.6801 1.98849L15.2171 1.43672ZM14.6801 1.98849L14.6751 1.98201L14.0616 2.606C14.0645 2.60878 14.0674 2.61169 14.0705 2.61472L14.6801 1.98849ZM14.6826 1.99265L14.6899 2.00208L14.0873 2.63086C14.1054 2.64823 14.1239 2.66499 14.1427 2.68113L14.1419 2.68197C14.1401 2.68028 14.1383 2.67861 14.1365 2.67697C14.1113 2.65396 14.0898 2.63343 14.0724 2.6165L14.6826 1.99265ZM14.1439 2.68379C14.156 2.69475 14.1694 2.70671 14.1839 2.71949L14.1862 2.71694C14.1936 2.72277 14.201 2.72852 14.2085 2.73417C14.2124 2.73713 14.2164 2.74005 14.2203 2.74296C14.2355 2.75418 14.2509 2.76503 14.2665 2.77552C14.2887 2.74863 14.3838 2.6328 14.7916 2.1351C14.8565 2.05584 14.9297 1.96649 15.0114 1.8667C15.016 1.86117 15.0205 1.85561 15.0251 1.85002C15.0311 1.84275 15.0371 1.83542 15.0431 1.82804C15.0582 1.8096 15.0736 1.7908 15.0893 1.77164C15.2067 1.62826 15.3408 1.46457 15.4939 1.27769C15.5249 1.23983 15.5567 1.20102 15.5893 1.16123C15.7331 0.985609 15.8925 0.79098 16.0691 0.575285L16.0398 0.60523L16.111 0.524191C16.1147 0.51969 16.1184 0.51518 16.1221 0.510661C16.1228 0.509787 16.1235 0.508913 16.1242 0.508038L16.1183 0.513994L15.9752 0.671311L15.9228 0.724826L15.4831 1.17434L15.0848 1.58998L15.1469 1.51808L14.6826 1.99265L14.6899 2.00208L14.7082 2.02611L14.1427 2.68113C14.1427 2.68114 14.1427 2.68113 14.1427 2.68113C14.1434 2.68172 14.1441 2.68233 14.1447 2.68291L14.1439 2.68379ZM14.7238 2.04651L14.7475 2.07747L14.1862 2.71694C14.1722 2.70592 14.1584 2.69458 14.1447 2.68291L14.7238 2.04651ZM14.7082 2.02611L15.0848 1.58998L14.6899 2.00208L14.7082 2.02611ZM14.7238 2.04651L14.7475 2.07747L16.0398 0.60523L15.9752 0.671311L14.7238 2.04651ZM15 3.34127C14.78 3.49104 14.5175 3.65918 14.2084 3.84155C13.0775 4.50865 11.3227 5.36579 8.74053 6.21201C6.20103 7.04423 4.48168 7.46907 3.37692 7.68629C3.24246 7.71273 3.11693 7.73612 3 7.75682V18.024C3 22.3097 5.93074 26.0567 9.19224 28.8624C10.7904 30.2372 12.3954 31.3226 13.6039 32.0652C14.1757 32.4166 14.6558 32.6893 15 32.8778C15.3442 32.6893 15.8241 32.4167 16.396 32.0653C17.6044 31.3228 19.2095 30.2372 20.8078 28.8624C24.0693 26.0567 27 22.3097 27 18.024V7.75683C26.883 7.73613 26.7575 7.71273 26.623 7.68629C25.5184 7.46908 23.799 7.04424 21.2594 6.21202C18.6774 5.36581 16.9225 4.50866 15.7916 3.84155C15.4825 3.65918 15.2199 3.49104 15 3.34127Z" fill="white"/>
<path fill-rule="evenodd" clip-rule="evenodd" d="M24.6044 11.2577C25.165 11.8676 25.125 12.8165 24.5151 13.3771L12.5124 24.409L6.37911 17.5119C5.8286 16.8929 5.88418 15.9448 6.50324 15.3943C7.12229 14.8438 8.07042 14.8993 8.62092 15.5184L12.7276 20.1365L22.485 11.1684C23.0949 10.6078 24.0438 10.6478 24.6044 11.2577Z" fill="white"/>
</g>
<defs>
<clipPath id="clip0_317_489">
<rect width="30" height="36" fill="white"/>
</clipPath>
</defs>
</svg>
