<svg width="22" height="32" viewBox="0 0 22 32" fill="none" xmlns="http://www.w3.org/2000/svg">
<path d="M17.7969 12.375V7.84375C17.7885 6.15858 17.0687 4.5451 15.795 3.35626C14.5212 2.16742 12.7972 1.5 11 1.5C9.20281 1.5 7.47876 2.16742 6.20501 3.35626C4.93125 4.5451 4.21147 6.15858 4.20312 7.84375V12.375M10.5469 25.9688V23.25M13.2656 20.9844C13.2656 22.2356 12.2513 23.25 11 23.25C9.74873 23.25 8.73438 22.2356 8.73438 20.9844C8.73438 19.7331 9.74873 18.7188 11 18.7188C12.2513 18.7188 13.2656 19.7331 13.2656 20.9844ZM6.736 11.4688H15.264C18.1644 11.4688 20.5156 13.82 20.5156 16.7204V25.2484C20.5156 28.1488 18.1644 30.5 15.264 30.5H6.736C3.83561 30.5 1.48438 28.1488 1.48438 25.2484V16.7204C1.48438 13.82 3.83561 11.4688 6.736 11.4688Z" stroke="#0066FF" stroke-width="1.5" stroke-linecap="round" stroke-linejoin="round"/>
</svg>
