<svg width="126" height="89" viewBox="0 0 126 89" fill="none" xmlns="http://www.w3.org/2000/svg">
<path d="M0 20C0 8.95431 8.95431 0 20 0H106C117.046 0 126 8.95431 126 20V69C126 80.0457 117.046 89 106 89H20C8.9543 89 0 80.0457 0 69V20Z" fill="white"/>
<path d="M23.0409 58.0526L12 68.3684V75H111V26L96.2788 53.6316L79.3494 41.8421L71.2528 58.0526L49.171 45.5263L38.4981 62.4737L23.0409 58.0526Z" fill="url(#paint0_linear_271_136)"/>
<path d="M13 68L23.1575 58.6027C23.6691 58.1294 24.3901 57.9565 25.0607 58.1465L37.9215 61.7888C38.772 62.0297 39.6797 61.6837 40.1541 60.9378L48.9536 47.1022C49.5236 46.206 50.6947 45.9116 51.6207 46.4317L70.1088 56.8165C71.1023 57.3746 72.3607 56.991 72.8739 55.9735L78.952 43.9239C79.4982 42.841 80.8746 42.4896 81.873 43.1781L94.9239 52.1775C95.926 52.8684 97.3078 52.5116 97.8499 51.4218L110 27" stroke="url(#paint1_linear_271_136)" stroke-width="3" stroke-linecap="round"/>
<path opacity="0.5" d="M15.6865 25.2783H16.6709C17.0537 25.2783 17.3704 25.2122 17.6211 25.0801C17.8763 24.9479 18.0654 24.7656 18.1885 24.5332C18.3115 24.3008 18.373 24.0342 18.373 23.7334C18.373 23.4189 18.3161 23.1501 18.2021 22.9268C18.0928 22.6989 17.9242 22.5234 17.6963 22.4004C17.473 22.2773 17.1882 22.2158 16.8418 22.2158C16.5501 22.2158 16.2858 22.2751 16.0488 22.3936C15.8164 22.5075 15.6318 22.6715 15.4951 22.8857C15.3584 23.0954 15.29 23.346 15.29 23.6377H13.6357C13.6357 23.109 13.7747 22.6396 14.0527 22.2295C14.3307 21.8193 14.709 21.498 15.1875 21.2656C15.6706 21.0286 16.2129 20.9102 16.8145 20.9102C17.457 20.9102 18.0176 21.0173 18.4961 21.2314C18.9792 21.4411 19.3551 21.7555 19.624 22.1748C19.8929 22.5941 20.0273 23.1136 20.0273 23.7334C20.0273 24.016 19.9613 24.3031 19.8291 24.5947C19.6969 24.8864 19.501 25.153 19.2412 25.3945C18.9814 25.6315 18.6579 25.8252 18.2705 25.9756C17.8831 26.1214 17.4342 26.1943 16.9238 26.1943H15.6865V25.2783ZM15.6865 26.5635V25.6611H16.9238C17.5072 25.6611 18.0039 25.7295 18.4141 25.8662C18.8288 26.0029 19.166 26.1921 19.4258 26.4336C19.6855 26.6706 19.8747 26.9417 19.9932 27.2471C20.1162 27.5524 20.1777 27.876 20.1777 28.2178C20.1777 28.6826 20.0934 29.0973 19.9248 29.4619C19.7607 29.8219 19.526 30.1273 19.2207 30.3779C18.9154 30.6286 18.5576 30.8177 18.1475 30.9453C17.7419 31.0729 17.2998 31.1367 16.8213 31.1367C16.3929 31.1367 15.9827 31.0775 15.5908 30.959C15.1989 30.8405 14.848 30.665 14.5381 30.4326C14.2282 30.1956 13.9821 29.9017 13.7998 29.5508C13.6221 29.1953 13.5332 28.7852 13.5332 28.3203H15.1807C15.1807 28.6165 15.249 28.8786 15.3857 29.1064C15.527 29.3298 15.723 29.5052 15.9736 29.6328C16.2288 29.7604 16.5205 29.8242 16.8486 29.8242C17.195 29.8242 17.4935 29.7627 17.7441 29.6396C17.9948 29.5166 18.1862 29.3343 18.3184 29.0928C18.4551 28.8512 18.5234 28.5596 18.5234 28.2178C18.5234 27.8304 18.4482 27.516 18.2979 27.2744C18.1475 27.0329 17.9333 26.8551 17.6553 26.7412C17.3773 26.6227 17.0492 26.5635 16.6709 26.5635H15.6865ZM28.1963 25.1895V26.8164C28.1963 27.5957 28.1188 28.2611 27.9639 28.8125C27.8135 29.3594 27.5947 29.8037 27.3076 30.1455C27.0205 30.4873 26.6764 30.738 26.2754 30.8975C25.8789 31.057 25.4346 31.1367 24.9424 31.1367C24.5505 31.1367 24.1859 31.0866 23.8486 30.9863C23.516 30.8861 23.2152 30.7288 22.9463 30.5146C22.6774 30.3005 22.4473 30.0247 22.2559 29.6875C22.069 29.3457 21.9232 28.9378 21.8184 28.4639C21.7181 27.9899 21.668 27.4408 21.668 26.8164V25.1895C21.668 24.4056 21.7454 23.7448 21.9004 23.207C22.0553 22.6647 22.2764 22.2249 22.5635 21.8877C22.8506 21.5459 23.1924 21.2975 23.5889 21.1426C23.9899 20.9876 24.4365 20.9102 24.9287 20.9102C25.3252 20.9102 25.6898 20.9603 26.0225 21.0605C26.3597 21.1562 26.6605 21.3089 26.9248 21.5186C27.1937 21.7282 27.4215 22.0016 27.6084 22.3389C27.7998 22.6715 27.9456 23.0749 28.0459 23.5488C28.1462 24.0182 28.1963 24.5651 28.1963 25.1895ZM26.5488 27.0488V24.9434C26.5488 24.5469 26.526 24.1982 26.4805 23.8975C26.4349 23.5921 26.3665 23.3346 26.2754 23.125C26.1888 22.9108 26.0794 22.7376 25.9473 22.6055C25.8151 22.4688 25.6647 22.3708 25.4961 22.3115C25.3275 22.2477 25.1383 22.2158 24.9287 22.2158C24.6735 22.2158 24.4456 22.266 24.2451 22.3662C24.0446 22.4619 23.876 22.6169 23.7393 22.8311C23.6025 23.0452 23.4977 23.3278 23.4248 23.6787C23.3564 24.0251 23.3223 24.4466 23.3223 24.9434V27.0488C23.3223 27.4499 23.3451 27.8031 23.3906 28.1084C23.4362 28.4137 23.5046 28.6758 23.5957 28.8945C23.6868 29.1087 23.7962 29.2865 23.9238 29.4277C24.056 29.5645 24.2064 29.6647 24.375 29.7285C24.5482 29.7923 24.7373 29.8242 24.9424 29.8242C25.2021 29.8242 25.4323 29.7741 25.6328 29.6738C25.8333 29.5736 26.002 29.4141 26.1387 29.1953C26.2754 28.972 26.3779 28.6826 26.4463 28.3271C26.5146 27.9717 26.5488 27.5456 26.5488 27.0488ZM36.1533 25.1895V26.8164C36.1533 27.5957 36.0758 28.2611 35.9209 28.8125C35.7705 29.3594 35.5518 29.8037 35.2646 30.1455C34.9775 30.4873 34.6335 30.738 34.2324 30.8975C33.8359 31.057 33.3916 31.1367 32.8994 31.1367C32.5075 31.1367 32.1429 31.0866 31.8057 30.9863C31.473 30.8861 31.1722 30.7288 30.9033 30.5146C30.6344 30.3005 30.4043 30.0247 30.2129 29.6875C30.026 29.3457 29.8802 28.9378 29.7754 28.4639C29.6751 27.9899 29.625 27.4408 29.625 26.8164V25.1895C29.625 24.4056 29.7025 23.7448 29.8574 23.207C30.0124 22.6647 30.2334 22.2249 30.5205 21.8877C30.8076 21.5459 31.1494 21.2975 31.5459 21.1426C31.9469 20.9876 32.3936 20.9102 32.8857 20.9102C33.2822 20.9102 33.6468 20.9603 33.9795 21.0605C34.3167 21.1562 34.6175 21.3089 34.8818 21.5186C35.1507 21.7282 35.3786 22.0016 35.5654 22.3389C35.7568 22.6715 35.9027 23.0749 36.0029 23.5488C36.1032 24.0182 36.1533 24.5651 36.1533 25.1895ZM34.5059 27.0488V24.9434C34.5059 24.5469 34.4831 24.1982 34.4375 23.8975C34.3919 23.5921 34.3236 23.3346 34.2324 23.125C34.1458 22.9108 34.0365 22.7376 33.9043 22.6055C33.7721 22.4688 33.6217 22.3708 33.4531 22.3115C33.2845 22.2477 33.0954 22.2158 32.8857 22.2158C32.6305 22.2158 32.4027 22.266 32.2021 22.3662C32.0016 22.4619 31.833 22.6169 31.6963 22.8311C31.5596 23.0452 31.4548 23.3278 31.3818 23.6787C31.3135 24.0251 31.2793 24.4466 31.2793 24.9434V27.0488C31.2793 27.4499 31.3021 27.8031 31.3477 28.1084C31.3932 28.4137 31.4616 28.6758 31.5527 28.8945C31.6439 29.1087 31.7533 29.2865 31.8809 29.4277C32.013 29.5645 32.1634 29.6647 32.332 29.7285C32.5052 29.7923 32.6943 29.8242 32.8994 29.8242C33.1592 29.8242 33.3893 29.7741 33.5898 29.6738C33.7904 29.5736 33.959 29.4141 34.0957 29.1953C34.2324 28.972 34.335 28.6826 34.4033 28.3271C34.4717 27.9717 34.5059 27.5456 34.5059 27.0488ZM44.2949 29.6875V31H37.623V29.8721L40.8633 26.3379C41.2188 25.9368 41.499 25.5905 41.7041 25.2988C41.9092 25.0072 42.0527 24.7451 42.1348 24.5127C42.2214 24.2757 42.2646 24.0456 42.2646 23.8223C42.2646 23.5078 42.2054 23.2321 42.0869 22.9951C41.973 22.7536 41.8044 22.5645 41.5811 22.4277C41.3577 22.2865 41.0866 22.2158 40.7676 22.2158C40.3984 22.2158 40.0885 22.2956 39.8379 22.4551C39.5872 22.6146 39.3981 22.8356 39.2705 23.1182C39.1429 23.3962 39.0791 23.7152 39.0791 24.0752H37.4316C37.4316 23.4964 37.5638 22.9678 37.8281 22.4893C38.0924 22.0062 38.4753 21.6234 38.9766 21.3408C39.4779 21.0537 40.0817 20.9102 40.7881 20.9102C41.4535 20.9102 42.0186 21.0218 42.4834 21.2451C42.9482 21.4684 43.3014 21.7852 43.543 22.1953C43.7891 22.6055 43.9121 23.0908 43.9121 23.6514C43.9121 23.9613 43.862 24.2689 43.7617 24.5742C43.6615 24.8796 43.5179 25.1849 43.3311 25.4902C43.1488 25.791 42.9323 26.0941 42.6816 26.3994C42.431 26.7002 42.1553 27.0055 41.8545 27.3154L39.7012 29.6875H44.2949ZM47.5146 25.2783H48.499C48.8818 25.2783 49.1986 25.2122 49.4492 25.0801C49.7044 24.9479 49.8936 24.7656 50.0166 24.5332C50.1396 24.3008 50.2012 24.0342 50.2012 23.7334C50.2012 23.4189 50.1442 23.1501 50.0303 22.9268C49.9209 22.6989 49.7523 22.5234 49.5244 22.4004C49.3011 22.2773 49.0163 22.2158 48.6699 22.2158C48.3783 22.2158 48.1139 22.2751 47.877 22.3936C47.6445 22.5075 47.46 22.6715 47.3232 22.8857C47.1865 23.0954 47.1182 23.346 47.1182 23.6377H45.4639C45.4639 23.109 45.6029 22.6396 45.8809 22.2295C46.1589 21.8193 46.5371 21.498 47.0156 21.2656C47.4987 21.0286 48.041 20.9102 48.6426 20.9102C49.2852 20.9102 49.8457 21.0173 50.3242 21.2314C50.8073 21.4411 51.1833 21.7555 51.4521 22.1748C51.721 22.5941 51.8555 23.1136 51.8555 23.7334C51.8555 24.016 51.7894 24.3031 51.6572 24.5947C51.5251 24.8864 51.3291 25.153 51.0693 25.3945C50.8096 25.6315 50.486 25.8252 50.0986 25.9756C49.7113 26.1214 49.2624 26.1943 48.752 26.1943H47.5146V25.2783ZM47.5146 26.5635V25.6611H48.752C49.3353 25.6611 49.832 25.7295 50.2422 25.8662C50.6569 26.0029 50.9941 26.1921 51.2539 26.4336C51.5137 26.6706 51.7028 26.9417 51.8213 27.2471C51.9443 27.5524 52.0059 27.876 52.0059 28.2178C52.0059 28.6826 51.9215 29.0973 51.7529 29.4619C51.5889 29.8219 51.3542 30.1273 51.0488 30.3779C50.7435 30.6286 50.3857 30.8177 49.9756 30.9453C49.57 31.0729 49.1279 31.1367 48.6494 31.1367C48.221 31.1367 47.8109 31.0775 47.4189 30.959C47.027 30.8405 46.6761 30.665 46.3662 30.4326C46.0563 30.1956 45.8102 29.9017 45.6279 29.5508C45.4502 29.1953 45.3613 28.7852 45.3613 28.3203H47.0088C47.0088 28.6165 47.0771 28.8786 47.2139 29.1064C47.3551 29.3298 47.5511 29.5052 47.8018 29.6328C48.057 29.7604 48.3486 29.8242 48.6768 29.8242C49.0231 29.8242 49.3216 29.7627 49.5723 29.6396C49.8229 29.5166 50.0143 29.3343 50.1465 29.0928C50.2832 28.8512 50.3516 28.5596 50.3516 28.2178C50.3516 27.8304 50.2764 27.516 50.126 27.2744C49.9756 27.0329 49.7614 26.8551 49.4834 26.7412C49.2054 26.6227 48.8773 26.5635 48.499 26.5635H47.5146Z" fill="black"/>
<path d="M60.5 29V21M60.5 21L57 23.4M60.5 21L64 23.4" stroke="#B8B8B8" stroke-width="2" stroke-linecap="round"/>
<defs>
<linearGradient id="paint0_linear_271_136" x1="60.7639" y1="26.7368" x2="60.7639" y2="75" gradientUnits="userSpaceOnUse">
<stop stop-color="#FF5DA1"/>
<stop offset="1" stop-color="white"/>
</linearGradient>
<linearGradient id="paint1_linear_271_136" x1="121.347" y1="27.3628" x2="19.8025" y2="64.9494" gradientUnits="userSpaceOnUse">
<stop stop-color="#D91981"/>
<stop offset="1" stop-color="#46B1FF"/>
</linearGradient>
</defs>
</svg>
