<svg width="36" height="36" viewBox="0 0 36 36" fill="none" xmlns="http://www.w3.org/2000/svg">
<g clip-path="url(#clip0_411_70)">
<path d="M33.1711 12.6669C33.365 13.184 33.9414 13.446 34.4585 13.252C34.9757 13.0581 35.2377 12.4817 35.0437 11.9646L33.1711 12.6669ZM0.0575257 15.9956C-0.00319035 16.5445 0.392591 17.0388 0.941528 17.0995C1.49047 17.1602 1.98469 16.7644 2.0454 16.2155L0.0575257 15.9956ZM35.9403 20.0149C36.0013 19.466 35.6057 18.9716 35.0568 18.9107C34.5079 18.8497 34.0135 19.2453 33.9526 19.7942L35.9403 20.0149ZM2.83102 23.3341C2.6371 22.8169 2.06069 22.5549 1.54357 22.7489C1.02645 22.9428 0.764448 23.5192 0.958372 24.0363L2.83102 23.3341ZM36.0548 6.63113C36.0548 6.07884 35.6071 5.63113 35.0548 5.63113C34.5026 5.63113 34.0548 6.07884 34.0548 6.63113H36.0548ZM35.0548 12.3157V13.3157C35.6071 13.3157 36.0548 12.868 36.0548 12.3157H35.0548ZM29.3702 11.3157C28.818 11.3157 28.3702 11.7634 28.3702 12.3157C28.3702 12.868 28.818 13.3157 29.3702 13.3157V11.3157ZM-0.0527344 29.3696C-0.0527344 29.9219 0.394981 30.3696 0.947266 30.3696C1.49955 30.3696 1.94727 29.9219 1.94727 29.3696H-0.0527344ZM0.947266 23.685V22.685C0.394981 22.685 -0.0527344 23.1327 -0.0527344 23.685H0.947266ZM6.63186 24.685C7.18415 24.685 7.63186 24.2373 7.63186 23.685C7.63186 23.1327 7.18415 22.685 6.63186 22.685V24.685ZM9.42159 24.9874C9.42159 25.5397 9.86931 25.9874 10.4216 25.9874C10.9739 25.9874 11.4216 25.5397 11.4216 24.9874H9.42159ZM11.4216 19.3028C11.4216 18.7505 10.9739 18.3028 10.4216 18.3028C9.86931 18.3028 9.42159 18.7505 9.42159 19.3028H11.4216ZM13.2113 24.9874C13.2113 25.5397 13.659 25.9874 14.2113 25.9874C14.7636 25.9874 15.2113 25.5397 15.2113 24.9874H13.2113ZM15.2113 14.5657C15.2113 14.0134 14.7636 13.5657 14.2113 13.5657C13.659 13.5657 13.2113 14.0134 13.2113 14.5657H15.2113ZM17.9485 24.9874C17.9485 25.5397 18.3962 25.9874 18.9485 25.9874C19.5008 25.9874 19.9485 25.5397 19.9485 24.9874H17.9485ZM19.9485 17.408C19.9485 16.8557 19.5008 16.408 18.9485 16.408C18.3962 16.408 17.9485 16.8557 17.9485 17.408H19.9485ZM22.6856 24.9874C22.6856 25.5397 23.1334 25.9874 23.6856 25.9874C24.2379 25.9874 24.6856 25.5397 24.6856 24.9874H22.6856ZM24.6856 12.3155C24.6856 11.7632 24.2379 11.3155 23.6856 11.3155C23.1334 11.3155 22.6856 11.7632 22.6856 12.3155H24.6856ZM8.79512 14.4237C8.38969 14.7987 8.36504 15.4314 8.74006 15.8368C9.11508 16.2423 9.74777 16.2669 10.1532 15.8919L8.79512 14.4237ZM14.2113 10.7759L14.6762 9.89053L14.0508 9.56221L13.5323 10.0418L14.2113 10.7759ZM18.9485 13.2629L18.4837 14.1483L19.1993 14.524L19.7167 13.9031L18.9485 13.2629ZM24.4539 8.21852C24.8074 7.79425 24.7501 7.16368 24.3258 6.81012C23.9016 6.45655 23.271 6.51388 22.9174 6.93815L24.4539 8.21852ZM35.0437 11.9646C32.0456 3.96985 25.0855 -0.0512695 17.9993 -0.0512695V1.94873C24.3072 1.94873 30.4846 5.50335 33.1711 12.6669L35.0437 11.9646ZM17.9993 -0.0512695C8.70716 -0.0512695 1.05594 6.96889 0.0575257 15.9956L2.0454 16.2155C2.93299 8.19077 9.73796 1.94873 17.9993 1.94873V-0.0512695ZM33.9526 19.7942C33.0619 27.8155 26.2585 34.054 17.9993 34.054V36.054C27.289 36.054 34.9384 29.0379 35.9403 20.0149L33.9526 19.7942ZM17.9993 34.054C11.6963 34.054 5.51754 30.4979 2.83102 23.3341L0.958372 24.0363C3.95645 32.031 10.9175 36.054 17.9993 36.054V34.054ZM34.0548 6.63113V12.3157H36.0548V6.63113H34.0548ZM35.0548 11.3157H29.3702V13.3157H35.0548V11.3157ZM1.94727 29.3696V23.685H-0.0527344V29.3696H1.94727ZM0.947266 24.685H6.63186V22.685H0.947266V24.685ZM11.4216 24.9874V19.3028H9.42159V24.9874H11.4216ZM15.2113 24.9874V14.5657H13.2113V24.9874H15.2113ZM19.9485 24.9874V17.408H17.9485V24.9874H19.9485ZM24.6856 24.9874V12.3155H22.6856V24.9874H24.6856ZM10.1532 15.8919L14.8904 11.51L13.5323 10.0418L8.79512 14.4237L10.1532 15.8919ZM13.7465 11.6613L18.4837 14.1483L19.4133 12.3775L14.6762 9.89053L13.7465 11.6613ZM19.7167 13.9031L24.4539 8.21852L22.9174 6.93815L18.1803 12.6228L19.7167 13.9031Z" fill="#1677FF"/>
</g>
<defs>
<clipPath id="clip0_411_70">
<rect width="36" height="36" fill="white"/>
</clipPath>
</defs>
</svg>
