<svg width="178" height="164" viewBox="0 0 178 164" fill="none" xmlns="http://www.w3.org/2000/svg">
<rect width="178" height="163.98" rx="20" fill="white"/>
<path d="M150.893 27.0312C150.893 26.8594 150.85 26.6895 150.764 26.5215C150.678 26.3535 150.512 26.1992 150.266 26.0586C150.023 25.918 149.666 25.7988 149.193 25.7012C148.842 25.623 148.527 25.5352 148.25 25.4375C147.977 25.3398 147.746 25.2227 147.559 25.0859C147.371 24.9492 147.229 24.7852 147.131 24.5938C147.033 24.4023 146.984 24.1758 146.984 23.9141C146.984 23.6797 147.035 23.459 147.137 23.252C147.242 23.041 147.391 22.8574 147.582 22.7012C147.777 22.541 148.012 22.416 148.285 22.3262C148.562 22.2363 148.873 22.1914 149.217 22.1914C149.705 22.1914 150.123 22.2754 150.471 22.4434C150.822 22.6074 151.09 22.832 151.273 23.1172C151.461 23.4023 151.555 23.7246 151.555 24.084H150.857C150.857 23.8652 150.793 23.6582 150.664 23.4629C150.539 23.2676 150.354 23.1074 150.107 22.9824C149.865 22.8574 149.568 22.7949 149.217 22.7949C148.854 22.7949 148.559 22.8496 148.332 22.959C148.105 23.0684 147.939 23.207 147.834 23.375C147.732 23.543 147.682 23.7168 147.682 23.8965C147.682 24.0371 147.703 24.166 147.746 24.2832C147.793 24.3965 147.875 24.502 147.992 24.5996C148.113 24.6973 148.285 24.7891 148.508 24.875C148.73 24.9609 149.02 25.0449 149.375 25.127C149.887 25.2402 150.305 25.3789 150.629 25.543C150.957 25.7031 151.199 25.9023 151.355 26.1406C151.512 26.375 151.59 26.6602 151.59 26.9961C151.59 27.2578 151.535 27.498 151.426 27.7168C151.316 27.9316 151.158 28.1172 150.951 28.2734C150.748 28.4297 150.502 28.5508 150.213 28.6367C149.928 28.7227 149.607 28.7656 149.252 28.7656C148.717 28.7656 148.264 28.6777 147.893 28.502C147.525 28.3223 147.246 28.0879 147.055 27.7988C146.867 27.5059 146.773 27.1953 146.773 26.8672H147.471C147.494 27.1953 147.598 27.4551 147.781 27.6465C147.965 27.834 148.189 27.9668 148.455 28.0449C148.725 28.123 148.99 28.1621 149.252 28.1621C149.611 28.1621 149.912 28.1094 150.154 28.0039C150.396 27.8984 150.58 27.7598 150.705 27.5879C150.83 27.416 150.893 27.2305 150.893 27.0312Z" fill="black"/>
<path d="M144.559 27.1836V22.3086H145.262V28.6484H144.588L144.559 27.1836ZM144.688 26.0117L145.051 26C145.051 26.3984 145.004 26.7656 144.91 27.1016C144.816 27.4375 144.67 27.7305 144.471 27.9805C144.271 28.2305 144.014 28.4238 143.697 28.5605C143.381 28.6973 143 28.7656 142.555 28.7656C142.246 28.7656 141.963 28.7227 141.705 28.6367C141.451 28.5469 141.232 28.4062 141.049 28.2148C140.865 28.0234 140.723 27.7754 140.621 27.4707C140.523 27.166 140.475 26.7969 140.475 26.3633V22.3086H141.172V26.375C141.172 26.7148 141.209 26.998 141.283 27.2246C141.361 27.4512 141.467 27.6328 141.6 27.7695C141.736 27.9062 141.893 28.0039 142.068 28.0625C142.244 28.1211 142.434 28.1504 142.637 28.1504C143.152 28.1504 143.559 28.0508 143.855 27.8516C144.156 27.6523 144.369 27.3906 144.494 27.0664C144.623 26.7383 144.688 26.3867 144.688 26.0117Z" fill="black"/>
<path d="M139.027 22.3086V22.8828H135.852V22.3086H139.027ZM137.018 20.6797H137.715V27.1074C137.715 27.4004 137.754 27.6211 137.832 27.7695C137.91 27.918 138.012 28.0176 138.137 28.0684C138.262 28.1191 138.396 28.1445 138.541 28.1445C138.646 28.1445 138.748 28.1387 138.846 28.127C138.943 28.1113 139.031 28.0957 139.109 28.0801L139.139 28.6719C139.053 28.6992 138.941 28.7207 138.805 28.7363C138.668 28.7559 138.531 28.7656 138.395 28.7656C138.125 28.7656 137.887 28.7168 137.68 28.6191C137.473 28.5176 137.311 28.3457 137.193 28.1035C137.076 27.8574 137.018 27.5234 137.018 27.1016V20.6797Z" fill="black"/>
<path d="M134.053 27.5117V24.2422C134.053 23.9414 133.99 23.6816 133.865 23.4629C133.74 23.2441 133.557 23.0762 133.314 22.959C133.072 22.8418 132.773 22.7832 132.418 22.7832C132.09 22.7832 131.797 22.8418 131.539 22.959C131.285 23.0723 131.084 23.2266 130.936 23.4219C130.791 23.6133 130.719 23.8262 130.719 24.0605L130.016 24.0547C130.016 23.8164 130.074 23.5859 130.191 23.3633C130.309 23.1406 130.475 22.9414 130.689 22.7656C130.904 22.5898 131.16 22.4512 131.457 22.3496C131.758 22.2441 132.088 22.1914 132.447 22.1914C132.9 22.1914 133.299 22.2676 133.643 22.4199C133.99 22.5723 134.262 22.8008 134.457 23.1055C134.652 23.4102 134.75 23.793 134.75 24.2539V27.3184C134.75 27.5371 134.766 27.7637 134.797 27.998C134.832 28.2324 134.881 28.4258 134.943 28.5781V28.6484H134.199C134.152 28.5078 134.115 28.332 134.088 28.1211C134.064 27.9062 134.053 27.7031 134.053 27.5117ZM134.217 24.957L134.229 25.4961H132.852C132.492 25.4961 132.17 25.5293 131.885 25.5957C131.604 25.6582 131.365 25.752 131.17 25.877C130.975 25.998 130.824 26.1445 130.719 26.3164C130.617 26.4883 130.566 26.6836 130.566 26.9023C130.566 27.1289 130.623 27.3359 130.736 27.5234C130.854 27.7109 131.018 27.8613 131.229 27.9746C131.443 28.084 131.697 28.1387 131.99 28.1387C132.381 28.1387 132.725 28.0664 133.021 27.9219C133.322 27.7773 133.57 27.5879 133.766 27.3535C133.961 27.1191 134.092 26.8633 134.158 26.5859L134.463 26.9902C134.412 27.1855 134.318 27.3867 134.182 27.5938C134.049 27.7969 133.875 27.9883 133.66 28.168C133.445 28.3438 133.191 28.4883 132.898 28.6016C132.609 28.7109 132.281 28.7656 131.914 28.7656C131.5 28.7656 131.139 28.6875 130.83 28.5312C130.525 28.375 130.287 28.1621 130.115 27.8926C129.947 27.6191 129.863 27.3105 129.863 26.9668C129.863 26.6543 129.93 26.375 130.062 26.1289C130.195 25.8789 130.387 25.668 130.637 25.4961C130.891 25.3203 131.195 25.1875 131.551 25.0977C131.91 25.0039 132.312 24.957 132.758 24.957H134.217Z" fill="black"/>
<path d="M128.727 22.3086V22.8828H125.551V22.3086H128.727ZM126.717 20.6797H127.414V27.1074C127.414 27.4004 127.453 27.6211 127.531 27.7695C127.609 27.918 127.711 28.0176 127.836 28.0684C127.961 28.1191 128.096 28.1445 128.24 28.1445C128.346 28.1445 128.447 28.1387 128.545 28.127C128.643 28.1113 128.73 28.0957 128.809 28.0801L128.838 28.6719C128.752 28.6992 128.641 28.7207 128.504 28.7363C128.367 28.7559 128.23 28.7656 128.094 28.7656C127.824 28.7656 127.586 28.7168 127.379 28.6191C127.172 28.5176 127.01 28.3457 126.893 28.1035C126.775 27.8574 126.717 27.5234 126.717 27.1016V20.6797Z" fill="black"/>
<path d="M124.209 26.5508C124.209 26.3164 124.17 26.1074 124.092 25.9238C124.014 25.7402 123.885 25.5762 123.705 25.4316C123.529 25.2832 123.291 25.1465 122.99 25.0215C122.693 24.8926 122.322 24.7656 121.877 24.6406C121.451 24.5195 121.066 24.3867 120.723 24.2422C120.379 24.0977 120.084 23.9316 119.838 23.7441C119.596 23.5566 119.41 23.3379 119.281 23.0879C119.152 22.834 119.088 22.5391 119.088 22.2031C119.088 21.875 119.158 21.5762 119.299 21.3066C119.439 21.0371 119.637 20.8047 119.891 20.6094C120.148 20.4141 120.451 20.2637 120.799 20.1582C121.15 20.0527 121.535 20 121.953 20C122.551 20 123.066 20.1133 123.5 20.3398C123.938 20.5664 124.275 20.873 124.514 21.2598C124.756 21.6426 124.877 22.0723 124.877 22.5488H124.156C124.156 22.1777 124.068 21.8477 123.893 21.5586C123.721 21.2656 123.471 21.0371 123.143 20.873C122.818 20.7051 122.422 20.6211 121.953 20.6211C121.484 20.6211 121.09 20.6934 120.77 20.8379C120.453 20.9785 120.213 21.168 120.049 21.4062C119.889 21.6406 119.809 21.9023 119.809 22.1914C119.809 22.3945 119.848 22.582 119.926 22.7539C120.004 22.9219 120.131 23.0801 120.307 23.2285C120.486 23.373 120.723 23.5098 121.016 23.6387C121.309 23.7637 121.67 23.8828 122.1 23.9961C122.553 24.1211 122.955 24.2598 123.307 24.4121C123.658 24.5645 123.955 24.7402 124.197 24.9395C124.439 25.1348 124.623 25.3633 124.748 25.625C124.873 25.8867 124.936 26.1914 124.936 26.5391C124.936 26.8867 124.861 27.1992 124.713 27.4766C124.568 27.75 124.363 27.9824 124.098 28.1738C123.836 28.3652 123.525 28.5117 123.166 28.6133C122.811 28.7148 122.422 28.7656 122 28.7656C121.621 28.7656 121.244 28.7168 120.869 28.6191C120.494 28.5215 120.15 28.3711 119.838 28.168C119.529 27.9609 119.281 27.6953 119.094 27.3711C118.91 27.0469 118.818 26.6602 118.818 26.2109H119.533C119.533 26.5703 119.605 26.873 119.75 27.1191C119.895 27.3652 120.086 27.5645 120.324 27.7168C120.566 27.8691 120.832 27.9805 121.121 28.0508C121.414 28.1172 121.707 28.1504 122 28.1504C122.449 28.1504 122.838 28.084 123.166 27.9512C123.498 27.8184 123.754 27.6328 123.934 27.3945C124.117 27.1523 124.209 26.8711 124.209 26.5508Z" fill="black"/>
<path d="M113.803 22.3086H114.453V28.5371C114.453 29.0879 114.348 29.5605 114.137 29.9551C113.93 30.3496 113.635 30.6523 113.252 30.8633C112.873 31.0742 112.426 31.1797 111.91 31.1797C111.648 31.1797 111.379 31.1387 111.102 31.0566C110.828 30.9785 110.568 30.8574 110.322 30.6934C110.08 30.5332 109.873 30.334 109.701 30.0957L110.094 29.668C110.352 29.9805 110.627 30.209 110.92 30.3535C111.213 30.502 111.529 30.5762 111.869 30.5762C112.271 30.5762 112.611 30.4961 112.889 30.3359C113.17 30.1758 113.383 29.9453 113.527 29.6445C113.676 29.3438 113.75 28.9824 113.75 28.5605V23.7031L113.803 22.3086ZM109.35 25.543V25.4199C109.35 24.9277 109.404 24.4844 109.514 24.0898C109.627 23.6914 109.789 23.3516 110 23.0703C110.211 22.7852 110.467 22.5684 110.768 22.4199C111.072 22.2676 111.416 22.1914 111.799 22.1914C112.166 22.1914 112.492 22.252 112.777 22.373C113.062 22.4941 113.309 22.668 113.516 22.8945C113.723 23.1211 113.889 23.3906 114.014 23.7031C114.143 24.0156 114.236 24.3633 114.295 24.7461V26.3105C114.248 26.6699 114.162 27 114.037 27.3008C113.912 27.5977 113.746 27.8574 113.539 28.0801C113.332 28.2988 113.082 28.4688 112.789 28.5898C112.5 28.707 112.166 28.7656 111.787 28.7656C111.408 28.7656 111.068 28.6875 110.768 28.5312C110.467 28.375 110.211 28.1543 110 27.8691C109.789 27.5801 109.627 27.2383 109.514 26.8438C109.404 26.4492 109.35 26.0156 109.35 25.543ZM110.053 25.4199V25.543C110.053 25.9141 110.09 26.2578 110.164 26.5742C110.238 26.8906 110.352 27.166 110.504 27.4004C110.656 27.6348 110.85 27.8184 111.084 27.9512C111.318 28.084 111.594 28.1504 111.91 28.1504C112.312 28.1504 112.65 28.0742 112.924 27.9219C113.197 27.7656 113.414 27.5605 113.574 27.3066C113.734 27.0488 113.852 26.7676 113.926 26.4629V24.6406C113.883 24.4336 113.816 24.2227 113.727 24.0078C113.641 23.793 113.52 23.5957 113.363 23.416C113.211 23.2324 113.016 23.0859 112.777 22.9766C112.543 22.8633 112.258 22.8066 111.922 22.8066C111.602 22.8066 111.322 22.873 111.084 23.0059C110.85 23.1387 110.656 23.3242 110.504 23.5625C110.352 23.7969 110.238 24.0723 110.164 24.3887C110.09 24.7051 110.053 25.0488 110.053 25.4199Z" fill="black"/>
<path d="M103.73 23.6621V28.6484H103.033V22.3086H103.701L103.73 23.6621ZM103.572 25.0859L103.262 24.9102C103.285 24.5352 103.361 24.1836 103.49 23.8555C103.619 23.5273 103.793 23.2383 104.012 22.9883C104.234 22.7383 104.494 22.543 104.791 22.4023C105.092 22.2617 105.424 22.1914 105.787 22.1914C106.104 22.1914 106.387 22.2344 106.637 22.3203C106.887 22.4062 107.1 22.543 107.275 22.7305C107.451 22.918 107.584 23.1582 107.674 23.4512C107.768 23.7441 107.814 24.1016 107.814 24.5234V28.6484H107.111V24.5176C107.111 24.0801 107.051 23.7383 106.93 23.4922C106.809 23.2422 106.637 23.0645 106.414 22.959C106.191 22.8535 105.928 22.8008 105.623 22.8008C105.287 22.8008 104.992 22.875 104.738 23.0234C104.488 23.168 104.277 23.3574 104.105 23.5918C103.938 23.8223 103.809 24.0703 103.719 24.3359C103.629 24.5977 103.58 24.8477 103.572 25.0859Z" fill="black"/>
<path d="M101.117 22.3086V28.6484H100.42V22.3086H101.117ZM100.297 20.4746C100.297 20.3418 100.338 20.2305 100.42 20.1406C100.506 20.0469 100.623 20 100.771 20C100.92 20 101.037 20.0469 101.123 20.1406C101.213 20.2305 101.258 20.3418 101.258 20.4746C101.258 20.6035 101.213 20.7148 101.123 20.8086C101.037 20.8984 100.92 20.9434 100.771 20.9434C100.623 20.9434 100.506 20.8984 100.42 20.8086C100.338 20.7148 100.297 20.6035 100.297 20.4746Z" fill="black"/>
<path d="M98.0527 27.0312C98.0527 26.8594 98.0098 26.6895 97.9238 26.5215C97.8379 26.3535 97.6719 26.1992 97.4258 26.0586C97.1836 25.918 96.8262 25.7988 96.3535 25.7012C96.002 25.623 95.6875 25.5352 95.4102 25.4375C95.1367 25.3398 94.9062 25.2227 94.7188 25.0859C94.5312 24.9492 94.3887 24.7852 94.291 24.5938C94.1934 24.4023 94.1445 24.1758 94.1445 23.9141C94.1445 23.6797 94.1953 23.459 94.2969 23.252C94.4023 23.041 94.5508 22.8574 94.7422 22.7012C94.9375 22.541 95.1719 22.416 95.4453 22.3262C95.7227 22.2363 96.0332 22.1914 96.377 22.1914C96.8652 22.1914 97.2832 22.2754 97.6309 22.4434C97.9824 22.6074 98.25 22.832 98.4336 23.1172C98.6211 23.4023 98.7148 23.7246 98.7148 24.084H98.0176C98.0176 23.8652 97.9531 23.6582 97.8242 23.4629C97.6992 23.2676 97.5137 23.1074 97.2676 22.9824C97.0254 22.8574 96.7285 22.7949 96.377 22.7949C96.0137 22.7949 95.7188 22.8496 95.4922 22.959C95.2656 23.0684 95.0996 23.207 94.9941 23.375C94.8926 23.543 94.8418 23.7168 94.8418 23.8965C94.8418 24.0371 94.8633 24.166 94.9062 24.2832C94.9531 24.3965 95.0352 24.502 95.1523 24.5996C95.2734 24.6973 95.4453 24.7891 95.668 24.875C95.8906 24.9609 96.1797 25.0449 96.5352 25.127C97.0469 25.2402 97.4648 25.3789 97.7891 25.543C98.1172 25.7031 98.3594 25.9023 98.5156 26.1406C98.6719 26.375 98.75 26.6602 98.75 26.9961C98.75 27.2578 98.6953 27.498 98.5859 27.7168C98.4766 27.9316 98.3184 28.1172 98.1113 28.2734C97.9082 28.4297 97.6621 28.5508 97.373 28.6367C97.0879 28.7227 96.7676 28.7656 96.4121 28.7656C95.877 28.7656 95.4238 28.6777 95.0527 28.502C94.6855 28.3223 94.4062 28.0879 94.2148 27.7988C94.0273 27.5059 93.9336 27.1953 93.9336 26.8672H94.6309C94.6543 27.1953 94.7578 27.4551 94.9414 27.6465C95.125 27.834 95.3496 27.9668 95.6152 28.0449C95.8848 28.123 96.1504 28.1621 96.4121 28.1621C96.7715 28.1621 97.0723 28.1094 97.3145 28.0039C97.5566 27.8984 97.7402 27.7598 97.8652 27.5879C97.9902 27.416 98.0527 27.2305 98.0527 27.0312Z" fill="black"/>
<path d="M91.9707 27.0312C91.9707 26.8594 91.9277 26.6895 91.8418 26.5215C91.7559 26.3535 91.5898 26.1992 91.3438 26.0586C91.1016 25.918 90.7441 25.7988 90.2715 25.7012C89.9199 25.623 89.6055 25.5352 89.3281 25.4375C89.0547 25.3398 88.8242 25.2227 88.6367 25.0859C88.4492 24.9492 88.3066 24.7852 88.209 24.5938C88.1113 24.4023 88.0625 24.1758 88.0625 23.9141C88.0625 23.6797 88.1133 23.459 88.2148 23.252C88.3203 23.041 88.4688 22.8574 88.6602 22.7012C88.8555 22.541 89.0898 22.416 89.3633 22.3262C89.6406 22.2363 89.9512 22.1914 90.2949 22.1914C90.7832 22.1914 91.2012 22.2754 91.5488 22.4434C91.9004 22.6074 92.168 22.832 92.3516 23.1172C92.5391 23.4023 92.6328 23.7246 92.6328 24.084H91.9355C91.9355 23.8652 91.8711 23.6582 91.7422 23.4629C91.6172 23.2676 91.4316 23.1074 91.1855 22.9824C90.9434 22.8574 90.6465 22.7949 90.2949 22.7949C89.9316 22.7949 89.6367 22.8496 89.4102 22.959C89.1836 23.0684 89.0176 23.207 88.9121 23.375C88.8105 23.543 88.7598 23.7168 88.7598 23.8965C88.7598 24.0371 88.7812 24.166 88.8242 24.2832C88.8711 24.3965 88.9531 24.502 89.0703 24.5996C89.1914 24.6973 89.3633 24.7891 89.5859 24.875C89.8086 24.9609 90.0977 25.0449 90.4531 25.127C90.9648 25.2402 91.3828 25.3789 91.707 25.543C92.0352 25.7031 92.2773 25.9023 92.4336 26.1406C92.5898 26.375 92.668 26.6602 92.668 26.9961C92.668 27.2578 92.6133 27.498 92.5039 27.7168C92.3945 27.9316 92.2363 28.1172 92.0293 28.2734C91.8262 28.4297 91.5801 28.5508 91.291 28.6367C91.0059 28.7227 90.6855 28.7656 90.3301 28.7656C89.7949 28.7656 89.3418 28.6777 88.9707 28.502C88.6035 28.3223 88.3242 28.0879 88.1328 27.7988C87.9453 27.5059 87.8516 27.1953 87.8516 26.8672H88.5488C88.5723 27.1953 88.6758 27.4551 88.8594 27.6465C89.043 27.834 89.2676 27.9668 89.5332 28.0449C89.8027 28.123 90.0684 28.1621 90.3301 28.1621C90.6895 28.1621 90.9902 28.1094 91.2324 28.0039C91.4746 27.8984 91.6582 27.7598 91.7832 27.5879C91.9082 27.416 91.9707 27.2305 91.9707 27.0312Z" fill="black"/>
<path d="M84.4121 28.7656C83.998 28.7656 83.6172 28.6895 83.2695 28.5371C82.9258 28.3848 82.625 28.1699 82.3672 27.8926C82.1133 27.6152 81.916 27.2871 81.7754 26.9082C81.6387 26.5254 81.5703 26.1074 81.5703 25.6543V25.4023C81.5703 24.9141 81.6426 24.4727 81.7871 24.0781C81.9316 23.6836 82.1309 23.3457 82.3848 23.0645C82.6387 22.7832 82.9277 22.5684 83.252 22.4199C83.5801 22.2676 83.9238 22.1914 84.2832 22.1914C84.6855 22.1914 85.043 22.2637 85.3555 22.4082C85.668 22.5488 85.9297 22.75 86.1406 23.0117C86.3555 23.2695 86.5176 23.5762 86.627 23.9316C86.7363 24.2832 86.791 24.6719 86.791 25.0977V25.5254H81.9922V24.9277H86.0938V24.8457C86.0859 24.4902 86.0137 24.1582 85.877 23.8496C85.7441 23.5371 85.5449 23.2832 85.2793 23.0879C85.0137 22.8926 84.6816 22.7949 84.2832 22.7949C83.9863 22.7949 83.7129 22.8574 83.4629 22.9824C83.2168 23.1074 83.0039 23.2871 82.8242 23.5215C82.6484 23.752 82.5117 24.0273 82.4141 24.3477C82.3203 24.6641 82.2734 25.0156 82.2734 25.4023V25.6543C82.2734 26.0059 82.3242 26.334 82.4258 26.6387C82.5312 26.9395 82.6797 27.2051 82.8711 27.4355C83.0664 27.666 83.2969 27.8457 83.5625 27.9746C83.8281 28.1035 84.1211 28.168 84.4414 28.168C84.8164 28.168 85.1484 28.0996 85.4375 27.9629C85.7266 27.8223 85.9863 27.6016 86.2168 27.3008L86.6562 27.6406C86.5195 27.8438 86.3477 28.0312 86.1406 28.2031C85.9375 28.375 85.6934 28.5117 85.4082 28.6133C85.123 28.7148 84.791 28.7656 84.4121 28.7656Z" fill="black"/>
<path d="M78.1133 28.1621C78.4102 28.1621 78.6875 28.1074 78.9453 27.998C79.207 27.8848 79.4219 27.7188 79.5898 27.5C79.7617 27.2773 79.8594 27.0059 79.8828 26.6855H80.5508C80.5312 27.0879 80.4082 27.4473 80.1816 27.7637C79.959 28.0762 79.666 28.3223 79.3027 28.502C78.9434 28.6777 78.5469 28.7656 78.1133 28.7656C77.6719 28.7656 77.2812 28.6855 76.9414 28.5254C76.6055 28.3652 76.3242 28.1426 76.0977 27.8574C75.8711 27.5684 75.6992 27.2324 75.582 26.8496C75.4688 26.4629 75.4121 26.0469 75.4121 25.6016V25.3555C75.4121 24.9102 75.4688 24.4961 75.582 24.1133C75.6992 23.7266 75.8711 23.3906 76.0977 23.1055C76.3242 22.8164 76.6055 22.5918 76.9414 22.4316C77.2773 22.2715 77.666 22.1914 78.1074 22.1914C78.5605 22.1914 78.9668 22.2832 79.3262 22.4668C79.6895 22.6504 79.9785 22.9102 80.1934 23.2461C80.4121 23.582 80.5312 23.9805 80.5508 24.4414H79.8828C79.8633 24.1016 79.7734 23.8086 79.6133 23.5625C79.4531 23.3164 79.2422 23.127 78.9805 22.9941C78.7188 22.8613 78.4277 22.7949 78.1074 22.7949C77.748 22.7949 77.4414 22.8652 77.1875 23.0059C76.9336 23.1426 76.7266 23.332 76.5664 23.5742C76.4102 23.8125 76.2949 24.0859 76.2207 24.3945C76.1465 24.6992 76.1094 25.0195 76.1094 25.3555V25.6016C76.1094 25.9414 76.1445 26.2656 76.2148 26.5742C76.2891 26.8789 76.4043 27.1504 76.5605 27.3887C76.7207 27.627 76.9277 27.8164 77.1816 27.957C77.4395 28.0938 77.75 28.1621 78.1133 28.1621Z" fill="black"/>
<path d="M68.6621 25.5781V25.3848C68.6621 24.9238 68.7285 24.498 68.8613 24.1074C68.9941 23.7168 69.1836 23.3789 69.4297 23.0938C69.6797 22.8086 69.9785 22.5879 70.3262 22.4316C70.6738 22.2715 71.0605 22.1914 71.4863 22.1914C71.916 22.1914 72.3047 22.2715 72.6523 22.4316C73 22.5879 73.2988 22.8086 73.5488 23.0938C73.7988 23.3789 73.9902 23.7168 74.123 24.1074C74.2559 24.498 74.3223 24.9238 74.3223 25.3848V25.5781C74.3223 26.0391 74.2559 26.4648 74.123 26.8555C73.9902 27.2422 73.7988 27.5781 73.5488 27.8633C73.3027 28.1484 73.0059 28.3711 72.6582 28.5312C72.3105 28.6875 71.9238 28.7656 71.498 28.7656C71.0684 28.7656 70.6797 28.6875 70.332 28.5312C69.9844 28.3711 69.6855 28.1484 69.4355 27.8633C69.1855 27.5781 68.9941 27.2422 68.8613 26.8555C68.7285 26.4648 68.6621 26.0391 68.6621 25.5781ZM69.3594 25.3848V25.5781C69.3594 25.9258 69.4062 26.2559 69.5 26.5684C69.5938 26.877 69.7305 27.1523 69.9102 27.3945C70.0898 27.6328 70.3125 27.8203 70.5781 27.957C70.8438 28.0938 71.1504 28.1621 71.498 28.1621C71.8418 28.1621 72.1445 28.0938 72.4062 27.957C72.6719 27.8203 72.8945 27.6328 73.0742 27.3945C73.2539 27.1523 73.3887 26.877 73.4785 26.5684C73.5723 26.2559 73.6191 25.9258 73.6191 25.5781V25.3848C73.6191 25.041 73.5723 24.7148 73.4785 24.4062C73.3887 24.0977 73.252 23.8223 73.0684 23.5801C72.8887 23.3379 72.666 23.1465 72.4004 23.0059C72.1348 22.8652 71.8301 22.7949 71.4863 22.7949C71.1426 22.7949 70.8379 22.8652 70.5723 23.0059C70.3105 23.1465 70.0879 23.3379 69.9043 23.5801C69.7246 23.8223 69.5879 24.0977 69.4941 24.4062C69.4043 24.7148 69.3594 25.041 69.3594 25.3848Z" fill="black"/>
<path d="M65.8203 23.3574V28.6484H65.123V22.3086H65.8027L65.8203 23.3574ZM68.0645 22.2617L68.0469 22.9062C67.9688 22.8945 67.8926 22.8848 67.8184 22.877C67.7441 22.8691 67.6641 22.8652 67.5781 22.8652C67.2734 22.8652 67.0059 22.9219 66.7754 23.0352C66.5488 23.1445 66.3574 23.2988 66.2012 23.498C66.0449 23.6934 65.9258 23.9238 65.8438 24.1895C65.7617 24.4512 65.7148 24.7324 65.7031 25.0332L65.4453 25.1328C65.4453 24.7188 65.4883 24.334 65.5742 23.9785C65.6602 23.623 65.791 23.3125 65.9668 23.0469C66.1465 22.7773 66.3711 22.5684 66.6406 22.4199C66.9141 22.2676 67.2344 22.1914 67.6016 22.1914C67.6914 22.1914 67.7793 22.1992 67.8652 22.2148C67.9551 22.2266 68.0215 22.2422 68.0645 22.2617Z" fill="black"/>
<path d="M60.793 25.1738H58.3613V24.5586H60.793C61.3008 24.5586 61.7129 24.4766 62.0293 24.3125C62.3496 24.1445 62.582 23.918 62.7266 23.6328C62.875 23.3477 62.9492 23.0273 62.9492 22.6719C62.9492 22.3242 62.875 22.0039 62.7266 21.7109C62.582 21.418 62.3496 21.1836 62.0293 21.0078C61.7129 20.8281 61.3008 20.7383 60.793 20.7383H58.6133V28.6484H57.8926V20.1172H60.793C61.418 20.1172 61.9434 20.2246 62.3691 20.4395C62.7988 20.6543 63.123 20.9531 63.3418 21.3359C63.5605 21.7188 63.6699 22.1602 63.6699 22.6602C63.6699 23.1836 63.5605 23.6348 63.3418 24.0137C63.123 24.3887 62.8008 24.6758 62.375 24.875C61.9492 25.0742 61.4219 25.1738 60.793 25.1738Z" fill="black"/>
<path d="M48.8984 23.6621V28.6484H48.2012V22.3086H48.8691L48.8984 23.6621ZM48.7402 25.0859L48.4297 24.9102C48.4531 24.5352 48.5293 24.1836 48.6582 23.8555C48.7871 23.5273 48.9609 23.2383 49.1797 22.9883C49.4023 22.7383 49.6621 22.543 49.959 22.4023C50.2598 22.2617 50.5918 22.1914 50.9551 22.1914C51.2715 22.1914 51.5547 22.2344 51.8047 22.3203C52.0547 22.4062 52.2676 22.543 52.4434 22.7305C52.6191 22.918 52.752 23.1582 52.8418 23.4512C52.9355 23.7441 52.9824 24.1016 52.9824 24.5234V28.6484H52.2793V24.5176C52.2793 24.0801 52.2188 23.7383 52.0977 23.4922C51.9766 23.2422 51.8047 23.0645 51.582 22.959C51.3594 22.8535 51.0957 22.8008 50.791 22.8008C50.4551 22.8008 50.1602 22.875 49.9062 23.0234C49.6562 23.168 49.4453 23.3574 49.2734 23.5918C49.1055 23.8223 48.9766 24.0703 48.8867 24.3359C48.7969 24.5977 48.748 24.8477 48.7402 25.0859Z" fill="black"/>
<path d="M44.8555 23.3574V28.6484H44.1582V22.3086H44.8379L44.8555 23.3574ZM47.0996 22.2617L47.082 22.9062C47.0039 22.8945 46.9277 22.8848 46.8535 22.877C46.7793 22.8691 46.6992 22.8652 46.6133 22.8652C46.3086 22.8652 46.041 22.9219 45.8105 23.0352C45.584 23.1445 45.3926 23.2988 45.2363 23.498C45.0801 23.6934 44.9609 23.9238 44.8789 24.1895C44.7969 24.4512 44.75 24.7324 44.7383 25.0332L44.4805 25.1328C44.4805 24.7188 44.5234 24.334 44.6094 23.9785C44.6953 23.623 44.8262 23.3125 45.002 23.0469C45.1816 22.7773 45.4062 22.5684 45.6758 22.4199C45.9492 22.2676 46.2695 22.1914 46.6367 22.1914C46.7266 22.1914 46.8145 22.1992 46.9004 22.2148C46.9902 22.2266 47.0566 22.2422 47.0996 22.2617Z" fill="black"/>
<path d="M41.6211 27.1836V22.3086H42.3242V28.6484H41.6504L41.6211 27.1836ZM41.75 26.0117L42.1133 26C42.1133 26.3984 42.0664 26.7656 41.9727 27.1016C41.8789 27.4375 41.7324 27.7305 41.5332 27.9805C41.334 28.2305 41.0762 28.4238 40.7598 28.5605C40.4434 28.6973 40.0625 28.7656 39.6172 28.7656C39.3086 28.7656 39.0254 28.7227 38.7676 28.6367C38.5137 28.5469 38.2949 28.4062 38.1113 28.2148C37.9277 28.0234 37.7852 27.7754 37.6836 27.4707C37.5859 27.166 37.5371 26.7969 37.5371 26.3633V22.3086H38.2344V26.375C38.2344 26.7148 38.2715 26.998 38.3457 27.2246C38.4238 27.4512 38.5293 27.6328 38.6621 27.7695C38.7988 27.9062 38.9551 28.0039 39.1309 28.0625C39.3066 28.1211 39.4961 28.1504 39.6992 28.1504C40.2148 28.1504 40.6211 28.0508 40.918 27.8516C41.2188 27.6523 41.4316 27.3906 41.5566 27.0664C41.6855 26.7383 41.75 26.3867 41.75 26.0117Z" fill="black"/>
<path d="M36.0898 22.3086V22.8828H32.9141V22.3086H36.0898ZM34.0801 20.6797H34.7773V27.1074C34.7773 27.4004 34.8164 27.6211 34.8945 27.7695C34.9727 27.918 35.0742 28.0176 35.1992 28.0684C35.3242 28.1191 35.459 28.1445 35.6035 28.1445C35.709 28.1445 35.8105 28.1387 35.9082 28.127C36.0059 28.1113 36.0938 28.0957 36.1719 28.0801L36.2012 28.6719C36.1152 28.6992 36.0039 28.7207 35.8672 28.7363C35.7305 28.7559 35.5938 28.7656 35.457 28.7656C35.1875 28.7656 34.9492 28.7168 34.7422 28.6191C34.5352 28.5176 34.373 28.3457 34.2559 28.1035C34.1387 27.8574 34.0801 27.5234 34.0801 27.1016V20.6797Z" fill="black"/>
<path d="M29.9316 28.7656C29.5176 28.7656 29.1367 28.6895 28.7891 28.5371C28.4453 28.3848 28.1445 28.1699 27.8867 27.8926C27.6328 27.6152 27.4355 27.2871 27.2949 26.9082C27.1582 26.5254 27.0898 26.1074 27.0898 25.6543V25.4023C27.0898 24.9141 27.1621 24.4727 27.3066 24.0781C27.4512 23.6836 27.6504 23.3457 27.9043 23.0645C28.1582 22.7832 28.4473 22.5684 28.7715 22.4199C29.0996 22.2676 29.4434 22.1914 29.8027 22.1914C30.2051 22.1914 30.5625 22.2637 30.875 22.4082C31.1875 22.5488 31.4492 22.75 31.6602 23.0117C31.875 23.2695 32.0371 23.5762 32.1465 23.9316C32.2559 24.2832 32.3105 24.6719 32.3105 25.0977V25.5254H27.5117V24.9277H31.6133V24.8457C31.6055 24.4902 31.5332 24.1582 31.3965 23.8496C31.2637 23.5371 31.0645 23.2832 30.7988 23.0879C30.5332 22.8926 30.2012 22.7949 29.8027 22.7949C29.5059 22.7949 29.2324 22.8574 28.9824 22.9824C28.7363 23.1074 28.5234 23.2871 28.3438 23.5215C28.168 23.752 28.0312 24.0273 27.9336 24.3477C27.8398 24.6641 27.793 25.0156 27.793 25.4023V25.6543C27.793 26.0059 27.8438 26.334 27.9453 26.6387C28.0508 26.9395 28.1992 27.2051 28.3906 27.4355C28.5859 27.666 28.8164 27.8457 29.082 27.9746C29.3477 28.1035 29.6406 28.168 29.9609 28.168C30.3359 28.168 30.668 28.0996 30.957 27.9629C31.2461 27.8223 31.5059 27.6016 31.7363 27.3008L32.1758 27.6406C32.0391 27.8438 31.8672 28.0312 31.6602 28.2031C31.457 28.375 31.2129 28.5117 30.9277 28.6133C30.6426 28.7148 30.3105 28.7656 29.9316 28.7656Z" fill="black"/>
<path d="M20 20.1172H22.7715C23.3613 20.1172 23.873 20.2129 24.3066 20.4043C24.7402 20.5957 25.0742 20.8789 25.3086 21.2539C25.5469 21.625 25.666 22.082 25.666 22.625C25.666 23.0273 25.5801 23.3926 25.4082 23.7207C25.2402 24.0488 25.0078 24.3242 24.7109 24.5469C24.4141 24.7656 24.0703 24.916 23.6797 24.998L23.4277 25.0918H20.4688L20.457 24.4766H22.9355C23.3809 24.4766 23.752 24.3906 24.0488 24.2188C24.3457 24.0469 24.5684 23.8203 24.7168 23.5391C24.8691 23.2539 24.9453 22.9492 24.9453 22.625C24.9453 22.2383 24.8613 21.9043 24.6934 21.623C24.5293 21.3379 24.2852 21.1191 23.9609 20.9668C23.6367 20.8145 23.2402 20.7383 22.7715 20.7383H20.7207V28.6484H20V20.1172ZM25.2676 28.6484L23.0586 24.834L23.832 24.8281L26.0352 28.5723V28.6484H25.2676Z" fill="black"/>
<rect x="20" y="41.1797" width="138" height="14" rx="7" fill="#F1F1F1"/>
<rect x="23" y="44.1797" width="91" height="8" rx="4" fill="url(#paint0_linear_21_26)"/>
<path d="M139.104 73.5469L141.078 67.8398H141.834L139.15 75.1992C139.096 75.3438 139.025 75.5039 138.939 75.6797C138.857 75.8555 138.748 76.0234 138.611 76.1836C138.479 76.3477 138.311 76.4805 138.107 76.582C137.908 76.6875 137.664 76.7402 137.375 76.7402C137.301 76.7402 137.205 76.7305 137.088 76.7109C136.975 76.6953 136.893 76.6797 136.842 76.6641L136.836 76.0723C136.879 76.084 136.941 76.0938 137.023 76.1016C137.105 76.1094 137.162 76.1133 137.193 76.1133C137.447 76.1133 137.66 76.0703 137.832 75.9844C138.008 75.8984 138.154 75.7695 138.271 75.5977C138.389 75.4297 138.492 75.2188 138.582 74.9648L139.104 73.5469ZM137.258 67.8398L139.279 73.2832L139.467 74.0156L138.957 74.3027L136.496 67.8398H137.258Z" fill="black"/>
<path d="M133.314 73.5059L135.348 67.8398H136.068L133.695 74.1797H133.186L133.314 73.5059ZM131.475 67.8398L133.531 73.5234L133.643 74.1797H133.127L130.748 67.8398H131.475Z" fill="black"/>
<path d="M127.766 74.2969C127.352 74.2969 126.971 74.2207 126.623 74.0684C126.279 73.916 125.979 73.7012 125.721 73.4238C125.467 73.1465 125.27 72.8184 125.129 72.4395C124.992 72.0566 124.924 71.6387 124.924 71.1855V70.9336C124.924 70.4453 124.996 70.0039 125.141 69.6094C125.285 69.2148 125.484 68.877 125.738 68.5957C125.992 68.3145 126.281 68.0996 126.605 67.9512C126.934 67.7988 127.277 67.7227 127.637 67.7227C128.039 67.7227 128.396 67.7949 128.709 67.9395C129.021 68.0801 129.283 68.2812 129.494 68.543C129.709 68.8008 129.871 69.1074 129.98 69.4629C130.09 69.8145 130.145 70.2031 130.145 70.6289V71.0566H125.346V70.459H129.447V70.377C129.439 70.0215 129.367 69.6895 129.23 69.3809C129.098 69.0684 128.898 68.8145 128.633 68.6191C128.367 68.4238 128.035 68.3262 127.637 68.3262C127.34 68.3262 127.066 68.3887 126.816 68.5137C126.57 68.6387 126.357 68.8184 126.178 69.0527C126.002 69.2832 125.865 69.5586 125.768 69.8789C125.674 70.1953 125.627 70.5469 125.627 70.9336V71.1855C125.627 71.5371 125.678 71.8652 125.779 72.1699C125.885 72.4707 126.033 72.7363 126.225 72.9668C126.42 73.1973 126.65 73.377 126.916 73.5059C127.182 73.6348 127.475 73.6992 127.795 73.6992C128.17 73.6992 128.502 73.6309 128.791 73.4941C129.08 73.3535 129.34 73.1328 129.57 72.832L130.01 73.1719C129.873 73.375 129.701 73.5625 129.494 73.7344C129.291 73.9062 129.047 74.043 128.762 74.1445C128.477 74.2461 128.145 74.2969 127.766 74.2969Z" fill="black"/>
<path d="M124.086 73.5645V74.1797H119.662V73.5645H124.086ZM119.873 65.6484V74.1797H119.152V65.6484H119.873Z" fill="black"/>
<path d="M110.158 69.1934V74.1797H109.461V67.8398H110.129L110.158 69.1934ZM110 70.6172L109.689 70.4414C109.713 70.0664 109.789 69.7148 109.918 69.3867C110.047 69.0586 110.221 68.7695 110.439 68.5195C110.662 68.2695 110.922 68.0742 111.219 67.9336C111.52 67.793 111.852 67.7227 112.215 67.7227C112.531 67.7227 112.814 67.7656 113.064 67.8516C113.314 67.9375 113.527 68.0742 113.703 68.2617C113.879 68.4492 114.012 68.6895 114.102 68.9824C114.195 69.2754 114.242 69.6328 114.242 70.0547V74.1797H113.539V70.0488C113.539 69.6113 113.479 69.2695 113.357 69.0234C113.236 68.7734 113.064 68.5957 112.842 68.4902C112.619 68.3848 112.355 68.332 112.051 68.332C111.715 68.332 111.42 68.4062 111.166 68.5547C110.916 68.6992 110.705 68.8887 110.533 69.123C110.365 69.3535 110.236 69.6016 110.146 69.8672C110.057 70.1289 110.008 70.3789 110 70.6172Z" fill="black"/>
<path d="M102.348 71.1094V70.916C102.348 70.4551 102.414 70.0293 102.547 69.6387C102.68 69.248 102.869 68.9102 103.115 68.625C103.365 68.3398 103.664 68.1191 104.012 67.9629C104.359 67.8027 104.746 67.7227 105.172 67.7227C105.602 67.7227 105.99 67.8027 106.338 67.9629C106.686 68.1191 106.984 68.3398 107.234 68.625C107.484 68.9102 107.676 69.248 107.809 69.6387C107.941 70.0293 108.008 70.4551 108.008 70.916V71.1094C108.008 71.5703 107.941 71.9961 107.809 72.3867C107.676 72.7734 107.484 73.1094 107.234 73.3945C106.988 73.6797 106.691 73.9023 106.344 74.0625C105.996 74.2188 105.609 74.2969 105.184 74.2969C104.754 74.2969 104.365 74.2188 104.018 74.0625C103.67 73.9023 103.371 73.6797 103.121 73.3945C102.871 73.1094 102.68 72.7734 102.547 72.3867C102.414 71.9961 102.348 71.5703 102.348 71.1094ZM103.045 70.916V71.1094C103.045 71.457 103.092 71.7871 103.186 72.0996C103.279 72.4082 103.416 72.6836 103.596 72.9258C103.775 73.1641 103.998 73.3516 104.264 73.4883C104.529 73.625 104.836 73.6934 105.184 73.6934C105.527 73.6934 105.83 73.625 106.092 73.4883C106.357 73.3516 106.58 73.1641 106.76 72.9258C106.939 72.6836 107.074 72.4082 107.164 72.0996C107.258 71.7871 107.305 71.457 107.305 71.1094V70.916C107.305 70.5723 107.258 70.2461 107.164 69.9375C107.074 69.6289 106.938 69.3535 106.754 69.1113C106.574 68.8691 106.352 68.6777 106.086 68.5371C105.82 68.3965 105.516 68.3262 105.172 68.3262C104.828 68.3262 104.523 68.3965 104.258 68.5371C103.996 68.6777 103.773 68.8691 103.59 69.1113C103.41 69.3535 103.273 69.6289 103.18 69.9375C103.09 70.2461 103.045 70.5723 103.045 70.916Z" fill="black"/>
<path d="M100.818 67.8398V74.1797H100.121V67.8398H100.818ZM99.998 66.0059C99.998 65.873 100.039 65.7617 100.121 65.6719C100.207 65.5781 100.324 65.5312 100.473 65.5312C100.621 65.5312 100.738 65.5781 100.824 65.6719C100.914 65.7617 100.959 65.873 100.959 66.0059C100.959 66.1348 100.914 66.2461 100.824 66.3398C100.738 66.4297 100.621 66.4746 100.473 66.4746C100.324 66.4746 100.207 66.4297 100.121 66.3398C100.039 66.2461 99.998 66.1348 99.998 66.0059Z" fill="black"/>
<path d="M98.5684 67.8398V68.4141H95.3926V67.8398H98.5684ZM96.5586 66.2109H97.2559V72.6387C97.2559 72.9316 97.2949 73.1523 97.373 73.3008C97.4512 73.4492 97.5527 73.5488 97.6777 73.5996C97.8027 73.6504 97.9375 73.6758 98.082 73.6758C98.1875 73.6758 98.2891 73.6699 98.3867 73.6582C98.4844 73.6426 98.5723 73.627 98.6504 73.6113L98.6797 74.2031C98.5938 74.2305 98.4824 74.252 98.3457 74.2676C98.209 74.2871 98.0723 74.2969 97.9355 74.2969C97.666 74.2969 97.4277 74.248 97.2207 74.1504C97.0137 74.0488 96.8516 73.877 96.7344 73.6348C96.6172 73.3887 96.5586 73.0547 96.5586 72.6328V66.2109Z" fill="black"/>
<path d="M93.5938 73.043V69.7734C93.5938 69.4727 93.5312 69.2129 93.4062 68.9941C93.2812 68.7754 93.0977 68.6074 92.8555 68.4902C92.6133 68.373 92.3145 68.3145 91.959 68.3145C91.6309 68.3145 91.3379 68.373 91.0801 68.4902C90.8262 68.6035 90.625 68.7578 90.4766 68.9531C90.332 69.1445 90.2598 69.3574 90.2598 69.5918L89.5566 69.5859C89.5566 69.3477 89.6152 69.1172 89.7324 68.8945C89.8496 68.6719 90.0156 68.4727 90.2305 68.2969C90.4453 68.1211 90.7012 67.9824 90.998 67.8809C91.2988 67.7754 91.6289 67.7227 91.9883 67.7227C92.4414 67.7227 92.8398 67.7988 93.1836 67.9512C93.5312 68.1035 93.8027 68.332 93.998 68.6367C94.1934 68.9414 94.291 69.3242 94.291 69.7852V72.8496C94.291 73.0684 94.3066 73.2949 94.3379 73.5293C94.373 73.7637 94.4219 73.957 94.4844 74.1094V74.1797H93.7402C93.6934 74.0391 93.6562 73.8633 93.6289 73.6523C93.6055 73.4375 93.5938 73.2344 93.5938 73.043ZM93.7578 70.4883L93.7695 71.0273H92.3926C92.0332 71.0273 91.7109 71.0605 91.4258 71.127C91.1445 71.1895 90.9062 71.2832 90.7109 71.4082C90.5156 71.5293 90.3652 71.6758 90.2598 71.8477C90.1582 72.0195 90.1074 72.2148 90.1074 72.4336C90.1074 72.6602 90.1641 72.8672 90.2773 73.0547C90.3945 73.2422 90.5586 73.3926 90.7695 73.5059C90.9844 73.6152 91.2383 73.6699 91.5312 73.6699C91.9219 73.6699 92.2656 73.5977 92.5625 73.4531C92.8633 73.3086 93.1113 73.1191 93.3066 72.8848C93.502 72.6504 93.6328 72.3945 93.6992 72.1172L94.0039 72.5215C93.9531 72.7168 93.8594 72.918 93.7227 73.125C93.5898 73.3281 93.416 73.5195 93.2012 73.6992C92.9863 73.875 92.7324 74.0195 92.4395 74.1328C92.1504 74.2422 91.8223 74.2969 91.4551 74.2969C91.041 74.2969 90.6797 74.2188 90.3711 74.0625C90.0664 73.9062 89.8281 73.6934 89.6562 73.4238C89.4883 73.1504 89.4043 72.8418 89.4043 72.498C89.4043 72.1855 89.4707 71.9062 89.6035 71.6602C89.7363 71.4102 89.9277 71.1992 90.1777 71.0273C90.4316 70.8516 90.7363 70.7188 91.0918 70.6289C91.4512 70.5352 91.8535 70.4883 92.2988 70.4883H93.7578Z" fill="black"/>
<path d="M88.4668 73.5762V74.1797H83.7383V73.5762H88.4668ZM88.209 68.3613L83.9141 74.1797H83.4863V73.6523L87.7695 67.8398H88.209V68.3613ZM87.8984 67.8398V68.4492H83.6035V67.8398H87.8984Z" fill="black"/>
<path d="M81.9746 67.8398V74.1797H81.2773V67.8398H81.9746ZM81.1543 66.0059C81.1543 65.873 81.1953 65.7617 81.2773 65.6719C81.3633 65.5781 81.4805 65.5312 81.6289 65.5312C81.7773 65.5312 81.8945 65.5781 81.9805 65.6719C82.0703 65.7617 82.1152 65.873 82.1152 66.0059C82.1152 66.1348 82.0703 66.2461 81.9805 66.3398C81.8945 66.4297 81.7773 66.4746 81.6289 66.4746C81.4805 66.4746 81.3633 66.4297 81.2773 66.3398C81.1953 66.2461 81.1543 66.1348 81.1543 66.0059Z" fill="black"/>
<path d="M79.2793 65.1797V74.1797H78.582V65.1797H79.2793Z" fill="black"/>
<path d="M75.9219 73.043V69.7734C75.9219 69.4727 75.8594 69.2129 75.7344 68.9941C75.6094 68.7754 75.4258 68.6074 75.1836 68.4902C74.9414 68.373 74.6426 68.3145 74.2871 68.3145C73.959 68.3145 73.666 68.373 73.4082 68.4902C73.1543 68.6035 72.9531 68.7578 72.8047 68.9531C72.6602 69.1445 72.5879 69.3574 72.5879 69.5918L71.8848 69.5859C71.8848 69.3477 71.9434 69.1172 72.0605 68.8945C72.1777 68.6719 72.3438 68.4727 72.5586 68.2969C72.7734 68.1211 73.0293 67.9824 73.3262 67.8809C73.627 67.7754 73.957 67.7227 74.3164 67.7227C74.7695 67.7227 75.168 67.7988 75.5117 67.9512C75.8594 68.1035 76.1309 68.332 76.3262 68.6367C76.5215 68.9414 76.6191 69.3242 76.6191 69.7852V72.8496C76.6191 73.0684 76.6348 73.2949 76.666 73.5293C76.7012 73.7637 76.75 73.957 76.8125 74.1094V74.1797H76.0684C76.0215 74.0391 75.9844 73.8633 75.957 73.6523C75.9336 73.4375 75.9219 73.2344 75.9219 73.043ZM76.0859 70.4883L76.0977 71.0273H74.7207C74.3613 71.0273 74.0391 71.0605 73.7539 71.127C73.4727 71.1895 73.2344 71.2832 73.0391 71.4082C72.8438 71.5293 72.6934 71.6758 72.5879 71.8477C72.4863 72.0195 72.4355 72.2148 72.4355 72.4336C72.4355 72.6602 72.4922 72.8672 72.6055 73.0547C72.7227 73.2422 72.8867 73.3926 73.0977 73.5059C73.3125 73.6152 73.5664 73.6699 73.8594 73.6699C74.25 73.6699 74.5938 73.5977 74.8906 73.4531C75.1914 73.3086 75.4395 73.1191 75.6348 72.8848C75.8301 72.6504 75.9609 72.3945 76.0273 72.1172L76.332 72.5215C76.2812 72.7168 76.1875 72.918 76.0508 73.125C75.918 73.3281 75.7441 73.5195 75.5293 73.6992C75.3145 73.875 75.0605 74.0195 74.7676 74.1328C74.4785 74.2422 74.1504 74.2969 73.7832 74.2969C73.3691 74.2969 73.0078 74.2188 72.6992 74.0625C72.3945 73.9062 72.1562 73.6934 71.9844 73.4238C71.8164 73.1504 71.7324 72.8418 71.7324 72.498C71.7324 72.1855 71.7988 71.9062 71.9316 71.6602C72.0645 71.4102 72.2559 71.1992 72.5059 71.0273C72.7598 70.8516 73.0645 70.7188 73.4199 70.6289C73.7793 70.5352 74.1816 70.4883 74.627 70.4883H76.0859Z" fill="black"/>
<path d="M69.5293 72.7148V67.8398H70.2324V74.1797H69.5586L69.5293 72.7148ZM69.6582 71.543L70.0215 71.5312C70.0215 71.9297 69.9746 72.2969 69.8809 72.6328C69.7871 72.9688 69.6406 73.2617 69.4414 73.5117C69.2422 73.7617 68.9844 73.9551 68.668 74.0918C68.3516 74.2285 67.9707 74.2969 67.5254 74.2969C67.2168 74.2969 66.9336 74.2539 66.6758 74.168C66.4219 74.0781 66.2031 73.9375 66.0195 73.7461C65.8359 73.5547 65.6934 73.3066 65.5918 73.002C65.4941 72.6973 65.4453 72.3281 65.4453 71.8945V67.8398H66.1426V71.9062C66.1426 72.2461 66.1797 72.5293 66.2539 72.7559C66.332 72.9824 66.4375 73.1641 66.5703 73.3008C66.707 73.4375 66.8633 73.5352 67.0391 73.5938C67.2148 73.6523 67.4043 73.6816 67.6074 73.6816C68.123 73.6816 68.5293 73.582 68.8262 73.3828C69.127 73.1836 69.3398 72.9219 69.4648 72.5977C69.5938 72.2695 69.6582 71.918 69.6582 71.543Z" fill="black"/>
<path d="M62.8965 76.6172V69.0586L62.9434 67.8398H63.5938V76.6172H62.8965ZM58.4961 71.0742V70.9512C58.4961 70.459 58.5508 70.0156 58.6602 69.6211C58.7695 69.2227 58.9297 68.8828 59.1406 68.6016C59.3555 68.3164 59.6133 68.0996 59.9141 67.9512C60.2188 67.7988 60.5645 67.7227 60.9512 67.7227C61.3223 67.7227 61.6523 67.7832 61.9414 67.9043C62.2305 68.0254 62.4785 68.1992 62.6855 68.4258C62.8965 68.6523 63.0664 68.9219 63.1953 69.2344C63.3242 69.5469 63.418 69.8945 63.4766 70.2773V71.8418C63.4297 72.2012 63.3418 72.5312 63.2129 72.832C63.0879 73.1289 62.9199 73.3887 62.709 73.6113C62.498 73.8301 62.2441 74 61.9473 74.1211C61.6543 74.2383 61.3184 74.2969 60.9395 74.2969C60.5566 74.2969 60.2129 74.2188 59.9082 74.0625C59.6074 73.9062 59.3516 73.6855 59.1406 73.4004C58.9336 73.1113 58.7734 72.7695 58.6602 72.375C58.5508 71.9805 58.4961 71.5469 58.4961 71.0742ZM59.1992 70.9512V71.0742C59.1992 71.4453 59.2363 71.7891 59.3105 72.1055C59.3887 72.4219 59.5039 72.6992 59.6562 72.9375C59.8086 73.1758 60.002 73.3613 60.2363 73.4941C60.4746 73.627 60.752 73.6934 61.0684 73.6934C61.4707 73.6934 61.8105 73.6152 62.0879 73.459C62.3652 73.3027 62.5859 73.0957 62.75 72.8379C62.918 72.5801 63.0391 72.2988 63.1133 71.9941V70.1719C63.0742 69.9727 63.0078 69.7656 62.9141 69.5508C62.8203 69.3359 62.6934 69.1367 62.5332 68.9531C62.377 68.7656 62.1797 68.6152 61.9414 68.502C61.7031 68.3848 61.416 68.3262 61.0801 68.3262C60.7598 68.3262 60.4805 68.3945 60.2422 68.5312C60.0078 68.6641 59.8125 68.8496 59.6562 69.0879C59.5039 69.3262 59.3887 69.6035 59.3105 69.9199C59.2363 70.2363 59.1992 70.5801 59.1992 70.9512Z" fill="black"/>
<path d="M57.5293 73.5645V74.1797H52.7305V73.5645H57.5293ZM52.9473 65.6484V74.1797H52.2266V65.6484H52.9473ZM56.9316 69.4746V70.0898H52.7305V69.4746H56.9316ZM57.5 65.6484V66.2695H52.7305V65.6484H57.5Z" fill="black"/>
<path d="M47.8672 70.1133V70.7168H45.0605V70.1133H47.8672Z" fill="black"/>
<path d="M40.6367 72.082C40.6367 71.8477 40.5977 71.6387 40.5195 71.4551C40.4414 71.2715 40.3125 71.1074 40.1328 70.9629C39.957 70.8145 39.7188 70.6777 39.418 70.5527C39.1211 70.4238 38.75 70.2969 38.3047 70.1719C37.8789 70.0508 37.4941 69.918 37.1504 69.7734C36.8066 69.6289 36.5117 69.4629 36.2656 69.2754C36.0234 69.0879 35.8379 68.8691 35.709 68.6191C35.5801 68.3652 35.5156 68.0703 35.5156 67.7344C35.5156 67.4062 35.5859 67.1074 35.7266 66.8379C35.8672 66.5684 36.0645 66.3359 36.3184 66.1406C36.5762 65.9453 36.8789 65.7949 37.2266 65.6895C37.5781 65.584 37.9629 65.5312 38.3809 65.5312C38.9785 65.5312 39.4941 65.6445 39.9277 65.8711C40.3652 66.0977 40.7031 66.4043 40.9414 66.791C41.1836 67.1738 41.3047 67.6035 41.3047 68.0801H40.584C40.584 67.709 40.4961 67.3789 40.3203 67.0898C40.1484 66.7969 39.8984 66.5684 39.5703 66.4043C39.2461 66.2363 38.8496 66.1523 38.3809 66.1523C37.9121 66.1523 37.5176 66.2246 37.1973 66.3691C36.8809 66.5098 36.6406 66.6992 36.4766 66.9375C36.3164 67.1719 36.2363 67.4336 36.2363 67.7227C36.2363 67.9258 36.2754 68.1133 36.3535 68.2852C36.4316 68.4531 36.5586 68.6113 36.7344 68.7598C36.9141 68.9043 37.1504 69.041 37.4434 69.1699C37.7363 69.2949 38.0977 69.4141 38.5273 69.5273C38.9805 69.6523 39.3828 69.791 39.7344 69.9434C40.0859 70.0957 40.3828 70.2715 40.625 70.4707C40.8672 70.666 41.0508 70.8945 41.1758 71.1562C41.3008 71.418 41.3633 71.7227 41.3633 72.0703C41.3633 72.418 41.2891 72.7305 41.1406 73.0078C40.9961 73.2812 40.791 73.5137 40.5254 73.7051C40.2637 73.8965 39.9531 74.043 39.5938 74.1445C39.2383 74.2461 38.8496 74.2969 38.4277 74.2969C38.0488 74.2969 37.6719 74.248 37.2969 74.1504C36.9219 74.0527 36.5781 73.9023 36.2656 73.6992C35.957 73.4922 35.709 73.2266 35.5215 72.9023C35.3379 72.5781 35.2461 72.1914 35.2461 71.7422H35.9609C35.9609 72.1016 36.0332 72.4043 36.1777 72.6504C36.3223 72.8965 36.5137 73.0957 36.752 73.248C36.9941 73.4004 37.2598 73.5117 37.5488 73.582C37.8418 73.6484 38.1348 73.6816 38.4277 73.6816C38.877 73.6816 39.2656 73.6152 39.5938 73.4824C39.9258 73.3496 40.1816 73.1641 40.3613 72.9258C40.5449 72.6836 40.6367 72.4023 40.6367 72.082Z" fill="black"/>
<path d="M30.2773 74.1797H28.3438L28.3555 73.5645H30.2773C30.8906 73.5645 31.418 73.4277 31.8594 73.1543C32.3047 72.877 32.6484 72.4941 32.8906 72.0059C33.1328 71.5176 33.2539 70.9512 33.2539 70.3066V69.5098C33.2539 69.0176 33.1836 68.5723 33.043 68.1738C32.9062 67.7754 32.709 67.4355 32.4512 67.1543C32.1934 66.8691 31.8848 66.6504 31.5254 66.498C31.1699 66.3457 30.7715 66.2695 30.3301 66.2695H28.3086V65.6484H30.3301C30.8613 65.6484 31.3477 65.7402 31.7891 65.9238C32.2344 66.1035 32.6191 66.3652 32.9434 66.709C33.2715 67.0488 33.5234 67.457 33.6992 67.9336C33.8789 68.4102 33.9688 68.9414 33.9688 69.5273V70.3066C33.9688 70.8926 33.8789 71.4238 33.6992 71.9004C33.5234 72.377 33.2715 72.7852 32.9434 73.125C32.6152 73.4648 32.2266 73.7266 31.7773 73.9102C31.3281 74.0898 30.8281 74.1797 30.2773 74.1797ZM28.666 65.6484V74.1797H27.9453V65.6484H28.666Z" fill="black"/>
<path d="M23.6328 65.6484V74.1797H22.918V65.6484H23.6328ZM26.5566 65.6484V66.2695H20V65.6484H26.5566Z" fill="black"/>
<rect x="20" y="86.7402" width="138" height="14" rx="7" fill="#F1F1F1"/>
<path d="M23 93.7402C23 91.5311 24.7909 89.7402 27 89.7402H142C144.209 89.7402 146 91.5311 146 93.7402C146 95.9494 144.209 97.7402 142 97.7402H27C24.7909 97.7402 23 95.9494 23 93.7402Z" fill="url(#paint1_linear_21_26)"/>
<path d="M127.273 119.98C126.859 119.98 126.479 119.904 126.131 119.752C125.787 119.6 125.486 119.385 125.229 119.107C124.975 118.83 124.777 118.502 124.637 118.123C124.5 117.74 124.432 117.322 124.432 116.869V116.617C124.432 116.129 124.504 115.688 124.648 115.293C124.793 114.898 124.992 114.561 125.246 114.279C125.5 113.998 125.789 113.783 126.113 113.635C126.441 113.482 126.785 113.406 127.145 113.406C127.547 113.406 127.904 113.479 128.217 113.623C128.529 113.764 128.791 113.965 129.002 114.227C129.217 114.484 129.379 114.791 129.488 115.146C129.598 115.498 129.652 115.887 129.652 116.312V116.74H124.854V116.143H128.955V116.061C128.947 115.705 128.875 115.373 128.738 115.064C128.605 114.752 128.406 114.498 128.141 114.303C127.875 114.107 127.543 114.01 127.145 114.01C126.848 114.01 126.574 114.072 126.324 114.197C126.078 114.322 125.865 114.502 125.686 114.736C125.51 114.967 125.373 115.242 125.275 115.562C125.182 115.879 125.135 116.23 125.135 116.617V116.869C125.135 117.221 125.186 117.549 125.287 117.854C125.393 118.154 125.541 118.42 125.732 118.65C125.928 118.881 126.158 119.061 126.424 119.189C126.689 119.318 126.982 119.383 127.303 119.383C127.678 119.383 128.01 119.314 128.299 119.178C128.588 119.037 128.848 118.816 129.078 118.516L129.518 118.855C129.381 119.059 129.209 119.246 129.002 119.418C128.799 119.59 128.555 119.727 128.27 119.828C127.984 119.93 127.652 119.98 127.273 119.98Z" fill="black"/>
<path d="M123.354 113.523V114.098H120.178V113.523H123.354ZM121.344 111.895H122.041V118.322C122.041 118.615 122.08 118.836 122.158 118.984C122.236 119.133 122.338 119.232 122.463 119.283C122.588 119.334 122.723 119.359 122.867 119.359C122.973 119.359 123.074 119.354 123.172 119.342C123.27 119.326 123.357 119.311 123.436 119.295L123.465 119.887C123.379 119.914 123.268 119.936 123.131 119.951C122.994 119.971 122.857 119.98 122.721 119.98C122.451 119.98 122.213 119.932 122.006 119.834C121.799 119.732 121.637 119.561 121.52 119.318C121.402 119.072 121.344 118.738 121.344 118.316V111.895Z" fill="black"/>
<path d="M118.379 118.727V115.457C118.379 115.156 118.316 114.896 118.191 114.678C118.066 114.459 117.883 114.291 117.641 114.174C117.398 114.057 117.1 113.998 116.744 113.998C116.416 113.998 116.123 114.057 115.865 114.174C115.611 114.287 115.41 114.441 115.262 114.637C115.117 114.828 115.045 115.041 115.045 115.275L114.342 115.27C114.342 115.031 114.4 114.801 114.518 114.578C114.635 114.355 114.801 114.156 115.016 113.98C115.23 113.805 115.486 113.666 115.783 113.564C116.084 113.459 116.414 113.406 116.773 113.406C117.227 113.406 117.625 113.482 117.969 113.635C118.316 113.787 118.588 114.016 118.783 114.32C118.979 114.625 119.076 115.008 119.076 115.469V118.533C119.076 118.752 119.092 118.979 119.123 119.213C119.158 119.447 119.207 119.641 119.27 119.793V119.863H118.525C118.479 119.723 118.441 119.547 118.414 119.336C118.391 119.121 118.379 118.918 118.379 118.727ZM118.543 116.172L118.555 116.711H117.178C116.818 116.711 116.496 116.744 116.211 116.811C115.93 116.873 115.691 116.967 115.496 117.092C115.301 117.213 115.15 117.359 115.045 117.531C114.943 117.703 114.893 117.898 114.893 118.117C114.893 118.344 114.949 118.551 115.062 118.738C115.18 118.926 115.344 119.076 115.555 119.189C115.77 119.299 116.023 119.354 116.316 119.354C116.707 119.354 117.051 119.281 117.348 119.137C117.648 118.992 117.896 118.803 118.092 118.568C118.287 118.334 118.418 118.078 118.484 117.801L118.789 118.205C118.738 118.4 118.645 118.602 118.508 118.809C118.375 119.012 118.201 119.203 117.986 119.383C117.771 119.559 117.518 119.703 117.225 119.816C116.936 119.926 116.607 119.98 116.24 119.98C115.826 119.98 115.465 119.902 115.156 119.746C114.852 119.59 114.613 119.377 114.441 119.107C114.273 118.834 114.189 118.525 114.189 118.182C114.189 117.869 114.256 117.59 114.389 117.344C114.521 117.094 114.713 116.883 114.963 116.711C115.217 116.535 115.521 116.402 115.877 116.312C116.236 116.219 116.639 116.172 117.084 116.172H118.543Z" fill="black"/>
<path d="M110.674 119.377C110.971 119.377 111.248 119.322 111.506 119.213C111.768 119.1 111.982 118.934 112.15 118.715C112.322 118.492 112.42 118.221 112.443 117.9H113.111C113.092 118.303 112.969 118.662 112.742 118.979C112.52 119.291 112.227 119.537 111.863 119.717C111.504 119.893 111.107 119.98 110.674 119.98C110.232 119.98 109.842 119.9 109.502 119.74C109.166 119.58 108.885 119.357 108.658 119.072C108.432 118.783 108.26 118.447 108.143 118.064C108.029 117.678 107.973 117.262 107.973 116.816V116.57C107.973 116.125 108.029 115.711 108.143 115.328C108.26 114.941 108.432 114.605 108.658 114.32C108.885 114.031 109.166 113.807 109.502 113.646C109.838 113.486 110.227 113.406 110.668 113.406C111.121 113.406 111.527 113.498 111.887 113.682C112.25 113.865 112.539 114.125 112.754 114.461C112.973 114.797 113.092 115.195 113.111 115.656H112.443C112.424 115.316 112.334 115.023 112.174 114.777C112.014 114.531 111.803 114.342 111.541 114.209C111.279 114.076 110.988 114.01 110.668 114.01C110.309 114.01 110.002 114.08 109.748 114.221C109.494 114.357 109.287 114.547 109.127 114.789C108.971 115.027 108.855 115.301 108.781 115.609C108.707 115.914 108.67 116.234 108.67 116.57V116.816C108.67 117.156 108.705 117.48 108.775 117.789C108.85 118.094 108.965 118.365 109.121 118.604C109.281 118.842 109.488 119.031 109.742 119.172C110 119.309 110.311 119.377 110.674 119.377Z" fill="black"/>
<path d="M102.998 119.863H102.301V112.855C102.301 112.398 102.385 112.014 102.553 111.701C102.725 111.385 102.967 111.146 103.279 110.986C103.596 110.822 103.971 110.74 104.404 110.74C104.666 110.74 104.932 110.77 105.201 110.828C105.471 110.887 105.742 110.973 106.016 111.086L105.904 111.695C105.697 111.605 105.48 111.531 105.254 111.473C105.027 111.414 104.758 111.385 104.445 111.385C103.969 111.385 103.607 111.51 103.361 111.76C103.119 112.01 102.998 112.375 102.998 112.855V119.863ZM104.48 113.523V114.098H101.246V113.523H104.48ZM106.396 113.523V119.863H105.699V113.523H106.396Z" fill="black"/>
<path d="M99.9629 113.523V119.863H99.2656V113.523H99.9629ZM99.1426 111.689C99.1426 111.557 99.1836 111.445 99.2656 111.355C99.3516 111.262 99.4688 111.215 99.6172 111.215C99.7656 111.215 99.8828 111.262 99.9688 111.355C100.059 111.445 100.104 111.557 100.104 111.689C100.104 111.818 100.059 111.93 99.9688 112.023C99.8828 112.113 99.7656 112.158 99.6172 112.158C99.4688 112.158 99.3516 112.113 99.2656 112.023C99.1836 111.93 99.1426 111.818 99.1426 111.689Z" fill="black"/>
<path d="M97.7129 113.523V114.098H94.5371V113.523H97.7129ZM95.7031 111.895H96.4004V118.322C96.4004 118.615 96.4395 118.836 96.5176 118.984C96.5957 119.133 96.6973 119.232 96.8223 119.283C96.9473 119.334 97.082 119.359 97.2266 119.359C97.332 119.359 97.4336 119.354 97.5312 119.342C97.6289 119.326 97.7168 119.311 97.7949 119.295L97.8242 119.887C97.7383 119.914 97.627 119.936 97.4902 119.951C97.3535 119.971 97.2168 119.98 97.0801 119.98C96.8105 119.98 96.5723 119.932 96.3652 119.834C96.1582 119.732 95.9961 119.561 95.8789 119.318C95.7617 119.072 95.7031 118.738 95.7031 118.316V111.895Z" fill="black"/>
<path d="M91.6777 114.572V119.863H90.9805V113.523H91.6602L91.6777 114.572ZM93.9219 113.477L93.9043 114.121C93.8262 114.109 93.75 114.1 93.6758 114.092C93.6016 114.084 93.5215 114.08 93.4355 114.08C93.1309 114.08 92.8633 114.137 92.6328 114.25C92.4062 114.359 92.2148 114.514 92.0586 114.713C91.9023 114.908 91.7832 115.139 91.7012 115.404C91.6191 115.666 91.5723 115.947 91.5605 116.248L91.3027 116.348C91.3027 115.934 91.3457 115.549 91.4316 115.193C91.5176 114.838 91.6484 114.527 91.8242 114.262C92.0039 113.992 92.2285 113.783 92.498 113.635C92.7715 113.482 93.0918 113.406 93.459 113.406C93.5488 113.406 93.6367 113.414 93.7227 113.43C93.8125 113.441 93.8789 113.457 93.9219 113.477Z" fill="black"/>
<path d="M87.2188 119.98C86.8047 119.98 86.4238 119.904 86.0762 119.752C85.7324 119.6 85.4316 119.385 85.1738 119.107C84.9199 118.83 84.7227 118.502 84.582 118.123C84.4453 117.74 84.377 117.322 84.377 116.869V116.617C84.377 116.129 84.4492 115.688 84.5938 115.293C84.7383 114.898 84.9375 114.561 85.1914 114.279C85.4453 113.998 85.7344 113.783 86.0586 113.635C86.3867 113.482 86.7305 113.406 87.0898 113.406C87.4922 113.406 87.8496 113.479 88.1621 113.623C88.4746 113.764 88.7363 113.965 88.9473 114.227C89.1621 114.484 89.3242 114.791 89.4336 115.146C89.543 115.498 89.5977 115.887 89.5977 116.312V116.74H84.7988V116.143H88.9004V116.061C88.8926 115.705 88.8203 115.373 88.6836 115.064C88.5508 114.752 88.3516 114.498 88.0859 114.303C87.8203 114.107 87.4883 114.01 87.0898 114.01C86.793 114.01 86.5195 114.072 86.2695 114.197C86.0234 114.322 85.8105 114.502 85.6309 114.736C85.4551 114.967 85.3184 115.242 85.2207 115.562C85.127 115.879 85.0801 116.23 85.0801 116.617V116.869C85.0801 117.221 85.1309 117.549 85.2324 117.854C85.3379 118.154 85.4863 118.42 85.6777 118.65C85.873 118.881 86.1035 119.061 86.3691 119.189C86.6348 119.318 86.9277 119.383 87.248 119.383C87.623 119.383 87.9551 119.314 88.2441 119.178C88.5332 119.037 88.793 118.816 89.0234 118.516L89.4629 118.855C89.3262 119.059 89.1543 119.246 88.9473 119.418C88.7441 119.59 88.5 119.727 88.2148 119.828C87.9297 119.93 87.5977 119.98 87.2188 119.98Z" fill="black"/>
<path d="M82.4551 117.203H83.1758C83.1172 117.777 82.959 118.273 82.7012 118.691C82.4434 119.105 82.0918 119.424 81.6465 119.646C81.2012 119.869 80.6641 119.98 80.0352 119.98C79.5508 119.98 79.1113 119.889 78.7168 119.705C78.3262 119.521 77.9902 119.262 77.709 118.926C77.4277 118.586 77.2109 118.18 77.0586 117.707C76.9062 117.234 76.8301 116.709 76.8301 116.131V115.064C76.8301 114.486 76.9062 113.963 77.0586 113.494C77.2109 113.021 77.4297 112.615 77.7148 112.275C78 111.936 78.3418 111.674 78.7402 111.49C79.1387 111.307 79.5879 111.215 80.0879 111.215C80.6934 111.215 81.2168 111.326 81.6582 111.549C82.0996 111.768 82.4473 112.084 82.7012 112.498C82.959 112.912 83.1172 113.412 83.1758 113.998H82.4551C82.4004 113.537 82.2793 113.146 82.0918 112.826C81.9043 112.506 81.6445 112.262 81.3125 112.094C80.9844 111.922 80.5762 111.836 80.0879 111.836C79.6895 111.836 79.334 111.912 79.0215 112.064C78.709 112.217 78.4434 112.436 78.2246 112.721C78.0059 113.002 77.8379 113.34 77.7207 113.734C77.6074 114.129 77.5508 114.568 77.5508 115.053V116.131C77.5508 116.6 77.6055 117.031 77.7148 117.426C77.8242 117.82 77.9844 118.162 78.1953 118.451C78.4102 118.74 78.6719 118.965 78.9805 119.125C79.2891 119.285 79.6406 119.365 80.0352 119.365C80.5391 119.365 80.959 119.285 81.2949 119.125C81.6348 118.961 81.8984 118.719 82.0859 118.398C82.2734 118.078 82.3965 117.68 82.4551 117.203Z" fill="black"/>
<path d="M71.7324 117.203H72.4531C72.3945 117.777 72.2363 118.273 71.9785 118.691C71.7207 119.105 71.3691 119.424 70.9238 119.646C70.4785 119.869 69.9414 119.98 69.3125 119.98C68.8281 119.98 68.3887 119.889 67.9941 119.705C67.6035 119.521 67.2676 119.262 66.9863 118.926C66.7051 118.586 66.4883 118.18 66.3359 117.707C66.1836 117.234 66.1074 116.709 66.1074 116.131V115.064C66.1074 114.486 66.1836 113.963 66.3359 113.494C66.4883 113.021 66.707 112.615 66.9922 112.275C67.2773 111.936 67.6191 111.674 68.0176 111.49C68.416 111.307 68.8652 111.215 69.3652 111.215C69.9707 111.215 70.4941 111.326 70.9355 111.549C71.377 111.768 71.7246 112.084 71.9785 112.498C72.2363 112.912 72.3945 113.412 72.4531 113.998H71.7324C71.6777 113.537 71.5566 113.146 71.3691 112.826C71.1816 112.506 70.9219 112.262 70.5898 112.094C70.2617 111.922 69.8535 111.836 69.3652 111.836C68.9668 111.836 68.6113 111.912 68.2988 112.064C67.9863 112.217 67.7207 112.436 67.502 112.721C67.2832 113.002 67.1152 113.34 66.998 113.734C66.8848 114.129 66.8281 114.568 66.8281 115.053V116.131C66.8281 116.6 66.8828 117.031 66.9922 117.426C67.1016 117.82 67.2617 118.162 67.4727 118.451C67.6875 118.74 67.9492 118.965 68.2578 119.125C68.5664 119.285 68.918 119.365 69.3125 119.365C69.8164 119.365 70.2363 119.285 70.5723 119.125C70.9121 118.961 71.1758 118.719 71.3633 118.398C71.5508 118.078 71.6738 117.68 71.7324 117.203Z" fill="black"/>
<path d="M60.8867 119.863H58.9531L58.9648 119.248H60.8867C61.5 119.248 62.0273 119.111 62.4688 118.838C62.9141 118.561 63.2578 118.178 63.5 117.689C63.7422 117.201 63.8633 116.635 63.8633 115.99V115.193C63.8633 114.701 63.793 114.256 63.6523 113.857C63.5156 113.459 63.3184 113.119 63.0605 112.838C62.8027 112.553 62.4941 112.334 62.1348 112.182C61.7793 112.029 61.3809 111.953 60.9395 111.953H58.918V111.332H60.9395C61.4707 111.332 61.957 111.424 62.3984 111.607C62.8438 111.787 63.2285 112.049 63.5527 112.393C63.8809 112.732 64.1328 113.141 64.3086 113.617C64.4883 114.094 64.5781 114.625 64.5781 115.211V115.99C64.5781 116.576 64.4883 117.107 64.3086 117.584C64.1328 118.061 63.8809 118.469 63.5527 118.809C63.2246 119.148 62.8359 119.41 62.3867 119.594C61.9375 119.773 61.4375 119.863 60.8867 119.863ZM59.2754 111.332V119.863H58.5547V111.332H59.2754Z" fill="black"/>
<path d="M57.1602 119.248V119.863H52.7363V119.248H57.1602ZM52.9473 111.332V119.863H52.2266V111.332H52.9473Z" fill="black"/>
<path d="M47.8672 115.797V116.4H45.0605V115.797H47.8672Z" fill="black"/>
<path d="M40.6367 117.766C40.6367 117.531 40.5977 117.322 40.5195 117.139C40.4414 116.955 40.3125 116.791 40.1328 116.646C39.957 116.498 39.7188 116.361 39.418 116.236C39.1211 116.107 38.75 115.98 38.3047 115.855C37.8789 115.734 37.4941 115.602 37.1504 115.457C36.8066 115.312 36.5117 115.146 36.2656 114.959C36.0234 114.771 35.8379 114.553 35.709 114.303C35.5801 114.049 35.5156 113.754 35.5156 113.418C35.5156 113.09 35.5859 112.791 35.7266 112.521C35.8672 112.252 36.0645 112.02 36.3184 111.824C36.5762 111.629 36.8789 111.479 37.2266 111.373C37.5781 111.268 37.9629 111.215 38.3809 111.215C38.9785 111.215 39.4941 111.328 39.9277 111.555C40.3652 111.781 40.7031 112.088 40.9414 112.475C41.1836 112.857 41.3047 113.287 41.3047 113.764H40.584C40.584 113.393 40.4961 113.062 40.3203 112.773C40.1484 112.48 39.8984 112.252 39.5703 112.088C39.2461 111.92 38.8496 111.836 38.3809 111.836C37.9121 111.836 37.5176 111.908 37.1973 112.053C36.8809 112.193 36.6406 112.383 36.4766 112.621C36.3164 112.855 36.2363 113.117 36.2363 113.406C36.2363 113.609 36.2754 113.797 36.3535 113.969C36.4316 114.137 36.5586 114.295 36.7344 114.443C36.9141 114.588 37.1504 114.725 37.4434 114.854C37.7363 114.979 38.0977 115.098 38.5273 115.211C38.9805 115.336 39.3828 115.475 39.7344 115.627C40.0859 115.779 40.3828 115.955 40.625 116.154C40.8672 116.35 41.0508 116.578 41.1758 116.84C41.3008 117.102 41.3633 117.406 41.3633 117.754C41.3633 118.102 41.2891 118.414 41.1406 118.691C40.9961 118.965 40.791 119.197 40.5254 119.389C40.2637 119.58 39.9531 119.727 39.5938 119.828C39.2383 119.93 38.8496 119.98 38.4277 119.98C38.0488 119.98 37.6719 119.932 37.2969 119.834C36.9219 119.736 36.5781 119.586 36.2656 119.383C35.957 119.176 35.709 118.91 35.5215 118.586C35.3379 118.262 35.2461 117.875 35.2461 117.426H35.9609C35.9609 117.785 36.0332 118.088 36.1777 118.334C36.3223 118.58 36.5137 118.779 36.752 118.932C36.9941 119.084 37.2598 119.195 37.5488 119.266C37.8418 119.332 38.1348 119.365 38.4277 119.365C38.877 119.365 39.2656 119.299 39.5938 119.166C39.9258 119.033 40.1816 118.848 40.3613 118.609C40.5449 118.367 40.6367 118.086 40.6367 117.766Z" fill="black"/>
<path d="M30.2773 119.863H28.3438L28.3555 119.248H30.2773C30.8906 119.248 31.418 119.111 31.8594 118.838C32.3047 118.561 32.6484 118.178 32.8906 117.689C33.1328 117.201 33.2539 116.635 33.2539 115.99V115.193C33.2539 114.701 33.1836 114.256 33.043 113.857C32.9062 113.459 32.709 113.119 32.4512 112.838C32.1934 112.553 31.8848 112.334 31.5254 112.182C31.1699 112.029 30.7715 111.953 30.3301 111.953H28.3086V111.332H30.3301C30.8613 111.332 31.3477 111.424 31.7891 111.607C32.2344 111.787 32.6191 112.049 32.9434 112.393C33.2715 112.732 33.5234 113.141 33.6992 113.617C33.8789 114.094 33.9688 114.625 33.9688 115.211V115.99C33.9688 116.576 33.8789 117.107 33.6992 117.584C33.5234 118.061 33.2715 118.469 32.9434 118.809C32.6152 119.148 32.2266 119.41 31.7773 119.594C31.3281 119.773 30.8281 119.863 30.2773 119.863ZM28.666 111.332V119.863H27.9453V111.332H28.666Z" fill="black"/>
<path d="M23.6328 111.332V119.863H22.918V111.332H23.6328ZM26.5566 111.332V111.953H20V111.332H26.5566Z" fill="black"/>
<rect x="20" y="129.98" width="138" height="14" rx="7" fill="#F1F1F1"/>
<path d="M23 136.98C23 134.771 24.7909 132.98 27 132.98H81C83.2091 132.98 85 134.771 85 136.98C85 139.19 83.2091 140.98 81 140.98H27C24.7909 140.98 23 139.19 23 136.98Z" fill="url(#paint2_linear_21_26)"/>
<defs>
<linearGradient id="paint0_linear_21_26" x1="23" y1="48.1797" x2="114" y2="48.1797" gradientUnits="userSpaceOnUse">
<stop stop-color="#5F78FF"/>
<stop offset="0.512222" stop-color="#EA27FF"/>
<stop offset="1" stop-color="#FF1E7D"/>
</linearGradient>
<linearGradient id="paint1_linear_21_26" x1="23" y1="93.7402" x2="146" y2="93.7402" gradientUnits="userSpaceOnUse">
<stop stop-color="#5F78FF"/>
<stop offset="0.512222" stop-color="#EA27FF"/>
<stop offset="1" stop-color="#FF1E7D"/>
</linearGradient>
<linearGradient id="paint2_linear_21_26" x1="23" y1="136.98" x2="85" y2="136.98" gradientUnits="userSpaceOnUse">
<stop stop-color="#5F78FF"/>
<stop offset="0.512222" stop-color="#EA27FF"/>
<stop offset="1" stop-color="#FF1E7D"/>
</linearGradient>
</defs>
</svg>
